<svg width="42" height="8" viewBox="0 0 42 8" fill="none" xmlns="http://www.w3.org/2000/svg">
<path d="M1.00081 3.57636C0.766841 3.57636 0.576809 3.76603 0.576362 4C0.575915 4.23397 0.765221 4.42364 0.99919 4.42364L1.00081 3.57636ZM41.299 4.29956C41.4647 4.13412 41.4653 3.86588 41.3001 3.70044L38.6093 1.00443C38.4441 0.838992 38.1759 0.838992 38.0102 1.00443C37.8444 1.16987 37.8439 1.43811 38.009 1.60355L40.4009 4L37.9998 6.39645C37.8341 6.56189 37.8336 6.83013 37.9987 6.99557C38.1638 7.16101 38.4321 7.16101 38.5978 6.99557L41.299 4.29956ZM0.99919 4.42364H40.9992L41.0008 3.57636H1.00081L0.99919 4.42364Z" fill="#262626"/>
</svg>
