<svg width="210" height="46" viewBox="0 0 210 46" fill="none" xmlns="http://www.w3.org/2000/svg">
<path d="M160.533 30.6589C158.686 27.6992 156.881 24.8821 155.119 22.2075C153.379 19.5109 151.946 17.3405 150.82 15.6963C149.695 14.0301 148.984 12.9778 148.687 12.5394H148.528L148.369 26.5812C148.369 27.0635 148.443 27.4033 148.591 27.6006C148.74 27.7979 148.995 27.8965 149.356 27.8965L150.98 27.8637L151.043 27.9952L150.757 29.475C150.523 29.4531 150.046 29.4202 149.324 29.3764C148.602 29.3544 147.955 29.3435 147.381 29.3435C146.851 29.3435 146.267 29.3764 145.63 29.4421C145.014 29.5298 144.611 29.5846 144.42 29.6065L144.579 28.0938C145.237 28.0062 145.726 27.8088 146.044 27.5019C146.362 27.1731 146.532 26.6798 146.553 26.0221L146.967 11.6515C146.967 10.9719 146.766 10.4896 146.362 10.2046C145.98 9.91955 145.259 9.72224 144.197 9.61263L144.102 9.4482L144.356 8.23147C144.547 8.25339 144.961 8.28627 145.598 8.33012C146.235 8.37397 146.734 8.39589 147.095 8.39589C147.541 8.39589 147.976 8.38493 148.4 8.36301C148.825 8.31916 149.101 8.28627 149.228 8.26435C150.799 10.7855 152.37 13.2519 153.941 15.6634C155.533 18.075 156.86 20.059 157.922 21.6156C158.983 23.1721 159.652 24.1586 159.928 24.5752H160.087V11.2569C160.087 10.3142 159.737 9.84282 159.036 9.84282L157.826 9.8757L157.762 9.74417L158.049 8.26435C158.261 8.28627 158.665 8.31916 159.259 8.36301C159.853 8.38493 160.458 8.39589 161.074 8.39589C161.626 8.39589 162.231 8.36301 162.889 8.29724C163.568 8.20954 164.014 8.15474 164.226 8.13281L164.067 9.64551C163.324 9.75513 162.783 9.97436 162.443 10.3032C162.104 10.6101 161.923 11.0815 161.902 11.7173L161.456 30.1985L160.533 30.6589Z" fill="#262626"/>
<path d="M130.426 29.7368C128.707 29.7368 127.178 29.3093 125.841 28.4543C124.503 27.5993 123.463 26.4045 122.72 24.8699C121.977 23.3133 121.605 21.5485 121.605 19.5754C121.605 17.427 122.062 15.4758 122.975 13.7219C123.909 11.9462 125.172 10.554 126.764 9.54558C128.377 8.51519 130.15 8 132.082 8C133.844 8 135.404 8.4275 136.763 9.28251C138.121 10.1375 139.183 11.3323 139.947 12.8669C140.711 14.4016 141.094 16.1554 141.094 18.1285C141.094 20.277 140.616 22.2391 139.661 24.0149C138.727 25.7906 137.442 27.1937 135.808 28.2241C134.194 29.2326 132.4 29.7368 130.426 29.7368ZM131.413 28.0597C132.751 28.0597 133.939 27.698 134.98 26.9745C136.02 26.251 136.827 25.2426 137.4 23.9491C137.973 22.6556 138.259 21.1758 138.259 19.5097C138.259 17.6462 137.952 16.002 137.336 14.5769C136.72 13.13 135.861 12.001 134.757 11.1898C133.674 10.3787 132.422 9.97308 130.999 9.97308C129.704 9.97308 128.547 10.3348 127.528 11.0583C126.531 11.7817 125.745 12.7902 125.172 14.0837C124.62 15.3771 124.344 16.857 124.344 18.5231C124.344 20.3866 124.641 22.0418 125.236 23.4887C125.83 24.9137 126.658 26.0318 127.719 26.843C128.802 27.6541 130.033 28.0597 131.413 28.0597Z" fill="#262626"/>
<path d="M110.8 28.2231C111.798 28.0258 112.467 27.7408 112.807 27.3681C113.167 26.9735 113.348 26.3158 113.348 25.395L113.38 11.5834C113.38 10.8819 113.295 10.4105 113.125 10.1694C112.976 9.92824 112.669 9.80766 112.202 9.80766L110.864 9.87343L110.8 9.74189L111.023 8.29496C111.363 8.29496 111.628 8.30593 111.819 8.32785L114.813 8.39362C115.768 8.39362 116.989 8.29496 118.475 8.09766L118.347 9.57747C117.477 9.68709 116.882 9.87343 116.564 10.1365C116.267 10.3777 116.097 10.8161 116.055 11.4519C115.927 14.0169 115.821 16.7025 115.736 19.5087C115.651 22.2929 115.609 24.3427 115.609 25.6581C115.609 26.557 115.704 27.1598 115.895 27.4668C116.086 27.7518 116.458 27.8943 117.01 27.8943C117.371 27.8943 117.933 27.8614 118.698 27.7956L118.761 27.9272L118.475 29.4398C118.177 29.4398 117.944 29.4289 117.774 29.407C116.288 29.3631 115.131 29.3412 114.303 29.3412C113.263 29.3412 112.032 29.4727 110.609 29.7358L110.8 28.2231Z" fill="#262626"/>
<path d="M95.679 28.0597C96.7405 27.972 97.4729 27.8405 97.8762 27.6651C98.2796 27.4678 98.5449 27.128 98.6723 26.6456C98.7997 26.1414 98.8634 25.2645 98.8634 24.0149V9.67712C97.0589 9.74289 95.8276 9.85251 95.1695 10.006C94.5327 10.1375 94.0975 10.4554 93.864 10.9596C93.6304 11.4419 93.4182 12.3956 93.2271 13.8206L91.7305 13.9521C91.9852 11.8694 92.1444 9.97308 92.2081 8.26308L92.4947 8L95.1377 8.36173H105.009L107.716 8L108.002 8.26308C108.066 10.0608 108.225 11.9133 108.48 13.8206L106.983 13.9521C106.75 12.5052 106.516 11.5296 106.283 11.0254C106.049 10.5212 105.635 10.1923 105.041 10.0389C104.447 9.88539 103.3 9.76481 101.602 9.67712C101.474 10.9925 101.358 13.3164 101.252 16.6487C101.145 19.981 101.092 22.9845 101.092 25.6591C101.092 26.4703 101.23 27.0512 101.506 27.402C101.782 27.7308 102.249 27.8953 102.907 27.8953C103.544 27.8953 104.128 27.8624 104.659 27.7966L104.754 27.9282L104.468 29.4408L103.417 29.408L99.7868 29.3422C98.6192 29.3422 97.165 29.386 95.4243 29.4737L95.679 28.0597Z" fill="#262626"/>
<path d="M84.1338 29.4408L84.2611 28.1583C85.3438 28.0707 86.0868 27.9391 86.4902 27.7637C86.8935 27.5883 87.0952 27.3033 87.0952 26.9087C87.0952 26.4703 86.9996 25.9441 86.8086 25.3303L85.7578 21.7458C85.2483 21.7239 84.1444 21.7129 82.4461 21.7129C81.4271 21.7129 80.2701 21.8006 78.9752 21.976L77.797 25.396C77.6059 25.988 77.5104 26.4155 77.5104 26.6785C77.5104 27.1608 77.659 27.5116 77.9562 27.7308C78.2534 27.9282 78.7416 28.0268 79.421 28.0268H81.236L81.2997 28.1583L81.1086 29.5724C80.8539 29.5505 80.2701 29.5066 79.3573 29.4408C78.4444 29.3751 77.5528 29.3422 76.6824 29.3422C75.897 29.3422 75.1646 29.3532 74.4853 29.3751C73.8272 29.397 73.392 29.4189 73.1797 29.4408L73.4344 27.8953C74.0288 27.8295 74.5065 27.6212 74.8674 27.2705C75.2283 26.8978 75.5785 26.262 75.9182 25.3631L82.1276 8.55904L84.1338 8H84.3885C84.5159 8.52616 84.8343 9.74289 85.3438 11.6502C85.8745 13.5575 86.5114 15.8156 87.2544 18.4245C88.0186 21.0333 88.751 23.4339 89.4516 25.6262C89.7063 26.4374 90.046 27.0074 90.4706 27.3362C90.8951 27.6651 91.5745 27.8733 92.5085 27.961L92.5722 28.0926L92.3493 29.4408C92.0946 29.4408 91.6275 29.4189 90.9482 29.3751C90.2901 29.3532 89.632 29.3422 88.9739 29.3422C87.9549 29.3422 86.9678 29.386 86.0125 29.4737C85.0784 29.5614 84.484 29.6272 84.2293 29.671L84.1338 29.4408ZM82.3505 20.3647C83.1148 20.3647 84.1019 20.3099 85.312 20.2002L82.7963 11.5844H82.5734L79.5483 20.3647H82.3505Z" fill="#262626"/>
<path d="M63.7445 29.7368C62.8529 29.7368 62.0356 29.6491 61.2926 29.4737C60.5496 29.3203 59.934 29.1449 59.4457 28.9476C58.9787 28.7503 58.7451 28.6407 58.7451 28.6187L58.5859 28.2899C58.6072 28.1583 58.6496 27.8295 58.7133 27.3033C58.777 26.7772 58.8301 26.0976 58.8725 25.2645C58.9362 24.4095 58.9681 23.5106 58.9681 22.5679L60.401 22.4035C60.401 24.0478 60.5071 25.2645 60.7194 26.0537C60.9317 26.843 61.3245 27.391 61.8976 27.698C62.4708 27.983 63.3518 28.1255 64.5406 28.1255C65.878 28.1255 66.9501 27.8076 67.7568 27.1718C68.5635 26.5141 68.9668 25.6262 68.9668 24.5081C68.9668 23.8504 68.7439 23.2585 68.2981 22.7324C67.8735 22.2062 67.3641 21.7568 66.7696 21.3841C66.1752 21.0114 65.2942 20.5072 64.1267 19.8714C63.0228 19.2795 62.1205 18.7423 61.42 18.26C60.7194 17.7558 60.125 17.1639 59.6368 16.4843C59.1697 15.8046 58.9362 15.0154 58.9362 14.1166C58.9362 12.9766 59.2546 11.9462 59.8915 11.0254C60.5496 10.0827 61.4306 9.34827 62.5345 8.82212C63.6596 8.27404 64.9015 8 66.2602 8C67.1093 8 67.8948 8.06577 68.6166 8.19731C69.3383 8.30693 69.9115 8.4275 70.3361 8.55904C70.7607 8.69058 71.026 8.77827 71.1322 8.82212L71.2277 9.01943C71.2065 9.15097 71.1534 9.45789 71.0685 9.9402C70.9836 10.4225 70.888 11.0912 70.7819 11.9462C70.6757 12.8012 70.5908 13.6781 70.5271 14.5769L69.2853 14.7085L69.0942 14.5441C69.1154 14.4564 69.1367 14.2591 69.1579 13.9521C69.1791 13.6233 69.1897 13.2506 69.1897 12.8341C69.1897 11.6721 68.9138 10.8719 68.3618 10.4335C67.8099 9.99501 66.8227 9.77578 65.4004 9.77578C64.2328 9.77578 63.2669 10.0827 62.5026 10.6965C61.7596 11.2885 61.3881 12.0339 61.3881 12.9327C61.3881 13.8096 61.749 14.5769 62.4708 15.2346C63.2138 15.8704 64.2965 16.572 65.7188 17.3393C67.0987 18.0627 68.1495 18.6656 68.8713 19.1479C69.5931 19.6083 70.2299 20.1893 70.7819 20.8908C71.3338 21.5924 71.6098 22.4035 71.6098 23.3243C71.6098 24.552 71.2702 25.6591 70.5908 26.6456C69.9327 27.6103 69.0093 28.3666 67.8205 28.9147C66.6317 29.4628 65.273 29.7368 63.7445 29.7368Z" fill="#262626"/>
<path d="M52.0366 30.6589C50.1897 27.6992 48.3852 24.8821 46.6232 22.2075C44.8825 19.5109 43.4495 17.3405 42.3244 15.6963C41.1993 14.0301 40.4881 12.9778 40.1909 12.5394H40.0317L39.8725 26.5812C39.8725 27.0635 39.9468 27.4033 40.0954 27.6006C40.244 27.7979 40.4987 27.8965 40.8596 27.8965L42.4836 27.8637L42.5473 27.9952L42.2607 29.475C42.0272 29.4531 41.5495 29.4202 40.8278 29.3764C40.106 29.3544 39.4585 29.3435 38.8853 29.3435C38.3546 29.3435 37.7708 29.3764 37.1339 29.4421C36.5183 29.5298 36.115 29.5846 35.9239 29.6065L36.0831 28.0938C36.7412 28.0062 37.2295 27.8088 37.5479 27.5019C37.8663 27.1731 38.0362 26.6798 38.0574 26.0221L38.4714 11.6515C38.4714 10.9719 38.2697 10.4896 37.8663 10.2046C37.4842 9.91955 36.7624 9.72224 35.701 9.61263L35.6055 9.4482L35.8602 8.23147C36.0513 8.25339 36.4652 8.28627 37.1021 8.33012C37.739 8.37397 38.2378 8.39589 38.5987 8.39589C39.0445 8.39589 39.4797 8.38493 39.9043 8.36301C40.3289 8.31916 40.6049 8.28627 40.7322 8.26435C42.3032 10.7855 43.8741 13.2519 45.445 15.6634C47.0372 18.075 48.364 20.059 49.4254 21.6156C50.4869 23.1721 51.1556 24.1586 51.4316 24.5752H51.5908V11.2569C51.5908 10.3142 51.2405 9.84282 50.5399 9.84282L49.3299 9.8757L49.2662 9.74417L49.5528 8.26435C49.7651 8.28627 50.1684 8.31916 50.7628 8.36301C51.3572 8.38493 51.9623 8.39589 52.5779 8.39589C53.1299 8.39589 53.7349 8.36301 54.393 8.29724C55.0723 8.20954 55.5181 8.15474 55.7304 8.13281L55.5712 9.64551C54.8282 9.75513 54.2868 9.97436 53.9472 10.3032C53.6075 10.6101 53.4271 11.0815 53.4058 11.7173L52.96 30.1985L52.0366 30.6589Z" fill="#262626"/>
<path d="M32.0117 23.8504C31.6508 25.6262 31.3642 27.4678 31.1519 29.3751L30.9927 29.5724C26.5346 29.4189 23.3185 29.3422 21.3442 29.3422C19.7732 29.3422 18.2978 29.4518 16.918 29.671L17.109 28.1583C18.0643 28.0268 18.7118 27.7747 19.0515 27.402C19.4124 27.0074 19.5928 26.3387 19.5928 25.396L19.6246 11.5844C19.6246 10.8829 19.5397 10.4115 19.3699 10.1704C19.2213 9.92924 18.9135 9.80866 18.4464 9.80866L17.3638 9.87443L17.3001 9.74289L17.523 8.29596C19.6883 8.36173 21.1637 8.39462 21.9492 8.39462C24.4754 8.39462 26.4391 8.37269 27.8402 8.32885C29.2413 8.26308 30.462 8.15346 31.5022 8L31.5977 8.19731C31.2156 9.92924 30.9714 11.7489 30.8653 13.6562L29.3368 13.7877L29.4005 12.3737C29.4005 11.6064 29.305 11.0802 29.1139 10.7952C28.9229 10.4883 28.5089 10.291 27.872 10.2033C27.2352 10.0937 26.1207 10.0389 24.5285 10.0389C23.7855 10.0389 23.276 10.0608 23 10.1046C22.7241 10.1485 22.5436 10.2581 22.4587 10.4335C22.3738 10.5869 22.3207 10.8829 22.2995 11.3214L22.0447 17.701L25.3246 17.7339C26.1525 17.7339 27.4475 17.6133 29.2095 17.3722L29.3368 17.5366L28.891 19.4768C26.5346 19.411 25.0486 19.3781 24.433 19.3781C23.7324 19.3781 22.9151 19.4549 21.981 19.6083L21.8537 25.8893C21.8537 26.5251 21.9067 26.9745 22.0129 27.2376C22.119 27.4787 22.3313 27.6432 22.6497 27.7308C22.9894 27.8185 23.5626 27.8624 24.3693 27.8624C26.1525 27.8624 27.4156 27.7747 28.1586 27.5993C28.9229 27.4239 29.4642 27.0731 29.7826 26.547C30.1011 26.0208 30.3452 25.122 30.515 23.8504L31.9161 23.686L32.0117 23.8504Z" fill="#262626"/>
<path d="M5.1586 29.7368C4.26699 29.7368 3.44968 29.6491 2.70667 29.4737C1.96367 29.3203 1.34803 29.1449 0.859767 28.9476C0.392733 28.7503 0.159216 28.6407 0.159216 28.6187L0 28.2899C0.0212288 28.1583 0.0636865 27.8295 0.127373 27.3033C0.191059 26.7772 0.244131 26.0976 0.286589 25.2645C0.350275 24.4095 0.382119 23.5106 0.382119 22.5679L1.81506 22.4035C1.81506 24.0478 1.92121 25.2645 2.1335 26.0537C2.34578 26.843 2.73852 27.391 3.31169 27.698C3.88487 27.983 4.76587 28.1255 5.95468 28.1255C7.2921 28.1255 8.36415 27.8076 9.17085 27.1718C9.97754 26.5141 10.3809 25.6262 10.3809 24.5081C10.3809 23.8504 10.158 23.2585 9.71218 22.7324C9.28761 22.2062 8.77811 21.7568 8.18371 21.3841C7.5893 21.0114 6.7083 20.5072 5.54072 19.8714C4.43682 19.2795 3.5346 18.7423 2.83405 18.26C2.1335 17.7558 1.53909 17.1639 1.05083 16.4843C0.583792 15.8046 0.350275 15.0154 0.350275 14.1166C0.350275 12.9766 0.668708 11.9462 1.30557 11.0254C1.96367 10.0827 2.84466 9.34827 3.94856 8.82212C5.07369 8.27404 6.31557 8 7.67422 8C8.52337 8 9.30883 8.06577 10.0306 8.19731C10.7524 8.30693 11.3256 8.4275 11.7501 8.55904C12.1747 8.69058 12.4401 8.77827 12.5462 8.82212L12.6418 9.01943C12.6205 9.15097 12.5675 9.45789 12.4825 9.9402C12.3976 10.4225 12.3021 11.0912 12.196 11.9462C12.0898 12.8012 12.0049 13.6781 11.9412 14.5769L10.6993 14.7085L10.5083 14.5441C10.5295 14.4564 10.5507 14.2591 10.5719 13.9521C10.5932 13.6233 10.6038 13.2506 10.6038 12.8341C10.6038 11.6721 10.3278 10.8719 9.77587 10.4335C9.22392 9.99501 8.23678 9.77578 6.81445 9.77578C5.64686 9.77578 4.68095 10.0827 3.91672 10.6965C3.17371 11.2885 2.8022 12.0339 2.8022 12.9327C2.8022 13.8096 3.16309 14.5769 3.88487 15.2346C4.62788 15.8704 5.71055 16.572 7.13288 17.3393C8.51275 18.0627 9.56358 18.6656 10.2854 19.1479C11.0071 19.6083 11.644 20.1893 12.196 20.8908C12.7479 21.5924 13.0239 22.4035 13.0239 23.3243C13.0239 24.552 12.6842 25.6591 12.0049 26.6456C11.3468 27.6103 10.4233 28.3666 9.23453 28.9147C8.04572 29.4628 6.68708 29.7368 5.1586 29.7368Z" fill="#262626"/>
<path d="M152.283 45.9972C151.935 45.9972 151.576 45.9374 151.206 45.8179C150.835 45.6983 150.528 45.5428 150.285 45.3515V43.773C150.505 44.3351 150.8 44.7416 151.171 44.9928C151.553 45.2319 151.964 45.3515 152.404 45.3515C152.763 45.3515 153.053 45.2499 153.273 45.0466C153.504 44.8433 153.62 44.6221 153.62 44.3829C153.62 44.1198 153.504 43.8986 153.273 43.7192C153.041 43.5398 152.688 43.3366 152.213 43.1094C151.599 42.8104 151.125 42.5174 150.789 42.2304C150.453 41.9434 150.285 41.5548 150.285 41.0645C150.285 40.5264 150.482 40.066 150.876 39.6834C151.269 39.3007 151.785 39.1094 152.422 39.1094C152.862 39.1094 153.244 39.1632 153.568 39.2708C153.892 39.3784 154.135 39.498 154.297 39.6296L154.02 40.9748C153.881 40.5683 153.649 40.2633 153.325 40.06C153.001 39.8568 152.659 39.7551 152.3 39.7551C151.987 39.7551 151.727 39.8508 151.518 40.0421C151.322 40.2334 151.223 40.4487 151.223 40.6878C151.223 41.0107 151.345 41.2678 151.588 41.4591C151.843 41.6505 152.225 41.8597 152.734 42.0869C153.336 42.35 153.794 42.6191 154.106 42.8941C154.431 43.1572 154.593 43.5339 154.593 44.0241C154.593 44.3709 154.5 44.6938 154.315 44.9928C154.13 45.2917 153.857 45.5368 153.498 45.7282C153.151 45.9075 152.746 45.9972 152.283 45.9972Z" fill="#262626"/>
<path d="M140.845 45.9972C140.219 45.9972 139.681 45.8418 139.229 45.5309C138.778 45.208 138.43 44.7954 138.187 44.2932C137.956 43.779 137.84 43.2349 137.84 42.6609C137.84 41.9195 137.979 41.2798 138.257 40.7417C138.546 40.2035 138.917 39.797 139.368 39.5219C139.82 39.2469 140.289 39.1094 140.775 39.1094C141.47 39.1094 142.066 39.3725 142.564 39.8986C143.074 40.4128 143.352 41.1303 143.398 42.0511H138.882C138.882 42.6251 138.986 43.1333 139.195 43.5757C139.403 44.0062 139.681 44.341 140.028 44.5802C140.387 44.8074 140.775 44.921 141.192 44.921C142.281 44.921 143.016 44.5623 143.398 43.8448C143.294 44.4905 143.01 45.0107 142.547 45.4053C142.084 45.7999 141.516 45.9972 140.845 45.9972ZM140.654 39.7013C140.202 39.7013 139.814 39.8687 139.49 40.2035C139.166 40.5264 138.969 40.9509 138.899 41.4771H142.061C142.061 40.927 141.916 40.4965 141.626 40.1856C141.348 39.8627 141.024 39.7013 140.654 39.7013Z" fill="#262626"/>
<path d="M129.44 41.2815C129.44 40.7793 129.359 40.4385 129.197 40.2591C129.046 40.0678 128.873 39.9721 128.676 39.9721L130.552 39.1111V43.99C130.552 44.5162 130.604 44.9108 130.708 45.1739C130.812 45.4369 130.928 45.6163 131.055 45.712C131.183 45.7957 131.246 45.8196 131.246 45.7837H128.745C128.745 45.8196 128.809 45.7957 128.936 45.712C129.064 45.6163 129.179 45.4369 129.284 45.1739C129.388 44.9108 129.44 44.5162 129.44 43.99V41.2815ZM129.978 36.9407C129.724 36.9407 129.521 36.857 129.371 36.6896C129.232 36.5102 129.162 36.3069 129.162 36.0797C129.162 35.8525 129.232 35.6552 129.371 35.4878C129.521 35.3084 129.724 35.2188 129.978 35.2188C130.233 35.2188 130.43 35.3084 130.569 35.4878C130.72 35.6552 130.795 35.8525 130.795 36.0797C130.795 36.3069 130.72 36.5102 130.569 36.6896C130.43 36.857 130.233 36.9407 129.978 36.9407Z" fill="#262626"/>
<path d="M119.778 40.7417C119.952 40.359 120.236 39.9943 120.629 39.6475C121.035 39.2887 121.44 39.1094 121.845 39.1094C122.1 39.1094 122.291 39.1452 122.418 39.217V40.6878C122.164 40.365 121.805 40.2035 121.341 40.2035C120.855 40.2035 120.473 40.4248 120.195 40.8672C119.917 41.2977 119.778 41.8538 119.778 42.5354V43.9883C119.778 44.6579 119.853 45.1183 120.004 45.3694C120.155 45.6206 120.299 45.7581 120.438 45.782H117.989C118.128 45.7581 118.273 45.6265 118.423 45.3874C118.586 45.1363 118.667 44.6699 118.667 43.9883V41.2798C118.667 40.7775 118.586 40.4367 118.423 40.2574C118.273 40.066 118.099 39.9704 117.902 39.9704L119.778 39.1094V40.7417Z" fill="#262626"/>
<path d="M104.703 42.7147C104.703 42.0929 104.848 41.507 105.137 40.9569C105.438 40.3949 105.849 39.9464 106.371 39.6116C106.892 39.2768 107.471 39.1094 108.107 39.1094C108.721 39.1094 109.277 39.2589 109.775 39.5578C110.273 39.8448 110.661 40.2394 110.939 40.7417C111.228 41.2439 111.373 41.794 111.373 42.3919C111.373 43.0137 111.222 43.6056 110.921 44.1676C110.632 44.7177 110.226 45.1602 109.705 45.495C109.184 45.8298 108.605 45.9972 107.968 45.9972C107.355 45.9972 106.799 45.8537 106.301 45.5667C105.803 45.2678 105.409 44.8672 105.12 44.365C104.842 43.8627 104.703 43.3126 104.703 42.7147ZM110.122 42.912C110.122 42.4098 110.03 41.9135 109.844 41.4233C109.659 40.933 109.399 40.5324 109.063 40.2215C108.727 39.9106 108.339 39.7551 107.899 39.7551C107.285 39.7551 106.805 39.9943 106.457 40.4726C106.122 40.9509 105.954 41.5249 105.954 42.1946C105.954 42.6968 106.046 43.1931 106.232 43.6833C106.417 44.1736 106.677 44.5742 107.013 44.8851C107.349 45.196 107.737 45.3515 108.177 45.3515C108.791 45.3515 109.265 45.1123 109.601 44.634C109.949 44.1557 110.122 43.5817 110.122 42.912Z" fill="#262626"/>
<path d="M89.0712 40.3291C89.3607 39.9584 89.6849 39.6654 90.0438 39.4502C90.4028 39.223 90.7791 39.1094 91.1728 39.1094C91.6013 39.1094 91.9776 39.217 92.3018 39.4322C92.6376 39.6355 92.8808 39.9345 93.0313 40.3291C93.344 39.9225 93.6971 39.6176 94.0908 39.4143C94.4961 39.211 94.913 39.1094 95.3414 39.1094C95.9667 39.1094 96.4646 39.3186 96.8351 39.7372C97.2172 40.1437 97.4083 40.7357 97.4083 41.513V44.0062C97.4083 44.6639 97.4894 45.1183 97.6515 45.3694C97.8136 45.6206 97.9583 45.7581 98.0857 45.782H95.6193C95.7582 45.7581 95.903 45.6206 96.0535 45.3694C96.2156 45.1183 96.2967 44.6579 96.2967 43.9883V41.9434C96.2967 41.5369 96.2446 41.214 96.1404 40.9748C96.0362 40.7357 95.8972 40.5384 95.7235 40.3829C95.4572 40.1557 95.1387 40.0421 94.7682 40.0421C94.3629 40.0421 94.004 40.1856 93.6913 40.4726C93.3903 40.7476 93.2397 41.1363 93.2397 41.6385V43.9883C93.2397 44.6579 93.315 45.1183 93.4655 45.3694C93.6276 45.6206 93.7782 45.7581 93.9171 45.782H91.4507C91.5897 45.7581 91.7344 45.6206 91.885 45.3694C92.0471 45.1183 92.1281 44.6579 92.1281 43.9883V41.9434C92.1281 41.5369 92.076 41.214 91.9718 40.9748C91.8676 40.7357 91.7286 40.5384 91.5549 40.3829C91.2886 40.1557 90.9702 40.0421 90.5996 40.0421C90.1828 40.0421 89.8238 40.1856 89.5228 40.4726C89.2217 40.7476 89.0712 41.1363 89.0712 41.6385V43.9883C89.0712 44.6699 89.1522 45.1363 89.3143 45.3874C89.4764 45.6265 89.627 45.7581 89.7659 45.782H87.2995C87.4385 45.7581 87.5832 45.6206 87.7338 45.3694C87.8843 45.1183 87.9595 44.6579 87.9595 43.9883V41.2798C87.9595 40.7775 87.8785 40.4367 87.7164 40.2574C87.5659 40.066 87.3922 39.9704 87.1953 39.9704L89.0712 39.1094V40.3291Z" fill="#262626"/>
<path d="M78.1025 45.9972C77.4772 45.9972 76.9388 45.8418 76.4872 45.5309C76.0356 45.208 75.6882 44.7954 75.445 44.2932C75.2135 43.779 75.0977 43.2349 75.0977 42.6609C75.0977 41.9195 75.2366 41.2798 75.5145 40.7417C75.804 40.2035 76.1745 39.797 76.6261 39.5219C77.0777 39.2469 77.5467 39.1094 78.033 39.1094C78.7278 39.1094 79.3241 39.3725 79.822 39.8986C80.3315 40.4128 80.6094 41.1303 80.6557 42.0511H76.1398C76.1398 42.6251 76.244 43.1333 76.4524 43.5757C76.6609 44.0062 76.9388 44.341 77.2862 44.5802C77.6451 44.8074 78.033 44.921 78.4499 44.921C79.5383 44.921 80.2736 44.5623 80.6557 43.8448C80.5515 44.4905 80.2678 45.0107 79.8047 45.4053C79.3415 45.7999 78.7741 45.9972 78.1025 45.9972ZM77.9114 39.7013C77.4598 39.7013 77.0719 39.8687 76.7477 40.2035C76.4235 40.5264 76.2266 40.9509 76.1572 41.4771H79.3183C79.3183 40.927 79.1736 40.4965 78.8841 40.1856C78.6062 39.8627 78.282 39.7013 77.9114 39.7013Z" fill="#262626"/>
<path d="M59.4657 40.3291C59.7552 39.9584 60.0794 39.6654 60.4384 39.4502C60.7973 39.223 61.1737 39.1094 61.5674 39.1094C61.9958 39.1094 62.3721 39.217 62.6963 39.4322C63.0321 39.6355 63.2753 39.9345 63.4258 40.3291C63.7385 39.9225 64.0917 39.6176 64.4853 39.4143C64.8906 39.211 65.3075 39.1094 65.7359 39.1094C66.3612 39.1094 66.8591 39.3186 67.2297 39.7372C67.6118 40.1437 67.8028 40.7357 67.8028 41.513V44.0062C67.8028 44.6639 67.8839 45.1183 68.046 45.3694C68.2081 45.6206 68.3529 45.7581 68.4802 45.782H66.0138C66.1528 45.7581 66.2975 45.6206 66.4481 45.3694C66.6102 45.1183 66.6912 44.6579 66.6912 43.9883V41.9434C66.6912 41.5369 66.6391 41.214 66.5349 40.9748C66.4307 40.7357 66.2917 40.5384 66.118 40.3829C65.8517 40.1557 65.5333 40.0421 65.1627 40.0421C64.7575 40.0421 64.3985 40.1856 64.0859 40.4726C63.7848 40.7476 63.6343 41.1363 63.6343 41.6385V43.9883C63.6343 44.6579 63.7095 45.1183 63.8601 45.3694C64.0222 45.6206 64.1727 45.7581 64.3117 45.782H61.8453C61.9842 45.7581 62.129 45.6206 62.2795 45.3694C62.4416 45.1183 62.5226 44.6579 62.5226 43.9883V41.9434C62.5226 41.5369 62.4705 41.214 62.3663 40.9748C62.2621 40.7357 62.1232 40.5384 61.9495 40.3829C61.6831 40.1557 61.3647 40.0421 60.9942 40.0421C60.5773 40.0421 60.2184 40.1856 59.9173 40.4726C59.6162 40.7476 59.4657 41.1363 59.4657 41.6385V43.9883C59.4657 44.6699 59.5468 45.1363 59.7089 45.3874C59.871 45.6265 60.0215 45.7581 60.1605 45.782H57.6941C57.833 45.7581 57.9778 45.6206 58.1283 45.3694C58.2788 45.1183 58.3541 44.6579 58.3541 43.9883V41.2798C58.3541 40.7775 58.273 40.4367 58.1109 40.2574C57.9604 40.066 57.7867 39.9704 57.5898 39.9704L59.4657 39.1094V40.3291Z" fill="#262626"/>
<path d="M38.8447 45.9972C38.2194 45.9972 37.681 45.8418 37.2294 45.5309C36.7778 45.208 36.4304 44.7954 36.1872 44.2932C35.9556 43.779 35.8398 43.2349 35.8398 42.6609C35.8398 41.9195 35.9788 41.2798 36.2567 40.7417C36.5462 40.2035 36.9167 39.797 37.3683 39.5219C37.8199 39.2469 38.2889 39.1094 38.7752 39.1094C39.47 39.1094 40.0663 39.3725 40.5642 39.8986C41.0737 40.4128 41.3516 41.1303 41.3979 42.0511H36.882C36.882 42.6251 36.9862 43.1333 37.1946 43.5757C37.4031 44.0062 37.681 44.341 38.0283 44.5802C38.3873 44.8074 38.7752 44.921 39.1921 44.921C40.2805 44.921 41.0158 44.5623 41.3979 43.8448C41.2937 44.4905 41.01 45.0107 40.5469 45.4053C40.0837 45.7999 39.5163 45.9972 38.8447 45.9972ZM38.6536 39.7013C38.202 39.7013 37.8141 39.8687 37.4899 40.2035C37.1657 40.5264 36.9688 40.9509 36.8994 41.4771H40.0605C40.0605 40.927 39.9158 40.4965 39.6263 40.1856C39.3484 39.8627 39.0242 39.7013 38.6536 39.7013Z" fill="#262626"/>
<path d="M26.4512 45.9974L24.089 40.4907C23.9385 40.1439 23.7822 39.8808 23.6201 39.7014C23.4695 39.5101 23.3364 39.3845 23.2206 39.3247C23.1048 39.2649 23.0469 39.241 23.0469 39.253H25.6696C25.6464 39.253 25.5943 39.2709 25.5133 39.3068C25.4322 39.3307 25.3512 39.3905 25.2701 39.4862C25.2006 39.5699 25.1659 39.6954 25.1659 39.8629C25.1659 40.0661 25.2238 40.2933 25.3396 40.5445L26.7117 43.7911L27.997 40.7238C28.0781 40.5086 28.1186 40.2874 28.1186 40.0602C28.1186 39.8449 28.0723 39.6655 27.9797 39.522C27.8986 39.3785 27.7597 39.2889 27.5628 39.253H29.8729C29.8729 39.241 29.8092 39.2649 29.6818 39.3247C29.5661 39.3845 29.4271 39.5161 29.265 39.7194C29.1145 39.9107 28.9581 40.1917 28.796 40.5624L26.4512 45.9974Z" fill="#262626"/>
<path d="M16.7376 45.9972C16.367 45.9853 16.0544 45.8836 15.7996 45.6923C15.5449 45.501 15.4001 45.2797 15.3654 45.0286C15.157 45.3395 14.8791 45.5787 14.5317 45.7461C14.1959 45.9135 13.8601 45.9972 13.5243 45.9972C12.9916 45.9972 12.5458 45.8418 12.1869 45.5309C11.8279 45.208 11.6484 44.7895 11.6484 44.2753C11.6484 42.9479 12.8527 42.2842 15.2612 42.2842V42.0869C15.2612 41.4292 15.1686 40.9449 14.9833 40.634C14.7285 40.1916 14.3117 39.9704 13.7327 39.9704C13.2811 39.9704 12.9048 40.1079 12.6037 40.3829C12.3143 40.6579 12.1695 41.0167 12.1695 41.4591C12.1 41.3396 12.0421 41.2319 11.9958 41.1363C11.9611 41.0406 11.9437 40.9091 11.9437 40.7417C11.9437 40.3112 12.1406 39.9345 12.5343 39.6116C12.928 39.2768 13.4432 39.1094 14.0801 39.1094C14.9833 39.1094 15.6259 39.4203 16.0081 40.0421C16.1354 40.2334 16.2281 40.4726 16.286 40.7596C16.3439 41.0466 16.3728 41.4233 16.3728 41.8896V44.0241C16.3728 44.3948 16.4712 44.6818 16.6681 44.8851C16.8765 45.0884 17.166 45.1901 17.5365 45.1901H17.7623L16.7376 45.9972ZM15.2612 42.8224C14.3348 42.8224 13.7096 42.9419 13.3853 43.1811C13.0611 43.4203 12.899 43.7431 12.899 44.1497C12.899 44.4845 12.9859 44.7476 13.1595 44.9389C13.3332 45.1303 13.5648 45.2259 13.8543 45.2259C14.0743 45.2259 14.2827 45.1721 14.4796 45.0645C14.6764 44.9569 14.8443 44.8074 14.9833 44.6161C15.1686 44.365 15.2612 44.0241 15.2612 43.5937V42.8224Z" fill="#262626"/>
<path d="M2.60291 45.9972C2.25553 45.9972 1.89657 45.9374 1.52603 45.8179C1.15549 45.6983 0.848635 45.5428 0.605469 45.3515V43.773C0.825476 44.3351 1.12075 44.7416 1.49129 44.9928C1.87341 45.2319 2.28447 45.3515 2.72449 45.3515C3.08345 45.3515 3.37293 45.2499 3.59294 45.0466C3.82453 44.8433 3.94032 44.6221 3.94032 44.3829C3.94032 44.1198 3.82453 43.8986 3.59294 43.7192C3.36135 43.5398 3.00818 43.3366 2.53343 43.1094C1.91973 42.8104 1.44497 42.5174 1.10917 42.2304C0.773369 41.9434 0.605469 41.5548 0.605469 41.0645C0.605469 40.5264 0.802318 40.066 1.19602 39.6834C1.58971 39.3007 2.10499 39.1094 2.74186 39.1094C3.18187 39.1094 3.56399 39.1632 3.88822 39.2708C4.21244 39.3784 4.4556 39.498 4.61771 39.6296L4.33981 40.9748C4.20086 40.5683 3.96927 40.2633 3.64505 40.06C3.32083 39.8568 2.97924 39.7551 2.62028 39.7551C2.30763 39.7551 2.0471 39.8508 1.83867 40.0421C1.64182 40.2334 1.5434 40.4487 1.5434 40.6878C1.5434 41.0107 1.66498 41.2678 1.90815 41.4591C2.16289 41.6505 2.54501 41.8597 3.0545 42.0869C3.65663 42.35 4.11401 42.6191 4.42666 42.8941C4.75088 43.1572 4.91299 43.5339 4.91299 44.0241C4.91299 44.3709 4.82035 44.6938 4.63508 44.9928C4.44981 45.2917 4.1777 45.5368 3.81874 45.7282C3.47136 45.9075 3.06608 45.9972 2.60291 45.9972Z" fill="#262626"/>
<path fill-rule="evenodd" clip-rule="evenodd" d="M198.993 0.0309695C198.952 -0.0103226 198.885 -0.0103233 198.844 0.0309681C198.805 0.0699151 198.802 0.131687 198.837 0.173227L198.839 0.177612C198.842 0.187278 198.847 0.202741 198.851 0.225321C198.86 0.270298 198.869 0.333629 198.876 0.414612C198.887 0.542438 198.895 0.707644 198.9 0.901027C198.817 0.860138 198.728 0.80147 198.653 0.724638C198.537 0.604385 198.459 0.442988 198.495 0.228851C198.504 0.17125 198.465 0.116773 198.408 0.107173C198.35 0.0975728 198.296 0.136485 198.286 0.194086C198.238 0.487473 198.348 0.713768 198.502 0.871948C198.543 0.91507 198.589 0.953363 198.635 0.987022C198.553 0.985301 198.467 0.976974 198.383 0.959164C198.159 0.912045 197.959 0.802184 197.852 0.58712C197.826 0.534889 197.762 0.513718 197.71 0.539834C197.658 0.565949 197.637 0.62946 197.663 0.681691C197.809 0.974151 198.078 1.111 198.339 1.16609C198.541 1.20856 198.745 1.2046 198.905 1.18309C198.915 2.2561 198.858 3.88081 198.813 4.85886C198.81 4.91719 198.855 4.96668 198.913 4.96939C198.972 4.97211 199.021 4.92702 199.024 4.86869C199.07 3.87223 199.128 2.20007 199.115 1.12153C199.259 1.04477 199.445 0.926162 199.596 0.78597C199.683 0.705724 199.762 0.614485 199.814 0.515916C199.866 0.416674 199.894 0.303208 199.865 0.185824C199.851 0.129173 199.793 0.0947283 199.737 0.108891C199.68 0.123054 199.646 0.18046 199.66 0.237112C199.673 0.288903 199.664 0.348136 199.627 0.417189C199.591 0.486913 199.53 0.559562 199.453 0.630868C199.349 0.727501 199.223 0.814467 199.111 0.881489C199.106 0.691612 199.098 0.5265 199.086 0.395934C199.079 0.311689 199.07 0.23917 199.058 0.182644C199.052 0.154472 199.045 0.12777 199.037 0.10448C199.029 0.0837342 199.016 0.0543853 198.993 0.0309695ZM206.375 1.82124C206.955 1.46084 207.675 1.17412 208.476 1.16339L208.477 1.1646C208.506 1.35321 208.567 1.61999 208.662 1.8472C208.712 1.96731 208.774 2.08269 208.851 2.16974C208.928 2.25678 209.029 2.32615 209.156 2.32615C209.214 2.32615 209.261 2.27881 209.261 2.22042C209.261 2.16202 209.214 2.11468 209.156 2.11468C209.113 2.11468 209.064 2.09206 209.009 2.02959C208.954 1.96714 208.902 1.87552 208.856 1.76562C208.811 1.65692 208.774 1.53654 208.745 1.42102C208.867 1.52521 209.006 1.62777 209.15 1.70737C209.398 1.84405 209.698 1.9329 209.949 1.78241C209.999 1.75237 210.015 1.68742 209.985 1.63735C209.955 1.58727 209.89 1.57104 209.84 1.60108C209.693 1.68927 209.488 1.65201 209.252 1.52213C209.063 1.41751 208.878 1.2654 208.736 1.12704C208.889 1.10308 209.073 1.08128 209.25 1.07309C209.381 1.06707 209.505 1.06855 209.61 1.08106C209.718 1.09391 209.794 1.11708 209.836 1.14532C209.884 1.17771 209.95 1.16458 209.982 1.11599C210.015 1.06741 210.001 1.00176 209.953 0.969366C209.869 0.913018 209.753 0.88508 209.635 0.871062C209.514 0.856694 209.377 0.85553 209.241 0.861846C209.074 0.86953 208.903 0.8885 208.755 0.910289C208.832 0.810379 208.926 0.702496 209.03 0.606088C209.215 0.433291 209.409 0.317203 209.578 0.317203C209.636 0.317203 209.683 0.269864 209.683 0.211468C209.683 0.153073 209.636 0.105734 209.578 0.105734C209.324 0.105734 209.079 0.271603 208.886 0.451254C208.71 0.615477 208.56 0.80794 208.465 0.952062C207.619 0.965349 206.864 1.26845 206.264 1.64155C205.65 2.02284 205.192 2.48093 204.956 2.7906C204.92 2.83698 204.929 2.90334 204.975 2.93881C205.022 2.97429 205.088 2.96544 205.123 2.91905C205.344 2.62956 205.783 2.1889 206.375 1.82124ZM189.389 2.40092C189.43 2.35963 189.43 2.29268 189.389 2.25139C189.347 2.2101 189.281 2.2101 189.239 2.25139C188.995 2.49586 188.953 2.84373 188.985 3.15642C189.012 3.42139 189.094 3.678 189.175 3.86292C187.431 4.74735 186.922 6.50468 186.887 7.29086C186.884 7.34919 186.929 7.39863 186.987 7.40129C187.046 7.40394 187.095 7.3588 187.098 7.30046C187.131 6.55449 187.626 4.85274 189.327 4.02314C189.491 4.05708 189.728 4.09004 189.951 4.08661C190.071 4.08477 190.192 4.07239 190.297 4.0413C190.4 4.01062 190.501 3.95775 190.563 3.86508C190.595 3.81649 190.582 3.75085 190.533 3.71846C190.485 3.68606 190.419 3.69919 190.387 3.74778C190.364 3.782 190.318 3.81459 190.237 3.83854C190.158 3.86208 190.058 3.87349 189.948 3.87517C189.841 3.87681 189.73 3.86919 189.626 3.857C189.779 3.76725 189.948 3.66324 190.099 3.56095C190.221 3.47802 190.335 3.39425 190.418 3.31877C190.46 3.28121 190.498 3.24308 190.525 3.20591C190.55 3.17254 190.58 3.12328 190.58 3.06629C190.58 3.0079 190.533 2.96056 190.475 2.96056C190.419 2.96056 190.374 3.0037 190.37 3.05842C190.368 3.06101 190.365 3.06774 190.356 3.07916C190.34 3.10064 190.314 3.12827 190.277 3.16142C190.204 3.22735 190.1 3.30483 189.98 3.38579C189.811 3.50094 189.616 3.61916 189.448 3.7155C189.473 3.57769 189.511 3.42411 189.563 3.28957C189.603 3.18497 189.65 3.0986 189.701 3.04011C189.752 2.98236 189.798 2.96056 189.842 2.96056C189.9 2.96056 189.947 2.91322 189.947 2.85482C189.947 2.79643 189.9 2.74909 189.842 2.74909C189.717 2.74909 189.617 2.8154 189.542 2.90083C189.468 2.98552 189.411 3.0974 189.366 3.21308C189.328 3.31075 189.298 3.41593 189.273 3.51857C189.238 3.39905 189.208 3.26754 189.195 3.13477C189.165 2.84829 189.21 2.57938 189.389 2.40092ZM196.033 6.84602C196.077 6.80722 196.081 6.74039 196.042 6.69674C196.003 6.6531 195.937 6.64917 195.893 6.68796L194.988 7.49353C192.938 6.83849 191.086 7.80528 190.407 8.37786C190.362 8.41547 190.357 8.48218 190.394 8.52684C190.432 8.57151 190.498 8.57723 190.543 8.53961C191.19 7.99358 192.976 7.0651 194.939 7.6997C195.031 7.87903 195.177 8.13248 195.342 8.35747C195.431 8.47847 195.527 8.59375 195.625 8.68528C195.72 8.77496 195.827 8.85084 195.937 8.87852C195.994 8.89268 196.051 8.85824 196.065 8.80158C196.08 8.74493 196.045 8.68752 195.989 8.67336C195.93 8.65875 195.856 8.61214 195.769 8.53089C195.684 8.45148 195.597 8.34737 195.512 8.23222C195.439 8.13263 195.37 8.02666 195.308 7.92453C195.401 7.97534 195.503 8.02419 195.608 8.06548C195.868 8.16795 196.174 8.23438 196.424 8.13397C196.479 8.11228 196.505 8.05075 196.483 7.99653C196.462 7.94231 196.4 7.91594 196.346 7.93763C196.174 8.0064 195.935 7.96708 195.685 7.86867C195.528 7.80681 195.377 7.72575 195.254 7.64885C195.386 7.61039 195.54 7.57023 195.691 7.53935C195.812 7.51475 195.927 7.4965 196.027 7.48935C196.13 7.48198 196.203 7.4874 196.246 7.5017C196.302 7.52017 196.361 7.49023 196.38 7.43483C196.398 7.37943 196.368 7.31955 196.313 7.30109C196.229 7.2731 196.121 7.27059 196.012 7.27842C195.9 7.28647 195.774 7.30655 195.649 7.33216C195.576 7.34706 195.503 7.36398 195.432 7.38181L196.033 6.84602ZM201.526 8.5335C201.567 8.49221 201.567 8.42526 201.526 8.38397C201.485 8.34268 201.418 8.34268 201.377 8.38397C201.176 8.58479 201.124 8.90465 201.127 9.19457C201.129 9.46832 201.181 9.74192 201.232 9.92674C201.152 10.0648 200.993 10.2217 200.773 10.388C200.538 10.5662 200.243 10.7472 199.928 10.9194C199.298 11.2638 198.596 11.5685 198.142 11.7435C198.087 11.7645 198.06 11.8257 198.081 11.8802C198.102 11.9347 198.163 11.9619 198.217 11.9409C198.678 11.7635 199.389 11.455 200.029 11.105C200.349 10.9301 200.654 10.7436 200.901 10.5567C201.11 10.3981 201.287 10.233 201.393 10.068C201.587 10.135 201.849 10.2145 202.092 10.2646C202.232 10.2934 202.369 10.3134 202.486 10.3144C202.544 10.3148 202.6 10.3106 202.651 10.2986C202.7 10.2868 202.752 10.2654 202.792 10.2252C202.834 10.184 202.834 10.117 202.792 10.0757C202.751 10.0344 202.684 10.0344 202.643 10.0757C202.641 10.0778 202.631 10.086 202.602 10.0929C202.574 10.0996 202.536 10.1033 202.487 10.1029C202.391 10.1021 202.269 10.0851 202.135 10.0575C202.012 10.0323 201.884 9.99904 201.763 9.96374C201.859 9.9377 201.96 9.90529 202.062 9.8658C202.331 9.76155 202.614 9.6032 202.8 9.37066C202.836 9.32506 202.829 9.25853 202.784 9.22205C202.738 9.18557 202.672 9.19296 202.635 9.23856C202.483 9.42896 202.239 9.57019 201.986 9.6686C201.833 9.72786 201.681 9.76989 201.552 9.79752C201.629 9.67241 201.724 9.53303 201.821 9.41009C201.898 9.31364 201.974 9.23066 202.043 9.17276C202.117 9.11127 202.166 9.09314 202.19 9.09314C202.248 9.09314 202.296 9.0458 202.296 8.98741C202.296 8.92901 202.248 8.88167 202.19 8.88167C202.087 8.88167 201.989 8.94284 201.908 9.01021C201.823 9.08119 201.737 9.17663 201.656 9.27843C201.559 9.40091 201.466 9.53743 201.387 9.66206C201.36 9.52015 201.339 9.35571 201.338 9.1926C201.335 8.91508 201.389 8.67103 201.526 8.5335ZM172.812 12.2897C172.767 12.2523 172.7 12.2584 172.663 12.3032C172.626 12.3481 172.632 12.4147 172.677 12.4521C172.905 12.643 173.02 12.9081 173.068 13.1698C173.087 13.2774 173.096 13.3828 173.096 13.4799C173.04 13.3792 172.974 13.2738 172.904 13.1742C172.826 13.0637 172.74 12.9577 172.648 12.8727C172.559 12.789 172.457 12.7186 172.348 12.6913C172.291 12.6771 172.234 12.7115 172.22 12.7682C172.205 12.8248 172.24 12.8823 172.296 12.8964C172.356 12.9113 172.426 12.9547 172.505 13.0275C172.582 13.0992 172.659 13.1928 172.732 13.2964C172.834 13.4406 172.925 13.5992 172.993 13.7342C172.879 13.7205 172.744 13.6932 172.61 13.6458C172.399 13.5706 172.205 13.45 172.096 13.2681C172.066 13.218 172.001 13.2018 171.951 13.2318C171.901 13.2619 171.885 13.3268 171.915 13.3769C172.059 13.6179 172.305 13.7617 172.54 13.8451C172.622 13.8743 172.705 13.8967 172.784 13.9136C172.514 14.0039 172.131 14.0645 171.714 13.9601C171.658 13.9459 171.6 13.9804 171.586 14.037C171.572 14.0937 171.607 14.1511 171.663 14.1652C172.332 14.3326 172.921 14.1209 173.18 13.9673C173.425 14.0557 173.731 14.2672 174.074 14.5675C174.436 14.8838 174.827 15.2893 175.214 15.7267C175.793 16.3805 176.426 17.3294 176.9 18.0383C177.023 18.2226 177.135 18.3907 177.233 18.5332C177.228 18.5407 177.224 18.5481 177.219 18.5556C176.767 18.1308 175.597 17.357 174.441 17.2437C174.434 17.0219 174.3 16.6688 173.867 16.3076C173.822 16.2702 173.756 16.2763 173.718 16.3211C173.681 16.366 173.687 16.4326 173.732 16.47C174.11 16.7855 174.211 17.066 174.227 17.2173C174.105 17.1937 173.956 17.1532 173.821 17.0931C173.635 17.0099 173.509 16.9045 173.48 16.7861C173.466 16.7294 173.408 16.695 173.352 16.7092C173.295 16.7233 173.261 16.7807 173.275 16.8374C173.33 17.0574 173.539 17.1987 173.735 17.2863C173.841 17.3336 173.954 17.3697 174.058 17.3961C173.867 17.4879 173.568 17.5569 173.195 17.4502C173.139 17.4342 173.081 17.4667 173.065 17.5228C173.049 17.579 173.081 17.6375 173.137 17.6535C173.557 17.7737 173.905 17.7019 174.139 17.5916C174.042 17.7986 173.857 18.0391 173.541 18.1974C173.489 18.2236 173.468 18.2871 173.494 18.3393C173.52 18.3915 173.583 18.4127 173.636 18.3866C174.118 18.1448 174.341 17.7348 174.412 17.4534C175.561 17.563 176.715 18.402 177.091 18.788C177.074 18.8204 177.059 18.8527 177.045 18.8847C176.49 18.7771 175.402 18.7408 174.424 18.8477C173.479 18.9511 172.471 19.2305 171.698 19.8403C171.421 19.5748 170.807 19.2384 170.063 19.5699C170.009 19.5937 169.985 19.6561 170.009 19.7095C170.033 19.7629 170.095 19.7869 170.148 19.7632C170.656 19.5372 171.092 19.6712 171.367 19.8479C171.19 19.8451 170.99 19.8622 170.799 19.9164C170.519 19.996 170.247 20.1599 170.114 20.4708C170.091 20.5245 170.116 20.5866 170.17 20.6096C170.223 20.6326 170.285 20.6078 170.308 20.5541C170.407 20.3222 170.613 20.1892 170.857 20.1199C171.044 20.0665 171.247 20.0535 171.422 20.0611C171.364 20.1699 171.281 20.304 171.176 20.4385C171.02 20.6364 170.821 20.829 170.586 20.9465C170.534 20.9726 170.513 21.0362 170.539 21.0884C170.565 21.1406 170.628 21.1618 170.68 21.1357C170.953 20.9994 171.175 20.7815 171.342 20.5693C171.454 20.4266 171.542 20.2837 171.606 20.1644C171.621 20.3355 171.617 20.5481 171.57 20.7503C171.507 21.0231 171.372 21.2586 171.119 21.3669C171.066 21.3899 171.041 21.452 171.064 21.5057C171.087 21.5594 171.149 21.5842 171.203 21.5612C171.541 21.4158 171.705 21.1049 171.776 20.7979C171.84 20.5204 171.832 20.2311 171.803 20.027C172.535 19.4375 173.51 19.1604 174.447 19.058C175.389 18.9549 176.4 19.0393 176.941 19.1413C176.908 19.235 176.883 19.3212 176.865 19.3944L176.864 19.3985L176.863 19.4027C176.848 19.4949 176.838 19.584 176.833 19.67C176.226 19.8135 175.272 20.1503 174.373 20.6969C173.493 21.2315 172.653 21.9744 172.25 22.9456C172 22.9538 171.519 23.0042 171.122 23.1634C171.068 23.185 171.041 23.2466 171.063 23.3008C171.085 23.355 171.146 23.3814 171.2 23.3597C171.419 23.272 171.67 23.2195 171.886 23.1898C171.838 23.224 171.791 23.26 171.747 23.2971C171.663 23.3682 171.585 23.448 171.534 23.5318C171.482 23.6148 171.448 23.7178 171.483 23.8236C171.501 23.879 171.561 23.909 171.617 23.8905C171.672 23.872 171.702 23.8122 171.683 23.7568C171.676 23.7357 171.678 23.7004 171.713 23.6429C171.748 23.5861 171.807 23.5231 171.884 23.4586C171.976 23.3805 172.085 23.3066 172.187 23.2454C172.165 23.3687 172.133 23.5067 172.092 23.6333C172.059 23.7362 172.02 23.827 171.978 23.8952C171.934 23.9659 171.895 23.9975 171.866 24.0071C171.811 24.0256 171.781 24.0854 171.8 24.1408C171.818 24.1962 171.878 24.2262 171.933 24.2077C172.031 24.175 172.104 24.093 172.157 24.007C172.212 23.9186 172.257 23.8098 172.293 23.6986C172.326 23.5956 172.354 23.4866 172.375 23.383C172.418 23.4829 172.458 23.5945 172.486 23.7096C172.546 23.9554 172.548 24.1945 172.443 24.3702C172.413 24.4203 172.429 24.4852 172.479 24.5153C172.529 24.5453 172.594 24.5291 172.624 24.479C172.772 24.2318 172.756 23.9246 172.691 23.6593C172.632 23.4172 172.527 23.1915 172.439 23.0405C172.816 22.1217 173.616 21.404 174.482 20.8777C175.335 20.3592 176.24 20.0339 176.83 19.8883C176.837 20.1081 176.874 20.3039 176.93 20.4754C176.614 20.6726 176.178 20.965 175.798 21.2617C175.59 21.4239 175.397 21.5893 175.25 21.7426C175.176 21.8192 175.112 21.8945 175.063 21.9663C175.04 22.0001 175.02 22.0345 175.003 22.0691C174.818 22.0094 174.566 21.962 174.313 21.9825C174.008 22.0072 173.688 22.1333 173.497 22.4689C173.468 22.5196 173.485 22.5842 173.536 22.6132C173.587 22.6422 173.651 22.6245 173.68 22.5738C173.826 22.3173 174.07 22.2143 174.33 22.1933C174.472 22.1818 174.615 22.1951 174.742 22.22C174.613 22.2836 174.478 22.3671 174.358 22.4705C174.14 22.6603 173.962 22.931 174.012 23.2765C174.02 23.3343 174.073 23.3745 174.131 23.3662C174.189 23.3579 174.229 23.3044 174.221 23.2466C174.185 22.9999 174.307 22.7948 174.497 22.6304C174.625 22.5189 174.778 22.4325 174.915 22.3727C174.879 22.5044 174.83 22.6573 174.773 22.8021C174.728 22.9139 174.679 23.0185 174.627 23.1039C174.575 23.1912 174.524 23.2497 174.48 23.2793C174.431 23.3117 174.418 23.3773 174.45 23.4259C174.483 23.4745 174.548 23.4876 174.597 23.4552C174.679 23.4002 174.749 23.3107 174.808 23.2136C174.868 23.1147 174.922 22.9985 174.969 22.8804C174.994 22.8173 175.017 22.753 175.039 22.6896C175.052 22.82 175.058 22.9545 175.053 23.0798C175.047 23.2251 175.024 23.3493 174.985 23.4387C174.946 23.5258 174.896 23.5685 174.834 23.5808C174.777 23.5922 174.74 23.6479 174.751 23.7052C174.763 23.7625 174.818 23.7996 174.876 23.7881C175.025 23.7582 175.12 23.6519 175.177 23.5251C175.233 23.4006 175.257 23.2459 175.264 23.089C175.277 22.785 175.227 22.44 175.175 22.2056C175.184 22.1746 175.204 22.1346 175.238 22.0856C175.278 22.0268 175.333 21.9608 175.402 21.8893C175.539 21.7463 175.724 21.5878 175.928 21.4285C176.287 21.1477 176.7 20.8697 177.008 20.676C177.14 20.9644 177.32 21.1642 177.462 21.2733C176.606 22.2466 175.501 23.6613 175.386 26.0408C175.223 26.1031 175.011 26.2106 174.828 26.3595C174.62 26.529 174.433 26.7675 174.433 27.068C174.433 27.1264 174.48 27.1737 174.538 27.1737C174.597 27.1737 174.644 27.1264 174.644 27.068C174.644 26.8609 174.773 26.6764 174.961 26.5235C175.039 26.4604 175.123 26.4053 175.206 26.3588C175.14 26.4806 175.083 26.6154 175.05 26.7499C175.018 26.8834 175.009 27.0252 175.05 27.156C175.092 27.2907 175.184 27.404 175.335 27.4797C175.388 27.5058 175.451 27.4847 175.477 27.4324C175.503 27.3802 175.482 27.3167 175.43 27.2906C175.328 27.2394 175.276 27.1704 175.251 27.0929C175.226 27.0116 175.229 26.9115 175.256 26.7992C175.296 26.6292 175.388 26.4511 175.481 26.3085C175.533 26.401 175.588 26.5146 175.632 26.6341C175.702 26.8248 175.737 27.0109 175.702 27.148C175.688 27.2047 175.723 27.2621 175.779 27.2763C175.836 27.2904 175.893 27.256 175.907 27.1993C175.957 26.9981 175.904 26.7613 175.83 26.5608C175.799 26.4765 175.763 26.3952 175.726 26.3209C175.806 26.362 175.891 26.4143 175.971 26.4788C176.148 26.6223 176.296 26.8205 176.334 27.0829C176.342 27.1407 176.395 27.1809 176.453 27.1726C176.511 27.1644 176.551 27.1108 176.542 27.053C176.495 26.7233 176.309 26.4809 176.103 26.3143C175.933 26.1763 175.744 26.0866 175.597 26.0381C175.714 23.7078 176.805 22.3372 177.655 21.3743C177.709 21.3957 177.77 21.4177 177.839 21.4391C177.602 21.7792 177.346 22.3298 177.381 22.9676C177.125 23.0412 176.712 23.2662 176.549 23.7568C176.531 23.8122 176.56 23.872 176.616 23.8905C176.671 23.909 176.731 23.879 176.749 23.8236C176.841 23.5479 177.03 23.3729 177.208 23.2704C177.166 23.3378 177.126 23.4103 177.09 23.4852C176.994 23.6848 176.917 23.9257 176.969 24.133C176.983 24.1897 177.04 24.2241 177.097 24.21C177.153 24.1958 177.188 24.1384 177.174 24.0818C177.141 23.9508 177.188 23.7687 177.28 23.5771C177.321 23.4907 177.37 23.4073 177.418 23.3328C177.425 23.4158 177.43 23.507 177.433 23.6002C177.439 23.8156 177.43 24.0329 177.391 24.1875C177.377 24.2441 177.411 24.3015 177.468 24.3157C177.524 24.3299 177.582 24.2954 177.596 24.2388C177.642 24.0551 177.65 23.8141 177.644 23.5942C177.641 23.5057 177.636 23.419 177.63 23.3387C177.659 23.375 177.687 23.414 177.713 23.4548C177.8 23.5964 177.845 23.7419 177.813 23.8703C177.799 23.9269 177.833 23.9843 177.89 23.9985C177.928 24.0081 177.967 23.9954 177.992 23.9686C177.832 25.0828 177.648 26.188 177.406 27.2725C176.986 29.1461 176.446 30.9812 175.905 32.815L175.718 33.4513C175.489 34.2319 175.249 35.0057 175.01 35.7794C174.368 37.8514 173.726 39.9221 173.288 42.116L173.644 42.2111C174 40.5 174.708 38.007 175.348 35.9431C175.589 35.1646 175.831 34.3821 176.065 33.5871C176.127 33.3758 176.189 33.1644 176.251 32.9527L176.252 32.9505C176.792 31.1188 177.337 29.2682 177.76 27.3782C178.161 25.5839 178.403 23.7321 178.642 21.9018L178.682 21.5924C178.758 21.5973 178.837 21.6 178.918 21.6C178.941 21.6 178.963 21.5999 178.986 21.5995C179.009 21.9045 179.063 22.2857 179.164 22.6799C179.301 23.2143 179.528 23.7824 179.889 24.2158C179.785 24.3547 179.661 24.5626 179.573 24.8093C179.469 25.1034 179.411 25.4602 179.502 25.8248C179.516 25.8814 179.573 25.9159 179.63 25.9017C179.686 25.8876 179.721 25.8302 179.707 25.7735C179.629 25.4614 179.677 25.1486 179.772 24.8805C179.796 24.8128 179.823 24.7484 179.852 24.6882C179.853 24.7665 179.859 24.8479 179.872 24.9305C179.92 25.2295 180.064 25.5481 180.387 25.7795C180.435 25.8134 180.501 25.8024 180.534 25.7549C180.568 25.7073 180.557 25.6413 180.51 25.6074C180.242 25.4158 180.122 25.1529 180.08 24.8967C180.05 24.7079 180.063 24.5252 180.091 24.3841C180.211 24.4706 180.353 24.5883 180.477 24.7213C180.649 24.9071 180.765 25.1015 180.765 25.2705C180.765 25.3289 180.812 25.3762 180.871 25.3762C180.929 25.3762 180.976 25.3289 180.976 25.2705C180.976 25.0165 180.811 24.7704 180.631 24.5773C180.531 24.4696 180.421 24.3717 180.317 24.2901C180.473 24.2841 180.643 24.2937 180.792 24.3315C180.914 24.3624 181.013 24.4101 181.081 24.4756C181.146 24.5383 181.187 24.6221 181.187 24.7418C181.187 24.8002 181.235 24.8475 181.293 24.8475C181.351 24.8475 181.398 24.8002 181.398 24.7418C181.398 24.5654 181.334 24.4264 181.228 24.3234C181.124 24.2232 180.986 24.1625 180.844 24.1265C180.585 24.0608 180.285 24.0699 180.068 24.0999C179.725 23.6986 179.504 23.1556 179.369 22.6272C179.271 22.2483 179.219 21.8821 179.197 21.5902C179.327 21.5807 179.462 21.564 179.6 21.5383C179.825 21.4965 180.006 21.4133 180.151 21.3045C180.557 21.6043 181.058 22.0065 181.54 22.4536C182.181 23.0478 182.778 23.712 183.073 24.3138C182.888 24.6462 182.653 25.3976 182.991 26.1593C183.014 26.2127 183.077 26.2367 183.13 26.213C183.183 26.1893 183.207 26.1268 183.184 26.0734C182.967 25.5857 183.014 25.0992 183.118 24.7545C183.127 24.8246 183.138 24.8979 183.152 24.9726C183.201 25.2335 183.283 25.5207 183.419 25.7478C183.449 25.7979 183.514 25.8141 183.564 25.7841C183.614 25.754 183.63 25.6891 183.6 25.639C183.482 25.4431 183.406 25.1841 183.36 24.9339C183.334 24.7933 183.317 24.6584 183.308 24.5432C183.422 24.6351 183.551 24.7446 183.669 24.856C183.764 24.9443 183.85 25.0324 183.917 25.1125C183.987 25.1952 184.028 25.2605 184.042 25.3039C184.061 25.3593 184.121 25.3892 184.176 25.3708C184.231 25.3523 184.261 25.2924 184.243 25.237C184.215 25.1536 184.151 25.0629 184.079 24.9764C184.004 24.8874 183.911 24.793 183.814 24.7016C183.72 24.6136 183.62 24.527 183.526 24.4489C183.646 24.4649 183.777 24.4898 183.908 24.5264C184.184 24.6036 184.44 24.7279 184.588 24.9136C184.624 24.9592 184.691 24.9666 184.736 24.9301C184.782 24.8936 184.789 24.8271 184.753 24.7815C184.563 24.5442 184.256 24.4042 183.965 24.3228C183.705 24.2499 183.444 24.2201 183.26 24.2142C182.945 23.5771 182.326 22.8938 181.684 22.2984C181.209 21.8584 180.716 21.4614 180.312 21.1604C180.444 21.0176 180.535 20.8508 180.596 20.6825C180.929 20.7501 181.336 20.8552 181.734 21.0004C182.284 21.201 182.798 21.4715 183.081 21.8106C183.049 22.0138 183.034 22.3081 183.083 22.59C183.137 22.8919 183.269 23.2068 183.568 23.3561C183.62 23.3822 183.683 23.361 183.709 23.3088C183.735 23.2566 183.714 23.1931 183.662 23.167C183.454 23.0625 183.34 22.8311 183.291 22.5533C183.269 22.4259 183.261 22.2945 183.263 22.1718C183.325 22.2837 183.397 22.3995 183.478 22.5061C183.565 22.621 183.665 22.7286 183.774 22.8083C183.882 22.8879 184.007 22.9443 184.142 22.9443C184.201 22.9443 184.248 22.897 184.248 22.8386C184.248 22.7802 184.201 22.7329 184.142 22.7329C184.067 22.7329 183.985 22.7012 183.898 22.6376C183.811 22.5741 183.726 22.4835 183.646 22.3781C183.528 22.2229 183.428 22.0434 183.356 21.8918C183.544 21.9023 183.773 21.931 183.977 21.9887C184.11 22.0267 184.227 22.0756 184.314 22.1357C184.4 22.1955 184.447 22.2606 184.461 22.3307C184.473 22.3879 184.528 22.4251 184.585 22.4136C184.643 22.4021 184.68 22.3464 184.668 22.2892C184.64 22.1478 184.548 22.041 184.434 21.9621C184.321 21.8834 184.18 21.8266 184.034 21.7852C183.897 21.7465 183.752 21.72 183.614 21.7028C183.715 21.6634 183.826 21.6259 183.94 21.5953C184.227 21.5185 184.519 21.4897 184.742 21.5644C184.798 21.5828 184.857 21.5529 184.876 21.4975C184.894 21.4421 184.864 21.3822 184.809 21.3637C184.526 21.2692 184.185 21.3109 183.886 21.391C183.627 21.4603 183.386 21.562 183.219 21.6475C182.895 21.2767 182.349 20.9996 181.807 20.8017C181.405 20.655 180.994 20.5483 180.655 20.4787C180.676 20.3831 180.689 20.2901 180.695 20.2039C180.702 20.1141 180.703 20.031 180.698 19.959C180.703 19.9336 180.709 19.9054 180.713 19.8749C181.379 19.8759 182.332 19.9393 183.294 20.1272C184.372 20.338 185.445 20.7023 186.143 21.2968C186.129 21.4641 186.129 21.7048 186.168 21.9484C186.21 22.2176 186.303 22.509 186.495 22.7019C186.537 22.7432 186.603 22.7432 186.645 22.7019C186.686 22.6606 186.686 22.5936 186.645 22.5524C186.499 22.4069 186.416 22.1696 186.376 21.9154C186.359 21.8088 186.35 21.7025 186.347 21.604C186.406 21.684 186.475 21.7643 186.55 21.8365C186.724 22.0042 186.961 22.1491 187.224 22.0964C187.281 22.0849 187.318 22.0292 187.307 21.972C187.295 21.9147 187.24 21.8776 187.182 21.889C187.023 21.9209 186.855 21.8367 186.696 21.6837C186.618 21.6095 186.549 21.5242 186.49 21.4407C186.591 21.4692 186.7 21.4953 186.806 21.5129C186.914 21.5307 187.023 21.5406 187.12 21.5335C187.213 21.5266 187.314 21.5026 187.383 21.4331C187.425 21.3918 187.425 21.3248 187.383 21.2835C187.342 21.2423 187.275 21.2423 187.234 21.2835C187.219 21.2986 187.181 21.3169 187.104 21.3226C187.031 21.328 186.94 21.3207 186.84 21.3042C186.704 21.2817 186.561 21.2435 186.44 21.2052C186.556 21.0848 186.707 20.9449 186.862 20.8302C186.967 20.7528 187.071 20.6894 187.165 20.6505C187.261 20.6109 187.336 20.6018 187.389 20.615C187.445 20.6292 187.503 20.5947 187.517 20.5381C187.531 20.4814 187.496 20.424 187.44 20.4099C187.324 20.3808 187.199 20.4078 187.085 20.4549C186.969 20.5029 186.849 20.577 186.737 20.6599C186.549 20.7984 186.371 20.9686 186.244 21.1055C185.504 20.4931 184.405 20.1289 183.334 19.9196C182.366 19.7305 181.409 19.6655 180.731 19.6635C180.732 19.6468 180.732 19.6297 180.732 19.6124C180.732 19.4794 180.718 19.3271 180.684 19.1655C181.516 18.8799 183.271 18.438 185.018 18.5006C185.095 18.6972 185.219 18.9652 185.373 19.2033C185.459 19.3366 185.557 19.4636 185.663 19.564C185.768 19.6635 185.889 19.7436 186.022 19.7702C186.079 19.7817 186.134 19.7446 186.146 19.6873C186.157 19.63 186.12 19.5743 186.063 19.5629C185.985 19.5472 185.899 19.496 185.808 19.4103C185.718 19.3254 185.631 19.2132 185.55 19.0883C185.46 18.9482 185.379 18.7961 185.314 18.6563C185.446 18.7296 185.596 18.8057 185.751 18.8706C185.893 18.9304 186.041 18.9817 186.183 19.0126C186.324 19.0432 186.465 19.0553 186.591 19.0301C186.648 19.0187 186.685 18.9629 186.673 18.9057C186.662 18.8484 186.606 18.8113 186.549 18.8227C186.464 18.8399 186.354 18.8334 186.228 18.8059C186.103 18.7786 185.967 18.7322 185.832 18.6756C185.642 18.5959 185.458 18.498 185.312 18.4112C185.433 18.3578 185.575 18.3007 185.716 18.2552C185.824 18.22 185.929 18.1928 186.02 18.1792C186.114 18.1651 186.181 18.1677 186.22 18.1809C186.275 18.1993 186.335 18.1694 186.353 18.114C186.372 18.0586 186.342 17.9987 186.287 17.9802C186.199 17.9511 186.093 17.9545 185.989 17.97C185.883 17.9859 185.766 18.0168 185.651 18.0539C185.523 18.0952 185.395 18.1452 185.282 18.1939C185.328 18.0822 185.384 17.9625 185.445 17.8556C185.5 17.7601 185.556 17.6795 185.61 17.6242C185.667 17.566 185.706 17.5519 185.726 17.5519C185.784 17.5519 185.831 17.5045 185.831 17.4461C185.831 17.3877 185.784 17.3404 185.726 17.3404C185.619 17.3404 185.528 17.4056 185.459 17.4762C185.387 17.5498 185.321 17.6477 185.262 17.7504C185.161 17.9268 185.075 18.1316 185.018 18.289C183.251 18.2272 181.484 18.6693 180.629 18.9608C180.58 18.8094 180.51 18.6539 180.414 18.5018C180.897 18.1404 181.682 17.6431 182.59 17.2333C183.557 16.7967 184.654 16.4639 185.672 16.4928C185.775 16.6218 185.945 16.775 186.163 16.8646C186.41 16.9663 186.717 16.985 187.044 16.7978C187.095 16.7688 187.113 16.7042 187.084 16.6535C187.055 16.6028 186.99 16.5852 186.94 16.6142C186.676 16.7654 186.438 16.7488 186.243 16.669C186.125 16.6204 186.023 16.5479 185.942 16.4739C186.129 16.4533 186.347 16.4231 186.538 16.384C186.672 16.3568 186.798 16.3242 186.893 16.2855C186.94 16.2664 186.986 16.2434 187.021 16.2146C187.055 16.1873 187.098 16.1399 187.098 16.0716C187.098 16.0132 187.05 15.9659 186.992 15.9659C186.941 15.9659 186.899 16.002 186.889 16.05C186.876 16.06 186.853 16.0738 186.814 16.0896C186.737 16.1208 186.626 16.1503 186.496 16.1768C186.366 16.2032 186.223 16.2256 186.086 16.2435C186.166 16.1807 186.246 16.115 186.321 16.0521C186.41 15.9775 186.492 15.9052 186.552 15.8453C186.582 15.8156 186.609 15.7867 186.629 15.7608C186.639 15.7479 186.649 15.7333 186.657 15.718C186.664 15.705 186.675 15.6799 186.675 15.6487C186.675 15.5903 186.628 15.5429 186.57 15.5429C186.52 15.5429 186.479 15.5774 186.467 15.6237L186.462 15.6314C186.45 15.6467 186.431 15.6681 186.403 15.6952C186.349 15.749 186.273 15.8168 186.185 15.8902C186.075 15.9831 185.95 16.0825 185.838 16.1696C185.847 16.0333 185.864 15.8827 185.892 15.7503C185.915 15.6442 185.944 15.5577 185.977 15.5003C186.012 15.4405 186.035 15.4372 186.042 15.4372C186.101 15.4372 186.148 15.3899 186.148 15.3315C186.148 15.2731 186.101 15.2257 186.042 15.2257C185.922 15.2257 185.843 15.3105 185.795 15.394C185.745 15.4797 185.71 15.5914 185.686 15.7056C185.645 15.8933 185.627 16.109 185.622 16.2801C184.574 16.2634 183.466 16.6057 182.503 17.0405C181.583 17.4558 180.787 17.9594 180.292 18.3293C180.28 18.315 180.269 18.3007 180.257 18.2865C179.914 17.8773 179.572 17.7119 179.199 17.6791C179.126 17.2635 179.031 16.7114 179.094 16.4046C179.184 15.9664 179.329 15.511 179.551 15.1551C179.696 15.2368 179.894 15.3218 180.091 15.35C180.319 15.3827 180.578 15.3408 180.718 15.0737C180.745 15.0234 180.731 14.9582 180.687 14.9281C180.643 14.8979 180.585 14.9142 180.559 14.9645C180.476 15.122 180.317 15.1684 180.114 15.1393C180.02 15.1258 179.923 15.0967 179.834 15.0609C179.917 15.0362 180.003 15.0046 180.083 14.9653C180.176 14.9197 180.265 14.8611 180.333 14.7857C180.402 14.7092 180.453 14.6099 180.453 14.4884C180.453 14.4298 180.411 14.3822 180.36 14.3822C180.309 14.3822 180.267 14.4298 180.267 14.4884C180.267 14.5366 180.248 14.5842 180.204 14.6335C180.158 14.6839 180.091 14.7301 180.01 14.7704C179.889 14.8299 179.748 14.8706 179.629 14.8945C179.662 14.7164 179.761 14.5499 179.871 14.4144C179.937 14.333 180.003 14.2669 180.052 14.2211C180.077 14.1983 180.098 14.1807 180.112 14.169L180.128 14.1559L180.132 14.1528L180.133 14.1521C180.176 14.1195 180.187 14.0537 180.159 14.0049C180.13 13.9562 180.072 13.9436 180.029 13.9761L180.027 13.9773L180.022 13.9815L180.003 13.9972C179.986 14.0108 179.963 14.0305 179.936 14.0558C179.881 14.1062 179.808 14.1794 179.734 14.2704C179.666 14.3555 179.593 14.4601 179.537 14.5795C179.531 14.4631 179.536 14.35 179.546 14.2487C179.557 14.1411 179.574 14.0492 179.588 13.9845C179.595 13.9522 179.601 13.9268 179.605 13.9097L179.61 13.8906L179.612 13.886C179.628 13.8305 179.602 13.7694 179.553 13.7508C179.504 13.7323 179.452 13.7632 179.435 13.8189L179.435 13.8207L179.433 13.8271L179.427 13.8502C179.422 13.87 179.415 13.8985 179.407 13.9342C179.392 14.0054 179.374 14.106 179.362 14.2239C179.339 14.4424 179.337 14.7292 179.419 15.0015C179.166 15.3939 179.008 15.8929 178.913 16.3561C178.814 16.8393 178.78 17.3994 178.78 17.6726C178.78 17.6793 178.781 17.6844 178.782 17.6883C178.558 17.7142 178.325 17.7696 178.08 17.8321C178.06 17.8373 178.04 17.8431 178.02 17.8495C178.04 16.5641 178.474 14.4791 180.145 12.617C180.367 12.5943 180.687 12.5364 180.979 12.4302C181.135 12.3738 181.287 12.3023 181.413 12.2124C181.538 12.123 181.646 12.0097 181.7 11.8668C181.722 11.8084 181.695 11.7422 181.64 11.7188C181.585 11.6955 181.522 11.7239 181.5 11.7822C181.468 11.867 181.398 11.9482 181.293 12.0236C181.188 12.0985 181.055 12.1622 180.91 12.2148C180.745 12.2745 180.57 12.3182 180.411 12.3482C180.5 12.2512 180.597 12.1385 180.692 12.0161C180.884 11.7673 181.073 11.4701 181.165 11.1775C181.183 11.1179 181.153 11.0534 181.097 11.0335C181.04 11.0136 180.979 11.0459 180.961 11.1055C180.881 11.3594 180.711 11.6313 180.525 11.872C180.396 12.0398 180.262 12.1884 180.151 12.3C180.117 12.1519 180.089 11.9721 180.088 11.7977C180.085 11.5406 180.139 11.3346 180.268 11.2326C180.315 11.1949 180.325 11.1235 180.289 11.0732C180.253 11.0229 180.186 11.0127 180.139 11.0505C179.923 11.2216 179.87 11.5279 179.873 11.8001C179.873 11.8726 179.878 11.9455 179.886 12.0168C179.807 11.892 179.73 11.7598 179.667 11.6301C179.596 11.4828 179.543 11.344 179.521 11.2258C179.498 11.1053 179.51 11.0256 179.54 10.977C179.573 10.9247 179.56 10.854 179.511 10.8191C179.461 10.7843 179.394 10.7984 179.362 10.8507C179.285 10.9729 179.283 11.1256 179.31 11.2707C179.338 11.4181 179.4 11.5781 179.476 11.7344C179.611 12.0111 179.798 12.293 179.953 12.5012C178.227 14.4475 177.804 16.6273 177.805 17.946C177.797 17.9507 177.789 17.9554 177.781 17.9602C177.687 17.2975 177.417 16.4571 177.165 15.6751C177.049 15.3144 176.937 14.9661 176.849 14.6534C176.783 14.4229 176.72 14.2018 176.664 13.9965C176.807 13.8784 176.986 13.6923 177.12 13.4664C177.272 13.2095 177.374 12.8879 177.278 12.5533C177.262 12.4972 177.204 12.4647 177.148 12.4807C177.092 12.4967 177.059 12.5553 177.075 12.6114C177.149 12.8689 177.074 13.1289 176.938 13.3584C176.876 13.4641 176.801 13.5605 176.727 13.6434C176.757 13.4971 176.785 13.3359 176.804 13.179C176.822 13.031 176.831 12.8836 176.824 12.755C176.818 12.6304 176.796 12.5062 176.737 12.418C176.705 12.3694 176.639 12.3563 176.591 12.3887C176.542 12.4211 176.529 12.4867 176.561 12.5353C176.587 12.574 176.607 12.6498 176.613 12.766C176.619 12.878 176.611 13.0123 176.594 13.1541C176.568 13.374 176.522 13.6047 176.478 13.7859C176.384 13.7137 176.278 13.6113 176.19 13.4842C176.062 13.3007 175.977 13.0717 176.015 12.8088C176.023 12.751 175.983 12.6974 175.925 12.6892C175.868 12.6809 175.814 12.7211 175.806 12.7789C175.759 13.1081 175.867 13.3901 176.016 13.6049C176.083 13.7007 176.158 13.7843 176.233 13.8544C176.126 13.8363 176.01 13.7967 175.899 13.7253C175.677 13.5825 175.462 13.3035 175.381 12.7778C175.373 12.72 175.319 12.6805 175.261 12.6893C175.203 12.6982 175.164 12.7522 175.173 12.8099C175.261 13.3838 175.503 13.7216 175.785 13.9031C176.02 14.0548 176.273 14.0911 176.466 14.0744C176.523 14.2789 176.584 14.4965 176.649 14.7225C176.7 14.9049 176.757 15.0993 176.816 15.301C177.098 16.2663 177.429 17.3989 177.501 18.1875C177.469 18.2202 177.439 18.2541 177.41 18.289C177.396 18.2689 177.381 18.2483 177.367 18.2273C176.882 17.5338 176.081 16.3882 175.372 15.5864C174.982 15.1454 174.584 14.7328 174.213 14.4083C173.882 14.1181 173.564 13.8905 173.286 13.7815C173.312 13.611 173.32 13.3762 173.275 13.1315C173.221 12.8381 173.09 12.5217 172.812 12.2897ZM179.524 13.8515C179.436 13.818 179.435 13.8189 179.435 13.8189L179.524 13.8515ZM180.081 14.0638C180.03 13.9755 180.029 13.9761 180.029 13.9761L180.081 14.0638ZM178.03 23.7053C178.117 23.0867 178.198 22.4657 178.279 21.8442L178.317 21.551C178.224 21.5359 178.137 21.5181 178.056 21.4987C177.826 21.8061 177.545 22.3588 177.595 22.997C177.686 23.0764 177.802 23.1989 177.892 23.3431C177.957 23.4485 178.013 23.5731 178.03 23.7053ZM178.873 17.6726C178.877 17.6726 178.881 17.6747 178.886 17.6784C178.868 17.6797 178.85 17.6813 178.832 17.683C178.845 17.6775 178.859 17.6726 178.873 17.6726ZM172.528 20.2986C172.497 20.2928 172.462 20.2877 172.425 20.2833L172.528 20.2986Z" fill="#262626"/>
</svg>
