<svg width="84" height="80" viewBox="0 0 84 80" fill="none" xmlns="http://www.w3.org/2000/svg">
<path d="M8.5 44C8.34721 43.9722 8.17959 43.947 8 43.9257L8.5 44Z" fill="#262626"/>
<path d="M36 34.5C35.5 28.8333 33 21 31.5 15.5M31.5 15.5C32.8333 14.5 35.3 11.8 34.5 9M31.5 15.5C32 13.6667 32.8 9.7 32 8.5M31.5 15.5C30.3333 14.8333 28.1 12.8 28.5 10M31.5 15.5C29.8333 15.8333 26.3 15.2 25.5 10M35 35.5C30.6667 29.3333 20.7 16.6 15.5 15M15.5 15C15.8333 13.5 15.9 10 13.5 8M15.5 15C14.8333 13.5 13.1 10.4 11.5 10M15.5 15C14.1667 15 11.2 14.5 10 12.5M15.5 15C14.5 15.6667 11.7 16.8 8.5 16M33.5 37.5C31.8333 35.6667 27 31.9 21 31.5M21 31.5C21.1667 30.8333 20.9 29 18.5 27M21 31.5C19.6667 31.3333 16.9 30.6 16.5 29M21 31.5C20.3333 32.1667 18.3 33.3 15.5 32.5M21 31.5C20.8333 32.6667 19.9 34.8 17.5 36M33 39.5C27.8333 38.5 15.7 38 8.5 44M8.5 44C7.5 42.8333 4.6 40.9 1 42.5M8.5 44C8.34721 43.9722 8.17959 43.947 8 43.9257M8.5 44L8 43.9257M8.5 44C8.83333 45.8333 8.8 49.8 6 51M1.5 46.5C2.59999 43.9334 6.0247 43.6914 8 43.9257M8 43.9257C7.5 45.1171 5.9 47.8 3.5 49M33 43C27.3333 44.3333 15.1 49.3 11.5 58.5M11.5 58.5C10.5 58.5 8 58.7 6 59.5M11.5 58.5C10.1667 59.1667 7.6 60.8 8 62M11.5 58.5C11.3333 60 10.7 63.1 9.5 63.5M11.5 58.5C12.3333 59.8333 13.7 63 12.5 65M34 46.5C31 48.3333 24.9 52.5 24.5 54.5M24.5 54.5C22.8333 53.8333 19.1 53.2 17.5 56M24.5 54.5C22.8333 55 19.6 56.7 20 59.5M24.5 54.5C24.1667 56 23.2 59.2 22 60M24.5 54.5C25 56.6667 25.5 61.1 23.5 61.5M37.5 49C33.3333 53.6667 27 60.5 26.5 73M26.5 73C25 73.5 22 75.1 22 77.5M26.5 73C25.3333 74.5 23.6 77.8 26 79M26.5 73C27.1667 74 28.4 76.4 28 78M26.5 73C27.8333 73.3333 30.6 74.7 31 77.5M39 50C37.8333 51.1667 35.6 54.5 36 58.5M36 58.5C35 58.6667 32.8 59.6 32 62M36 58.5C35.1667 59.5 33.6 61.9 34 63.5M36 58.5C36.1667 59.6667 36.4 62.4 36 64M36 58.5C36.8333 59.1667 38.4 60.9 38 62.5M43.5 50C43.5 53 44.4 60 48 64M48 64C47 65.1667 45.2 68.3 46 71.5M48 64C47.5 65.5 47.2 69 50 71M48 64C49.3333 64.8333 52 67 52 69M48 64C50 63.6667 54 63.7 54 66.5M47 48.5C51.1667 51.3333 60.2 58.5 63 64.5M63 64.5C62.1667 65.8333 60.9 69.4 62.5 73M63 64.5C63 65.8333 63.3 69 64.5 71M63 64.5C64.3333 65.5 67.1 67.8 67.5 69M63 64.5C64.6667 64.5 68.4 65 70 67M49 46.5C52.5 47 60.2 48.9 63 52.5M63 52.5C62.6667 54.3333 62.6 58.3 65 59.5M63 52.5C63.6667 54.1667 65.5 57.5 67.5 57.5M63 52.5C65 52.5 69.1 53 69.5 55M63 52.5C64.5 51.6667 68.1 50.2 70.5 51M50 43C56.3333 42.8333 70.7 44 77.5 50M77.5 50C77.3333 51.5 77.4 54.9 79 56.5M77.5 50C78.1667 51.3333 80 53.9 82 53.5M77.5 50C78.8333 50.5 81.7 51.3 82.5 50.5M77.5 50C78.6667 48.6667 81.4 46.1 83 46.5M50 40C53.5 38.6667 62.8 36.1 72 36.5M72 36.5C72.5 35 73.8 32 75 32M72 36.5C73.3333 35.8333 76.3 34.6 77.5 35M72 36.5C73.5 37.5 77 39.4 79 39M72 36.5C72.6667 38.3333 74.5 42.1 76.5 42.5M49 37C53.5 33.5 65 26.6 75 27M75 27C75 25.3333 75.3 22 76.5 22M75 27C76.3333 26 79 23.9 79 23.5M75 27C77 26.8333 81 26.3 81 25.5M75 27C75.8333 28.1667 78.2 30.1 81 28.5" stroke="#262626" stroke-linecap="round"/>
<circle cx="41" cy="42" r="9" fill="#262626"/>
<path d="M44.66 34C44.66 31.5 45.36 25.6 48.16 22M48.16 22C47.16 19.5 48.16 16.5 48.16 16.5M48.16 22C48.16 19.5 51.16 17.5 51.16 17.5M48.16 22C49.66 21.8333 52.66 21.1 52.66 19.5M48.16 22C49.66 22.8333 52.96 24 54.16 22" stroke="#262626" stroke-linecap="round"/>
<path d="M41.1601 34.5C40.4934 29.5 41.56 18 51.16 8M51.16 8C50.66 6.5 50.06 3.2 51.66 2M51.16 8C52.3267 7 54.86 4.4 55.66 2M51.16 8C53.16 7.83333 57.36 7 58.16 5M51.16 8C49.66 6.16667 47.16 2.5 48.16 1" stroke="#262626" stroke-linecap="round"/>
</svg>
