<svg width="52" height="52" viewBox="0 0 52 52" fill="none" xmlns="http://www.w3.org/2000/svg">
<rect width="52" height="52" fill="white"/>
<path fill-rule="evenodd" clip-rule="evenodd" d="M5.74658 6.34295C5.77198 5.04175 6.84996 4 8.17102 4H44.5751C45.9143 4 47 5.06954 47 6.38889V39.2682C47 40.5876 45.9143 41.6571 44.5751 41.6571H6.67412L6.61675 44.5958C6.60805 45.0415 6.97241 45.4074 7.4249 45.4074H46.1917C46.6381 45.4074 47 45.7639 47 46.2037C47 46.6435 46.6381 47 46.1917 47H7.4249C6.06742 47 4.97436 45.9023 5.00046 44.5652L5.74658 6.34295ZM6.7052 40.0645H44.5751C45.0215 40.0645 45.3834 39.708 45.3834 39.2682V6.38889C45.3834 5.94911 45.0215 5.59259 44.5751 5.59259H8.17102C7.73066 5.59259 7.37134 5.93984 7.36287 6.37358L6.7052 40.0645Z" fill="#D2B589"/>
</svg>
