<svg width="42" height="54" viewBox="0 0 42 54" fill="none" xmlns="http://www.w3.org/2000/svg">
<path d="M31.6985 36.7192C31.5969 36.8438 31.5292 36.9743 31.2092 37.7189C29.64 41.3799 28.7846 45.3018 28.7015 49.2802M9.01231 35.7194C6.52328 33.925 4.50292 31.5952 3.11197 28.9155C1.72101 26.2359 0.997847 23.2802 1 20.2836C1 15.1693 3.10714 10.2644 6.85787 6.64804C10.6086 3.03166 15.6957 1 21 1C26.3043 1 31.3914 3.03166 35.1421 6.64804C38.8929 10.2644 41 15.1693 41 20.2836C41.0021 23.2802 40.279 26.2359 38.888 28.9155C37.4971 31.5952 35.4767 33.925 32.9877 35.7194C32.0061 36.4284 31.7877 36.6035 31.6954 36.7192M28.6985 49.2802C28.6894 49.7613 28.5442 50.2309 28.2785 50.6382C28.0127 51.0455 27.6366 51.3751 27.1908 51.5913C25.2685 52.5177 23.149 53 21 53C18.851 53 16.7315 52.5177 14.8092 51.5913C14.3634 51.3751 13.9873 51.0455 13.7215 50.6382C13.4558 50.2309 13.3106 49.7613 13.3015 49.2802C13.2154 45.3018 12.36 41.3769 10.7908 37.716C10.4708 36.9713 10.4031 36.8438 10.3046 36.7192C10.2123 36.6035 9.99077 36.4284 9.01231 35.7223" stroke="#D2B589" stroke-width="2"/>
<path d="M30 40C24.2225 41.3333 17.7775 41.3333 12 40" stroke="#D2B589" stroke-width="2"/>
<path d="M17.9228 32.1525V19.544C17.9228 17.497 16.1997 15.8356 14.0766 15.8356C11.9535 15.8356 10.2305 17.497 10.2305 19.544C10.2305 21.591 11.9535 23.2524 14.0766 23.2524H27.9228C30.0458 23.2524 31.7689 21.591 31.7689 19.544C31.7689 17.497 30.0458 15.8356 27.9228 15.8356C25.7997 15.8356 24.0766 17.497 24.0766 19.544V32.1525" stroke="#D2B589" stroke-width="2" stroke-linecap="round"/>
</svg>
