<svg width="28" height="28" viewBox="0 0 28 28" fill="none" xmlns="http://www.w3.org/2000/svg">
<path d="M5 26V7.33333H9.5V6.66667C9.5 5.37067 9.93757 4.26889 10.8127 3.36133C11.6879 2.45378 12.7503 2 14 2C15.2497 2 16.3121 2.45378 17.1873 3.36133C18.0624 4.26889 18.5 5.37067 18.5 6.66667V7.33333H23V26H5ZM6.28571 24.6667H21.7143V8.66667H18.5V12.6667H17.2143V8.66667H10.7857V12.6667H9.5V8.66667H6.28571V24.6667ZM10.7857 7.33333H17.2143V6.66667C17.2143 5.728 16.9049 4.93778 16.286 4.296C15.6671 3.65422 14.9051 3.33333 14 3.33333C13.0949 3.33333 12.3329 3.65422 11.714 4.296C11.0951 4.93778 10.7857 5.728 10.7857 6.66667V7.33333Z" fill="#262626"/>
</svg>
