<svg width="52" height="52" viewBox="0 0 52 52" fill="none" xmlns="http://www.w3.org/2000/svg">
<path fill-rule="evenodd" clip-rule="evenodd" d="M33.2479 8.27601L25.3997 10.1844C24.1432 10.4899 23.2893 10.6986 22.6408 10.9095C22.0087 11.1151 21.6999 11.2843 21.4963 11.4489C20.9389 11.8994 20.5556 12.5216 20.4094 13.213C20.356 13.4656 20.3478 13.8109 20.4584 14.4517C20.5719 15.1092 20.7838 15.9424 21.0971 17.1678L23.0539 24.8218C23.3671 26.0471 23.5812 26.8799 23.7975 27.5123C24.0082 28.1289 24.1818 28.43 24.3505 28.6285C24.8124 29.1721 25.4504 29.5459 26.1594 29.6885C26.4184 29.7406 26.7724 29.7486 27.4296 29.6407C28.1037 29.53 28.9581 29.3234 30.2146 29.0179L38.0628 27.1095C39.3193 26.804 40.1731 26.5952 40.8217 26.3843C41.4538 26.1788 41.7626 26.0095 41.9662 25.845C42.5235 25.3945 42.9069 24.7723 43.0531 24.0809C43.1065 23.8283 43.1147 23.483 43.0041 22.8421C42.8905 22.1847 42.6787 21.3514 42.3654 20.126L40.4086 12.4721C40.0953 11.2467 39.8813 10.414 39.665 9.78152C39.4542 9.16501 39.2807 8.86392 39.112 8.66532C38.6501 8.12178 38.0121 7.74792 37.3031 7.60537C37.0441 7.55328 36.6901 7.54523 36.0329 7.65315C35.3588 7.76386 34.5044 7.97049 33.2479 8.27601ZM18.85 12.8994C18.6304 13.9381 18.9377 15.1399 19.5522 17.5435L21.5089 25.1974C22.1234 27.601 22.4307 28.8028 23.1246 29.6194C23.8174 30.4347 24.7744 30.9955 25.8378 31.2093C26.9029 31.4235 28.1352 31.1238 30.5998 30.5245L38.448 28.6162C40.9126 28.0169 42.1449 27.7173 42.9822 27.0406C43.8182 26.3649 44.3932 25.4316 44.6125 24.3945C44.8321 23.3558 44.5248 22.154 43.9103 19.7504L41.9535 12.0965C41.339 9.69283 41.0318 8.49103 40.3379 7.67448C39.6451 6.85917 38.6881 6.29838 37.6247 6.08455C36.5596 5.8704 35.3273 6.17005 32.8627 6.76934L25.0145 8.67767C22.5499 9.27696 21.3176 9.57661 20.4803 10.2533C19.6443 10.929 19.0693 11.8623 18.85 12.8994Z" fill="#D2B589"/>
<path fill-rule="evenodd" clip-rule="evenodd" d="M17.776 45.4472C21.3145 45.4472 24.183 42.6498 24.183 39.1989C24.183 35.748 21.3145 32.9505 17.776 32.9505C14.2376 32.9505 11.3691 35.748 11.3691 39.1989C11.3691 42.6498 14.2376 45.4472 17.776 45.4472ZM17.776 47C22.1939 47 25.7752 43.5073 25.7752 39.1989C25.7752 34.8904 22.1939 31.3977 17.776 31.3977C13.3582 31.3977 9.77686 34.8904 9.77686 39.1989C9.77686 43.5073 13.3582 47 17.776 47Z" fill="#D2B589"/>
<path fill-rule="evenodd" clip-rule="evenodd" d="M5.03645 10.9796C5.1676 10.5703 5.61412 10.3422 6.03378 10.4701L10.7734 11.9146C12.0455 12.3023 13.0342 13.2851 13.4074 14.5329L18.5022 31.5684C18.6253 31.9801 18.383 32.4111 17.9609 32.5312C17.5388 32.6512 17.0968 32.4149 16.9737 32.0032L11.8789 14.9677C11.655 14.219 11.0617 13.6293 10.2985 13.3967L5.55886 11.9522C5.1392 11.8243 4.90531 11.3889 5.03645 10.9796ZM45.9787 31.9962C46.0794 32.4136 45.814 32.8316 45.3861 32.9298L25.0853 37.5882C24.6573 37.6864 24.2287 37.4277 24.128 37.0103C24.0273 36.5929 24.2926 36.1749 24.7206 36.0767L45.0214 31.4183C45.4494 31.3201 45.878 31.5788 45.9787 31.9962Z" fill="#D2B589"/>
</svg>
