<svg width="52" height="52" viewBox="0 0 52 52" fill="none" xmlns="http://www.w3.org/2000/svg">
<rect width="52" height="52" fill="white"/>
<path fill-rule="evenodd" clip-rule="evenodd" d="M49.0769 14.6923H2.92308C2.79563 14.6923 2.69231 14.7956 2.69231 14.9231V37.0769C2.69231 37.2044 2.79563 37.3077 2.92308 37.3077H49.0769C49.2044 37.3077 49.3077 37.2044 49.3077 37.0769V14.9231C49.3077 14.7956 49.2044 14.6923 49.0769 14.6923ZM2.92308 14C2.41328 14 2 14.4133 2 14.9231V37.0769C2 37.5867 2.41328 38 2.92308 38H49.0769C49.5867 38 50 37.5867 50 37.0769V14.9231C50 14.4133 49.5867 14 49.0769 14H2.92308Z" fill="#D2B589"/>
<path fill-rule="evenodd" clip-rule="evenodd" d="M26.9843 16.4077C26.9843 15.9616 27.3459 15.6 27.7919 15.6H47.5307C47.9768 15.6 48.3384 15.9616 48.3384 16.4077V35.5927C48.3384 36.0388 47.9768 36.4004 47.5307 36.4004H27.7919C27.3459 36.4004 26.9843 36.0388 26.9843 35.5927V16.4077ZM27.7919 16.2923C27.7282 16.2923 27.6766 16.3439 27.6766 16.4077V35.5927C27.6766 35.6564 27.7282 35.7081 27.7919 35.7081H47.5307C47.5945 35.7081 47.6461 35.6564 47.6461 35.5927V16.4077C47.6461 16.3439 47.5945 16.2923 47.5307 16.2923H27.7919ZM40.7588 21.5317C40.7588 21.3405 40.9138 21.1856 41.105 21.1856H41.1165C41.3076 21.1856 41.4626 21.3405 41.4626 21.5317C41.4626 21.7229 41.3076 21.8779 41.1165 21.8779H41.105C40.9138 21.8779 40.7588 21.7229 40.7588 21.5317Z" fill="#D2B589"/>
<path d="M42.2385 21.379C42.2385 22.0162 41.7076 22.5327 41.0527 22.5327C40.3978 22.5327 39.8669 22.0162 39.8669 21.379C39.8669 20.7418 40.3978 20.2252 41.0527 20.2252C41.7076 20.2252 42.2385 20.7418 42.2385 21.379Z" fill="#D2B589"/>
<path fill-rule="evenodd" clip-rule="evenodd" d="M33.3088 25.1411L27.5718 30.7243C27.4348 30.8576 27.2157 30.8546 27.0823 30.7176C26.949 30.5806 26.952 30.3615 27.089 30.2281L32.8284 24.6425L32.8332 24.6379C33.4185 24.0898 34.0947 23.7963 34.7916 23.7963C35.4886 23.7963 36.1647 24.0898 36.7501 24.6379L36.7549 24.6425L42.4943 30.2281C42.6313 30.3615 42.6343 30.5806 42.5009 30.7176C42.3676 30.8546 42.1485 30.8576 42.0114 30.7243L36.2745 25.1411C35.7953 24.6932 35.2831 24.4886 34.7916 24.4886C34.3002 24.4886 33.788 24.6932 33.3088 25.1411Z" fill="#D2B589"/>
<path fill-rule="evenodd" clip-rule="evenodd" d="M41.3506 27.3698L40.2051 28.4846C40.0681 28.6179 39.849 28.6149 39.7156 28.4779C39.5823 28.3409 39.5853 28.1217 39.7223 27.9884L40.8702 26.8713L40.875 26.8667C41.4603 26.3185 42.1365 26.025 42.8334 26.025C43.5304 26.025 44.2065 26.3185 44.7918 26.8667L44.7967 26.8713L48.2403 30.2226C48.3773 30.356 48.3803 30.5751 48.247 30.7121C48.1136 30.8491 47.8945 30.8521 47.7575 30.7188L44.3163 27.3698C43.8371 26.9219 43.3249 26.7173 42.8334 26.7173C42.342 26.7173 41.8298 26.9219 41.3506 27.3698Z" fill="#D2B589"/>
<path fill-rule="evenodd" clip-rule="evenodd" d="M3.65424 16.4077C3.65424 15.9616 4.01585 15.6 4.46193 15.6H9.53715C9.98323 15.6 10.3448 15.9616 10.3448 16.4077V21.3208C10.3448 21.7669 9.98323 22.1285 9.53715 22.1285H4.46193C4.01585 22.1285 3.65424 21.7669 3.65424 21.3208V16.4077ZM4.46193 16.2923C4.3982 16.2923 4.34654 16.3439 4.34654 16.4077V21.3208C4.34654 21.3845 4.3982 21.4362 4.46193 21.4362H9.53715C9.60088 21.4362 9.65254 21.3845 9.65254 21.3208V16.4077C9.65254 16.3439 9.60088 16.2923 9.53715 16.2923H4.46193ZM7.6531 17.5673C7.6531 17.3761 7.80808 17.2211 7.99926 17.2211H8.00259C8.19376 17.2211 8.34874 17.3761 8.34874 17.5673C8.34874 17.7585 8.19376 17.9134 8.00259 17.9134H7.99926C7.80808 17.9134 7.6531 17.7585 7.6531 17.5673Z" fill="#D2B589"/>
<path d="M8.32731 17.523C8.32731 17.7079 8.17322 17.8578 7.98314 17.8578C7.79306 17.8578 7.63898 17.7079 7.63898 17.523C7.63898 17.338 7.79306 17.1881 7.98314 17.1881C8.17322 17.1881 8.32731 17.338 8.32731 17.523Z" fill="#D2B589"/>
<path fill-rule="evenodd" clip-rule="evenodd" d="M5.90536 18.7915L4.24178 20.4101C4.10476 20.5434 3.88561 20.5404 3.75229 20.4034C3.61898 20.2664 3.62198 20.0472 3.759 19.9139L5.42519 18.2928L5.43 18.2882C5.63736 18.094 5.89149 17.9775 6.16644 17.9775C6.44139 17.9775 6.69552 18.094 6.90289 18.2882L6.90769 18.2928L8.57389 19.9139C8.71091 20.0472 8.71391 20.2664 8.58059 20.4034C8.44728 20.5404 8.22812 20.5434 8.0911 20.4101L6.42753 18.7915C6.32653 18.6977 6.23623 18.6698 6.16644 18.6698C6.09666 18.6698 6.00636 18.6977 5.90536 18.7915Z" fill="#D2B589"/>
<path fill-rule="evenodd" clip-rule="evenodd" d="M8.23884 19.441L7.90822 19.7627C7.7712 19.896 7.55205 19.893 7.41874 19.756C7.28542 19.619 7.28842 19.3998 7.42544 19.2665L7.75868 18.9423L7.76349 18.9377C7.97085 18.7436 8.22498 18.6271 8.49993 18.6271C8.77488 18.6271 9.02901 18.7436 9.23637 18.9377L9.24118 18.9423L10.2409 19.915C10.3779 20.0483 10.3809 20.2675 10.2476 20.4045C10.1143 20.5415 9.89513 20.5445 9.75811 20.4112L8.76102 19.441C8.66002 19.3473 8.56971 19.3194 8.49993 19.3194C8.43015 19.3194 8.33984 19.3473 8.23884 19.441Z" fill="#D2B589"/>
<path fill-rule="evenodd" clip-rule="evenodd" d="M10.9875 16.4077C10.9875 15.9616 11.3492 15.6 11.7952 15.6H16.8705C17.3165 15.6 17.6782 15.9616 17.6782 16.4077V21.3208C17.6782 21.7669 17.3165 22.1285 16.8705 22.1285H11.7952C11.3492 22.1285 10.9875 21.7669 10.9875 21.3208V16.4077ZM11.7952 16.2923C11.7315 16.2923 11.6799 16.3439 11.6799 16.4077V21.3208C11.6799 21.3845 11.7315 21.4362 11.7952 21.4362H16.8705C16.9342 21.4362 16.9858 21.3845 16.9858 21.3208V16.4077C16.9858 16.3439 16.9342 16.2923 16.8705 16.2923H11.7952ZM14.9864 17.5673C14.9864 17.3761 15.1414 17.2211 15.3326 17.2211H15.3359C15.5271 17.2211 15.6821 17.3761 15.6821 17.5673C15.6821 17.7585 15.5271 17.9134 15.3359 17.9134H15.3326C15.1414 17.9134 14.9864 17.7585 14.9864 17.5673Z" fill="#D2B589"/>
<path d="M15.6607 17.523C15.6607 17.7079 15.5066 17.8578 15.3165 17.8578C15.1264 17.8578 14.9724 17.7079 14.9724 17.523C14.9724 17.338 15.1264 17.1881 15.3165 17.1881C15.5066 17.1881 15.6607 17.338 15.6607 17.523Z" fill="#D2B589"/>
<path fill-rule="evenodd" clip-rule="evenodd" d="M13.2387 18.7915L11.5751 20.4101C11.4381 20.5434 11.2189 20.5404 11.0856 20.4034C10.9523 20.2664 10.9553 20.0472 11.0923 19.9139L12.7585 18.2928L12.7633 18.2882C12.9707 18.094 13.2248 17.9775 13.4998 17.9775C13.7747 17.9775 14.0288 18.094 14.2362 18.2882L14.241 18.2928L15.9072 19.9139C16.0442 20.0472 16.0472 20.2664 15.9139 20.4034C15.7806 20.5404 15.5614 20.5434 15.4244 20.4101L13.7608 18.7915C13.6598 18.6977 13.5695 18.6698 13.4998 18.6698C13.43 18.6698 13.3397 18.6977 13.2387 18.7915Z" fill="#D2B589"/>
<path fill-rule="evenodd" clip-rule="evenodd" d="M15.5722 19.441L15.2416 19.7627C15.1046 19.896 14.8854 19.893 14.7521 19.756C14.6188 19.619 14.6218 19.3998 14.7588 19.2665L15.0921 18.9423L15.0969 18.9377C15.3042 18.7436 15.5584 18.6271 15.8333 18.6271C16.1083 18.6271 16.3624 18.7436 16.5697 18.9377L16.5746 18.9423L17.5743 19.915C17.7113 20.0483 17.7143 20.2675 17.581 20.4045C17.4477 20.5415 17.2285 20.5445 17.0915 20.4112L16.0944 19.441C15.9934 19.3473 15.9031 19.3194 15.8333 19.3194C15.7635 19.3194 15.6732 19.3473 15.5722 19.441Z" fill="#D2B589"/>
<path fill-rule="evenodd" clip-rule="evenodd" d="M18.3208 16.4077C18.3208 15.9616 18.6824 15.6 19.1285 15.6H24.2037C24.6498 15.6 25.0114 15.9616 25.0114 16.4077V21.3208C25.0114 21.7669 24.6498 22.1285 24.2037 22.1285H19.1285C18.6824 22.1285 18.3208 21.7669 18.3208 21.3208V16.4077ZM19.1285 16.2923C19.0648 16.2923 19.0131 16.3439 19.0131 16.4077V21.3208C19.0131 21.3845 19.0648 21.4362 19.1285 21.4362H24.2037C24.2674 21.4362 24.3191 21.3845 24.3191 21.3208V16.4077C24.3191 16.3439 24.2674 16.2923 24.2037 16.2923H19.1285ZM22.3197 17.5673C22.3197 17.3761 22.4746 17.2211 22.6658 17.2211H22.6692C22.8603 17.2211 23.0153 17.3761 23.0153 17.5673C23.0153 17.7585 22.8603 17.9134 22.6692 17.9134H22.6658C22.4746 17.9134 22.3197 17.7585 22.3197 17.5673Z" fill="#D2B589"/>
<path d="M22.9939 17.523C22.9939 17.7079 22.8398 17.8578 22.6498 17.8578C22.4597 17.8578 22.3056 17.7079 22.3056 17.523C22.3056 17.338 22.4597 17.1881 22.6498 17.1881C22.8398 17.1881 22.9939 17.338 22.9939 17.523Z" fill="#D2B589"/>
<path fill-rule="evenodd" clip-rule="evenodd" d="M20.5719 18.7915L18.9083 20.4101C18.7713 20.5434 18.5522 20.5404 18.4189 20.4034C18.2855 20.2664 18.2885 20.0472 18.4256 19.9139L20.0918 18.2928L20.0966 18.2882C20.3039 18.094 20.5581 17.9775 20.833 17.9775C21.108 17.9775 21.3621 18.094 21.5695 18.2882L21.5743 18.2928L23.2405 19.9139C23.3775 20.0472 23.3805 20.2664 23.2472 20.4034C23.1138 20.5404 22.8947 20.5434 22.7577 20.4101L21.0941 18.7915C20.9931 18.6977 20.9028 18.6698 20.833 18.6698C20.7632 18.6698 20.6729 18.6977 20.5719 18.7915Z" fill="#D2B589"/>
<path fill-rule="evenodd" clip-rule="evenodd" d="M22.9057 19.441L22.5751 19.7627C22.4381 19.896 22.2189 19.893 22.0856 19.756C21.9523 19.619 21.9553 19.3998 22.0923 19.2665L22.4255 18.9423L22.4304 18.9377C22.6377 18.7436 22.8919 18.6271 23.1668 18.6271C23.4417 18.6271 23.6959 18.7436 23.9032 18.9377L23.9081 18.9423L24.9078 19.915C25.0448 20.0483 25.0478 20.2675 24.9145 20.4045C24.7812 20.5415 24.562 20.5445 24.425 20.4112L23.4279 19.441C23.3269 19.3473 23.2366 19.3194 23.1668 19.3194C23.097 19.3194 23.0067 19.3473 22.9057 19.441Z" fill="#D2B589"/>
<path fill-rule="evenodd" clip-rule="evenodd" d="M18.3208 23.5455C18.3208 23.0994 18.6824 22.7378 19.1285 22.7378H24.2037C24.6498 22.7378 25.0114 23.0994 25.0114 23.5455V28.4586C25.0114 28.9047 24.6498 29.2663 24.2037 29.2663H19.1285C18.6824 29.2663 18.3208 28.9047 18.3208 28.4586V23.5455ZM19.1285 23.4301C19.0648 23.4301 19.0131 23.4818 19.0131 23.5455V28.4586C19.0131 28.5223 19.0648 28.574 19.1285 28.574H24.2037C24.2674 28.574 24.3191 28.5223 24.3191 28.4586V23.5455C24.3191 23.4818 24.2674 23.4301 24.2037 23.4301H19.1285ZM22.3197 24.7051C22.3197 24.5139 22.4746 24.359 22.6658 24.359H22.6692C22.8603 24.359 23.0153 24.5139 23.0153 24.7051C23.0153 24.8963 22.8603 25.0513 22.6692 25.0513H22.6658C22.4746 25.0513 22.3197 24.8963 22.3197 24.7051Z" fill="#D2B589"/>
<path d="M22.9939 24.6605C22.9939 24.8455 22.8398 24.9954 22.6498 24.9954C22.4597 24.9954 22.3056 24.8455 22.3056 24.6605C22.3056 24.4756 22.4597 24.3257 22.6498 24.3257C22.8398 24.3257 22.9939 24.4756 22.9939 24.6605Z" fill="#D2B589"/>
<path fill-rule="evenodd" clip-rule="evenodd" d="M20.5719 25.9292L18.9083 27.5478C18.7713 27.6811 18.5522 27.6781 18.4189 27.5411C18.2855 27.4041 18.2885 27.1849 18.4256 27.0516L20.0918 25.4304L20.0966 25.4259C20.3039 25.2317 20.5581 25.1152 20.833 25.1152C21.108 25.1152 21.3621 25.2317 21.5695 25.4259L21.5743 25.4304L23.2405 27.0516C23.3775 27.1849 23.3805 27.4041 23.2472 27.5411C23.1138 27.6781 22.8947 27.6811 22.7577 27.5478L21.0941 25.9292C20.9931 25.8354 20.9028 25.8075 20.833 25.8075C20.7632 25.8075 20.6729 25.8354 20.5719 25.9292Z" fill="#D2B589"/>
<path fill-rule="evenodd" clip-rule="evenodd" d="M22.9057 26.5763L22.5751 26.898C22.4381 27.0313 22.2189 27.0283 22.0856 26.8913C21.9523 26.7542 21.9553 26.5351 22.0923 26.4018L22.4255 26.0775L22.4304 26.073C22.6377 25.8788 22.8919 25.7623 23.1668 25.7623C23.4417 25.7623 23.6959 25.8788 23.9032 26.073L23.9081 26.0775L24.9078 27.0502C25.0448 27.1836 25.0478 27.4027 24.9145 27.5397C24.7812 27.6767 24.562 27.6797 24.425 27.5464L23.4279 26.5763C23.3269 26.4825 23.2366 26.4546 23.1668 26.4546C23.097 26.4546 23.0067 26.4825 22.9057 26.5763Z" fill="#D2B589"/>
<path fill-rule="evenodd" clip-rule="evenodd" d="M3.65424 23.5455C3.65424 23.0994 4.01585 22.7378 4.46193 22.7378H9.53715C9.98323 22.7378 10.3448 23.0994 10.3448 23.5455V28.4586C10.3448 28.9047 9.98323 29.2663 9.53715 29.2663H4.46193C4.01585 29.2663 3.65424 28.9047 3.65424 28.4586V23.5455ZM4.46193 23.4301C4.3982 23.4301 4.34654 23.4818 4.34654 23.5455V28.4586C4.34654 28.5223 4.3982 28.574 4.46193 28.574H9.53715C9.60088 28.574 9.65254 28.5223 9.65254 28.4586V23.5455C9.65254 23.4818 9.60088 23.4301 9.53715 23.4301H4.46193ZM7.6531 24.7051C7.6531 24.5139 7.80808 24.359 7.99926 24.359H8.00259C8.19376 24.359 8.34874 24.5139 8.34874 24.7051C8.34874 24.8963 8.19376 25.0513 8.00259 25.0513H7.99926C7.80808 25.0513 7.6531 24.8963 7.6531 24.7051Z" fill="#D2B589"/>
<path d="M8.32731 24.6605C8.32731 24.8455 8.17322 24.9954 7.98314 24.9954C7.79306 24.9954 7.63898 24.8455 7.63898 24.6605C7.63898 24.4756 7.79306 24.3257 7.98314 24.3257C8.17322 24.3257 8.32731 24.4756 8.32731 24.6605Z" fill="#D2B589"/>
<path fill-rule="evenodd" clip-rule="evenodd" d="M5.90536 25.9292L4.24178 27.5478C4.10476 27.6811 3.88561 27.6781 3.75229 27.5411C3.61898 27.4041 3.62198 27.1849 3.759 27.0516L5.42519 25.4304L5.43 25.4259C5.63736 25.2317 5.89149 25.1152 6.16644 25.1152C6.44139 25.1152 6.69552 25.2317 6.90289 25.4259L6.90769 25.4304L8.57389 27.0516C8.71091 27.1849 8.71391 27.4041 8.58059 27.5411C8.44728 27.6781 8.22812 27.6811 8.0911 27.5478L6.42753 25.9292C6.32653 25.8354 6.23623 25.8075 6.16644 25.8075C6.09666 25.8075 6.00636 25.8354 5.90536 25.9292Z" fill="#D2B589"/>
<path fill-rule="evenodd" clip-rule="evenodd" d="M8.23884 26.5763L7.90822 26.898C7.7712 27.0313 7.55205 27.0283 7.41874 26.8913C7.28542 26.7542 7.28842 26.5351 7.42544 26.4018L7.75868 26.0775L7.76349 26.073C7.97085 25.8788 8.22498 25.7623 8.49993 25.7623C8.77488 25.7623 9.02901 25.8788 9.23637 26.073L9.24118 26.0775L10.2409 27.0502C10.3779 27.1836 10.3809 27.4027 10.2476 27.5397C10.1143 27.6767 9.89513 27.6797 9.75811 27.5464L8.76102 26.5763C8.66002 26.4825 8.56971 26.4546 8.49993 26.4546C8.43015 26.4546 8.33984 26.4825 8.23884 26.5763Z" fill="#D2B589"/>
<path fill-rule="evenodd" clip-rule="evenodd" d="M10.9875 23.5455C10.9875 23.0994 11.3492 22.7378 11.7952 22.7378H16.8705C17.3165 22.7378 17.6782 23.0994 17.6782 23.5455V28.4586C17.6782 28.9047 17.3165 29.2663 16.8705 29.2663H11.7952C11.3492 29.2663 10.9875 28.9047 10.9875 28.4586V23.5455ZM11.7952 23.4301C11.7315 23.4301 11.6799 23.4818 11.6799 23.5455V28.4586C11.6799 28.5223 11.7315 28.574 11.7952 28.574H16.8705C16.9342 28.574 16.9858 28.5223 16.9858 28.4586V23.5455C16.9858 23.4818 16.9342 23.4301 16.8705 23.4301H11.7952ZM14.9864 24.7051C14.9864 24.5139 15.1414 24.359 15.3326 24.359H15.3359C15.5271 24.359 15.6821 24.5139 15.6821 24.7051C15.6821 24.8963 15.5271 25.0513 15.3359 25.0513H15.3326C15.1414 25.0513 14.9864 24.8963 14.9864 24.7051Z" fill="#D2B589"/>
<path d="M15.6607 24.6605C15.6607 24.8455 15.5066 24.9954 15.3165 24.9954C15.1264 24.9954 14.9724 24.8455 14.9724 24.6605C14.9724 24.4756 15.1264 24.3257 15.3165 24.3257C15.5066 24.3257 15.6607 24.4756 15.6607 24.6605Z" fill="#D2B589"/>
<path fill-rule="evenodd" clip-rule="evenodd" d="M13.2387 25.9292L11.5751 27.5478C11.4381 27.6811 11.2189 27.6781 11.0856 27.5411C10.9523 27.4041 10.9553 27.1849 11.0923 27.0516L12.7585 25.4304L12.7633 25.4259C12.9707 25.2317 13.2248 25.1152 13.4998 25.1152C13.7747 25.1152 14.0288 25.2317 14.2362 25.4259L14.241 25.4304L15.9072 27.0516C16.0442 27.1849 16.0472 27.4041 15.9139 27.5411C15.7806 27.6781 15.5614 27.6811 15.4244 27.5478L13.7608 25.9292C13.6598 25.8354 13.5695 25.8075 13.4998 25.8075C13.43 25.8075 13.3397 25.8354 13.2387 25.9292Z" fill="#D2B589"/>
<path fill-rule="evenodd" clip-rule="evenodd" d="M15.5722 26.5763L15.2416 26.898C15.1046 27.0313 14.8854 27.0283 14.7521 26.8913C14.6188 26.7542 14.6218 26.5351 14.7588 26.4018L15.0921 26.0775L15.0969 26.073C15.3042 25.8788 15.5584 25.7623 15.8333 25.7623C16.1083 25.7623 16.3624 25.8788 16.5697 26.073L16.5746 26.0775L17.5743 27.0502C17.7113 27.1836 17.7143 27.4027 17.581 27.5397C17.4477 27.6767 17.2285 27.6797 17.0915 27.5464L16.0944 26.5763C15.9934 26.4825 15.9031 26.4546 15.8333 26.4546C15.7635 26.4546 15.6732 26.4825 15.5722 26.5763Z" fill="#D2B589"/>
<path fill-rule="evenodd" clip-rule="evenodd" d="M3.65424 30.6755C3.65424 30.2294 4.01585 29.8678 4.46193 29.8678H9.53715C9.98323 29.8678 10.3448 30.2294 10.3448 30.6755V35.5886C10.3448 36.0347 9.98323 36.3963 9.53715 36.3963H4.46193C4.01585 36.3963 3.65424 36.0347 3.65424 35.5886V30.6755ZM4.46193 30.5601C4.3982 30.5601 4.34654 30.6118 4.34654 30.6755V35.5886C4.34654 35.6523 4.3982 35.704 4.46193 35.704H9.53715C9.60088 35.704 9.65254 35.6523 9.65254 35.5886V30.6755C9.65254 30.6118 9.60088 30.5601 9.53715 30.5601H4.46193ZM7.6531 31.8351C7.6531 31.6439 7.80808 31.489 7.99926 31.489H8.00259C8.19376 31.489 8.34874 31.6439 8.34874 31.8351C8.34874 32.0263 8.19376 32.1813 8.00259 32.1813H7.99926C7.80808 32.1813 7.6531 32.0263 7.6531 31.8351Z" fill="#D2B589"/>
<path d="M8.32731 31.7909C8.32731 31.9759 8.17322 32.1258 7.98314 32.1258C7.79306 32.1258 7.63898 31.9759 7.63898 31.7909C7.63898 31.606 7.79306 31.4561 7.98314 31.4561C8.17322 31.4561 8.32731 31.606 8.32731 31.7909Z" fill="#D2B589"/>
<path fill-rule="evenodd" clip-rule="evenodd" d="M5.90536 33.0594L4.24178 34.6781C4.10476 34.8114 3.88561 34.8084 3.75229 34.6713C3.61898 34.5343 3.62198 34.3152 3.759 34.1819L5.42519 32.5607L5.43 32.5561C5.63736 32.362 5.89149 32.2455 6.16644 32.2455C6.44139 32.2455 6.69552 32.362 6.90289 32.5561L6.90769 32.5607L8.57389 34.1819C8.71091 34.3152 8.71391 34.5343 8.58059 34.6713C8.44728 34.8084 8.22812 34.8114 8.0911 34.6781L6.42753 33.0594C6.32653 32.9657 6.23623 32.9378 6.16644 32.9378C6.09666 32.9378 6.00636 32.9657 5.90536 33.0594Z" fill="#D2B589"/>
<path fill-rule="evenodd" clip-rule="evenodd" d="M8.23884 33.7064L7.90822 34.0281C7.7712 34.1614 7.55205 34.1584 7.41874 34.0214C7.28542 33.8844 7.28842 33.6652 7.42544 33.5319L7.75868 33.2077L7.76349 33.2031C7.97085 33.0089 8.22498 32.8925 8.49993 32.8925C8.77488 32.8925 9.02901 33.0089 9.23637 33.2031L9.24118 33.2077L10.2409 34.1804C10.3779 34.3137 10.3809 34.5328 10.2476 34.6699C10.1143 34.8069 9.89513 34.8099 9.75811 34.6766L8.76102 33.7064C8.66002 33.6127 8.56971 33.5848 8.49993 33.5848C8.43015 33.5848 8.33984 33.6127 8.23884 33.7064Z" fill="#D2B589"/>
<path fill-rule="evenodd" clip-rule="evenodd" d="M10.9875 30.6755C10.9875 30.2294 11.3492 29.8678 11.7952 29.8678H16.8705C17.3165 29.8678 17.6782 30.2294 17.6782 30.6755V35.5886C17.6782 36.0347 17.3165 36.3963 16.8705 36.3963H11.7952C11.3492 36.3963 10.9875 36.0347 10.9875 35.5886V30.6755ZM11.7952 30.5601C11.7315 30.5601 11.6799 30.6118 11.6799 30.6755V35.5886C11.6799 35.6523 11.7315 35.704 11.7952 35.704H16.8705C16.9342 35.704 16.9858 35.6523 16.9858 35.5886V30.6755C16.9858 30.6118 16.9342 30.5601 16.8705 30.5601H11.7952ZM14.9864 31.8351C14.9864 31.6439 15.1414 31.489 15.3326 31.489H15.3359C15.5271 31.489 15.6821 31.6439 15.6821 31.8351C15.6821 32.0263 15.5271 32.1813 15.3359 32.1813H15.3326C15.1414 32.1813 14.9864 32.0263 14.9864 31.8351Z" fill="#D2B589"/>
<path d="M15.6607 31.7909C15.6607 31.9759 15.5066 32.1258 15.3165 32.1258C15.1264 32.1258 14.9724 31.9759 14.9724 31.7909C14.9724 31.606 15.1264 31.4561 15.3165 31.4561C15.5066 31.4561 15.6607 31.606 15.6607 31.7909Z" fill="#D2B589"/>
<path fill-rule="evenodd" clip-rule="evenodd" d="M13.2387 33.0594L11.5751 34.6781C11.4381 34.8114 11.2189 34.8084 11.0856 34.6713C10.9523 34.5343 10.9553 34.3152 11.0923 34.1819L12.7585 32.5607L12.7633 32.5561C12.9707 32.362 13.2248 32.2455 13.4998 32.2455C13.7747 32.2455 14.0288 32.362 14.2362 32.5561L14.241 32.5607L15.9072 34.1819C16.0442 34.3152 16.0472 34.5343 15.9139 34.6713C15.7806 34.8084 15.5614 34.8114 15.4244 34.6781L13.7608 33.0594C13.6598 32.9657 13.5695 32.9378 13.4998 32.9378C13.43 32.9378 13.3397 32.9657 13.2387 33.0594Z" fill="#D2B589"/>
<path fill-rule="evenodd" clip-rule="evenodd" d="M15.5722 33.7064L15.2416 34.0281C15.1046 34.1614 14.8854 34.1584 14.7521 34.0214C14.6188 33.8844 14.6218 33.6652 14.7588 33.5319L15.0921 33.2077L15.0969 33.2031C15.3042 33.0089 15.5584 32.8925 15.8333 32.8925C16.1083 32.8925 16.3624 33.0089 16.5697 33.2031L16.5746 33.2077L17.5743 34.1804C17.7113 34.3137 17.7143 34.5328 17.581 34.6699C17.4477 34.8069 17.2285 34.8099 17.0915 34.6766L16.0944 33.7064C15.9934 33.6127 15.9031 33.5848 15.8333 33.5848C15.7635 33.5848 15.6732 33.6127 15.5722 33.7064Z" fill="#D2B589"/>
<path fill-rule="evenodd" clip-rule="evenodd" d="M18.3208 30.6755C18.3208 30.2294 18.6824 29.8678 19.1285 29.8678H24.2037C24.6498 29.8678 25.0114 30.2294 25.0114 30.6755V35.5886C25.0114 36.0347 24.6498 36.3963 24.2037 36.3963H19.1285C18.6824 36.3963 18.3208 36.0347 18.3208 35.5886V30.6755ZM19.1285 30.5601C19.0648 30.5601 19.0131 30.6118 19.0131 30.6755V35.5886C19.0131 35.6523 19.0648 35.704 19.1285 35.704H24.2037C24.2674 35.704 24.3191 35.6523 24.3191 35.5886V30.6755C24.3191 30.6118 24.2674 30.5601 24.2037 30.5601H19.1285ZM22.3197 31.8351C22.3197 31.6439 22.4746 31.489 22.6658 31.489H22.6692C22.8603 31.489 23.0153 31.6439 23.0153 31.8351C23.0153 32.0263 22.8603 32.1813 22.6692 32.1813H22.6658C22.4746 32.1813 22.3197 32.0263 22.3197 31.8351Z" fill="#D2B589"/>
<path d="M22.9939 31.7909C22.9939 31.9759 22.8398 32.1258 22.6498 32.1258C22.4597 32.1258 22.3056 31.9759 22.3056 31.7909C22.3056 31.606 22.4597 31.4561 22.6498 31.4561C22.8398 31.4561 22.9939 31.606 22.9939 31.7909Z" fill="#D2B589"/>
<path fill-rule="evenodd" clip-rule="evenodd" d="M20.5719 33.0594L18.9083 34.6781C18.7713 34.8114 18.5522 34.8084 18.4189 34.6713C18.2855 34.5343 18.2885 34.3152 18.4256 34.1819L20.0918 32.5607L20.0966 32.5561C20.3039 32.362 20.5581 32.2455 20.833 32.2455C21.108 32.2455 21.3621 32.362 21.5695 32.5561L21.5743 32.5607L23.2405 34.1819C23.3775 34.3152 23.3805 34.5343 23.2472 34.6713C23.1138 34.8084 22.8947 34.8114 22.7577 34.6781L21.0941 33.0594C20.9931 32.9657 20.9028 32.9378 20.833 32.9378C20.7632 32.9378 20.6729 32.9657 20.5719 33.0594Z" fill="#D2B589"/>
<path fill-rule="evenodd" clip-rule="evenodd" d="M22.9057 33.7064L22.5751 34.0281C22.4381 34.1614 22.2189 34.1584 22.0856 34.0214C21.9523 33.8844 21.9553 33.6652 22.0923 33.5319L22.4255 33.2077L22.4304 33.2031C22.6377 33.0089 22.8919 32.8925 23.1668 32.8925C23.4417 32.8925 23.6959 33.0089 23.9032 33.2031L23.9081 33.2077L24.9078 34.1804C25.0448 34.3137 25.0478 34.5328 24.9145 34.6699C24.7812 34.8069 24.562 34.8099 24.425 34.6766L23.4279 33.7064C23.3269 33.6127 23.2366 33.5848 23.1668 33.5848C23.097 33.5848 23.0067 33.6127 22.9057 33.7064Z" fill="#D2B589"/>
</svg>
