<svg width="30" height="52" viewBox="0 0 30 52" fill="none" xmlns="http://www.w3.org/2000/svg">
<path d="M0 50.2864C3.44086 49.5386 6.59498 48.604 9.46237 47.4823C12.3536 46.3607 14.8507 45.0417 16.9534 43.5255C19.0562 41.9884 20.693 40.2437 21.8638 38.2912C23.0346 36.3387 23.6201 34.1682 23.6201 31.7795C23.6201 29.4116 23.0705 27.3968 21.9713 25.7352C20.8722 24.0735 19.3668 22.713 17.4552 21.6537C15.5675 20.5944 13.3333 19.8155 10.7527 19.317C8.19594 18.8185 5.45998 18.5484 2.5448 18.5069L7.16846 0.186938H14.0143C16.0454 0.186938 17.8136 0.186938 19.319 0.186938C20.8483 0.166167 22.1625 0.155782 23.2617 0.155782C24.3608 0.135011 25.2808 0.11424 26.0215 0.0934691C26.7622 0.0726982 27.3835 0.0415418 27.8853 0H28.0287V6.76093H27.8853C27.3835 6.63631 26.7622 6.52207 26.0215 6.41821C25.2808 6.31436 24.3608 6.22089 23.2617 6.13781C22.1625 6.05472 20.8483 5.99241 19.319 5.95087C17.8136 5.90933 16.0454 5.88856 14.0143 5.88856H8.70968L6.81004 12.8987C8.74552 12.9403 10.6571 13.1065 12.5448 13.3972C14.4325 13.6673 16.2366 14.0931 17.957 14.6747C19.6774 15.2355 21.2664 15.9521 22.724 16.8244C24.2055 17.6761 25.4839 18.6938 26.5591 19.8778C27.6344 21.0409 28.4707 22.3807 29.0681 23.8969C29.6894 25.3925 30 27.0645 30 28.9131C30 31.3018 29.5818 33.462 28.7455 35.3936C27.9092 37.3253 26.7742 39.0701 25.3405 40.6279C23.9068 42.1857 22.2342 43.567 20.3226 44.7717C18.411 45.9764 16.368 47.0357 14.1935 47.9497C12.043 48.8636 9.82079 49.6529 7.52688 50.3176C5.23298 50.9822 2.98686 51.543 0.788531 52L0 50.2864Z" fill="#D2B589"/>
</svg>
