<svg width="35" height="52" viewBox="0 0 35 52" fill="none" xmlns="http://www.w3.org/2000/svg">
<path d="M27.9811 0V0.142661C27.8762 0.641975 27.7818 1.26017 27.6978 1.99726C27.6139 2.73434 27.5405 3.64975 27.4775 4.74348C27.4356 5.83722 27.3936 7.14495 27.3516 8.66667C27.3306 10.1646 27.3201 11.9241 27.3201 13.9451V35.915C29.2296 35.8674 30.7824 35.7961 31.9784 35.701C33.1954 35.6059 34.1607 35.4632 34.8741 35.273H35V40.3731H34.8741C34.1607 40.2305 33.1954 40.0997 31.9784 39.9808C30.7824 39.8619 29.2296 39.7787 27.3201 39.7311C27.3411 41.4668 27.3726 42.9886 27.4146 44.2963C27.4565 45.604 27.5195 46.7453 27.6034 47.7202C27.6874 48.6712 27.7818 49.4915 27.8867 50.1811C27.9916 50.8468 28.107 51.4056 28.2329 51.8573V52H20.679V51.8573C20.8049 51.4056 20.9203 50.8468 21.0252 50.1811C21.1301 49.4915 21.214 48.6712 21.277 47.7202C21.3609 46.7453 21.4239 45.604 21.4658 44.2963C21.5288 42.9886 21.5707 41.4668 21.5917 39.7311H0V38.1262L27.3201 0H27.9811ZM21.5917 35.915V13.5171L5.66547 35.915H21.5917Z" fill="#D2B589"/>
</svg>
