<svg width="52" height="52" viewBox="0 0 52 52" fill="none" xmlns="http://www.w3.org/2000/svg">
<rect width="52" height="52" fill="white"/>
<path fill-rule="evenodd" clip-rule="evenodd" d="M26 5C26.4296 5 26.7778 5.34822 26.7778 5.77778V25.2222H46.2222C46.6518 25.2222 47 25.5704 47 26C47 26.4296 46.6518 26.7778 46.2222 26.7778H28.8415C29.0183 28.4309 29.7549 29.9832 30.9414 31.1697C32.3125 32.5408 34.1721 33.3111 36.1111 33.3111C36.5407 33.3111 36.8889 33.6593 36.8889 34.0889C36.8889 34.5184 36.5407 34.8667 36.1111 34.8667C33.7595 34.8667 31.5043 33.9325 29.8414 32.2697C28.3629 30.7912 27.4605 28.8443 27.2786 26.7778H26.7778V46.2222C26.7778 46.6518 26.4296 47 26 47C25.5704 47 25.2222 46.6518 25.2222 46.2222V26.7778H24.7214C24.5395 28.8443 23.6371 30.7912 22.1586 32.2697C20.4957 33.9325 18.2405 34.8667 15.8889 34.8667C15.4593 34.8667 15.1111 34.5184 15.1111 34.0889C15.1111 33.6593 15.4593 33.3111 15.8889 33.3111C17.8279 33.3111 19.6875 32.5408 21.0586 31.1697C22.2451 29.9832 22.9817 28.4309 23.1585 26.7778H5.77778C5.34822 26.7778 5 26.4296 5 26C5 25.5704 5.34822 25.2222 5.77778 25.2222H25.2222V5.77778C25.2222 5.34822 25.5704 5 26 5Z" fill="#D2B589"/>
<path fill-rule="evenodd" clip-rule="evenodd" d="M14.909 21.2104C13.9557 17.3969 17.4102 13.9454 21.2209 14.8962C22.81 15.2932 24.221 16.2101 25.2291 17.5011C25.5304 17.8868 25.7906 18.2994 26.0073 18.732C26.224 18.2994 26.4841 17.8868 26.7854 17.5011C27.7935 16.2101 29.2043 15.2933 30.7934 14.8963C34.6041 13.9454 38.0588 17.3969 37.1055 21.2104C36.7085 22.7995 35.7917 24.2103 34.5007 25.2184C33.2098 26.2266 31.6189 26.7743 29.981 26.7743H22.0336C20.3957 26.7743 18.8047 26.2266 17.5138 25.2184C16.2229 24.2103 15.306 22.7995 14.909 21.2104ZM25.2295 22.0208C25.2294 20.7299 24.7977 19.476 24.0032 18.4585C23.2086 17.4411 22.0967 16.7185 20.8443 16.4055M25.2295 22.0208V25.2188H22.0336C22.0337 25.2188 22.0336 25.2188 22.0336 25.2188C20.7427 25.2187 19.4887 24.7871 18.4712 23.9925C17.4537 23.1978 16.7311 22.0859 16.4182 20.8334C15.7498 18.1597 18.1719 15.7388 20.8443 16.4055M26.785 25.2188H29.9809C29.9809 25.2188 29.9809 25.2188 29.9809 25.2188C31.2719 25.2187 32.5258 24.7871 33.5433 23.9925C34.5608 23.1978 35.2834 22.0859 35.5963 20.8334C36.2648 18.1597 33.8429 15.7388 31.1705 16.4055M26.785 25.2188V22.0209C26.7851 20.73 27.2168 19.476 28.0114 18.4585C28.8059 17.4411 29.918 16.7184 31.1705 16.4055" fill="#D2B589"/>
<path fill-rule="evenodd" clip-rule="evenodd" d="M15.0097 6.91869C12.3429 7.27714 10.6019 7.97657 9.2881 9.28846C7.97653 10.6011 7.27714 12.3419 6.91869 15.0089C6.55721 17.6986 6.55556 21.2116 6.55556 26C6.55556 30.7884 6.55721 34.3019 6.91869 36.9916C7.27718 39.659 7.97667 41.399 9.28809 42.7095C10.6008 44.0222 12.3418 44.7224 15.009 45.0811C17.6986 45.4428 21.2116 45.4444 26 45.4444C30.7884 45.4444 34.3019 45.4428 36.9915 45.0811C39.6588 44.7223 41.3988 44.0224 42.7093 42.7101L42.7099 42.7095C44.0224 41.3979 44.7224 39.6577 45.0811 36.9907C45.4428 34.3014 45.4444 30.7884 45.4444 26C45.4444 21.2116 45.4428 17.6991 45.0811 15.0098C44.7224 12.343 44.0225 10.6021 42.7097 9.28828C41.3981 7.97665 39.6579 7.27717 36.9908 6.91869C34.3014 6.55721 30.7884 6.55556 26 6.55556C21.2116 6.55556 17.6991 6.55721 15.0097 6.91869ZM25.9385 5H26.0615C30.7758 4.99999 34.3931 4.99999 37.198 5.377C40.0375 5.75865 42.1607 6.53944 43.8096 8.18834C45.4593 9.83909 46.2408 11.9628 46.6227 14.8024C47 17.6074 47 21.2242 47 25.9385V26.0615C47 30.7758 47 34.3931 46.6227 37.1981C46.2408 40.0376 45.4595 42.1609 43.8095 43.8098C42.1616 45.4597 40.0382 46.2409 37.1988 46.6227C34.3936 47 30.7759 47 26.0615 47H25.9385C21.2242 47 17.6069 47 14.8017 46.6227C11.9618 46.2408 9.83817 45.4595 8.18834 43.8096C6.53936 42.1617 5.75862 40.0383 5.377 37.1988C4.99999 34.3936 4.99999 30.7759 5 26.0615V25.9385C4.99999 21.2242 4.99999 17.6069 5.377 14.8017C5.75865 11.962 6.53942 9.83838 8.18815 8.18853L8.18871 8.18796C9.83948 6.53945 11.9629 5.75866 14.8025 5.377C17.6074 4.99999 21.2242 4.99999 25.9385 5Z" fill="#D2B589"/>
</svg>
