<svg width="18" height="18" viewBox="0 0 18 18" fill="none" xmlns="http://www.w3.org/2000/svg">
<path d="M1.5 9C1.5 6.17175 1.5 4.75725 2.379 3.879C3.25725 3 4.67175 3 7.5 3H10.5C13.3282 3 14.7427 3 15.621 3.879C16.5 4.75725 16.5 6.17175 16.5 9C16.5 11.8282 16.5 13.2427 15.621 14.121C14.7427 15 13.3282 15 10.5 15H7.5C4.67175 15 3.25725 15 2.379 14.121C1.5 13.2427 1.5 11.8282 1.5 9Z" stroke="#262626" stroke-width="1.5"/>
<path d="M4.5 6L6.11925 7.35C7.497 8.4975 8.1855 9.07125 9 9.07125C9.8145 9.07125 10.5037 8.4975 11.8807 7.34925L13.5 6" stroke="#262626" stroke-width="1.5" stroke-linecap="round"/>
</svg>
