<svg width="151" height="37" viewBox="0 0 151 37" fill="none" xmlns="http://www.w3.org/2000/svg">
<path d="M150.234 0.637614C150.234 0.814644 150.002 0.894307 149.54 0.876604L148.93 0.85005H148.431C148.135 0.85005 147.959 0.903159 147.904 1.00938C147.848 1.09789 147.82 1.38999 147.82 1.88567V17.181C147.82 18.1193 147.811 18.6681 147.793 18.8274C147.774 18.9867 147.719 19.0664 147.626 19.0664C147.515 19.0664 147.386 18.969 147.238 18.7743L143.687 13.8086C141.634 10.923 139.138 7.32047 136.198 3.00096L136.225 17.8183C136.244 18.0485 136.383 18.1989 136.641 18.2697C136.9 18.3229 137.52 18.3583 138.5 18.376C138.74 18.376 138.861 18.4468 138.861 18.5884C138.861 18.7654 138.62 18.8539 138.139 18.8539C137.973 18.8539 137.446 18.8274 136.558 18.7743C136.262 18.7566 135.976 18.7477 135.698 18.7477C135.717 18.7477 135.55 18.7654 135.199 18.8008C134.866 18.8362 134.348 18.8539 133.646 18.8539H133.368C132.943 18.8539 132.73 18.7743 132.73 18.6149C132.73 18.4556 132.915 18.376 133.285 18.376C134.376 18.3583 135.005 18.2963 135.171 18.1901C135.356 18.0662 135.449 17.6855 135.449 17.0482V3.95692C135.449 2.48757 135.134 1.56702 134.505 1.19526C134.21 1.01823 133.683 0.929713 132.924 0.929713C132.444 0.929713 132.203 0.841199 132.203 0.664169C132.203 0.504843 132.342 0.42518 132.619 0.42518C132.989 0.42518 133.461 0.434031 134.034 0.451734C134.607 0.469436 134.912 0.478288 134.949 0.478288C135.005 0.478288 135.264 0.469436 135.726 0.451734C136.336 0.451734 136.928 0.442883 137.501 0.42518L147.071 14.0476V2.23088C147.071 1.68209 147.062 1.35458 147.044 1.24837C147.025 1.12445 146.951 1.03593 146.822 0.982821C146.692 0.912009 146.248 0.876604 145.49 0.876604C144.824 0.876604 144.492 0.79694 144.492 0.637614C144.492 0.460584 144.714 0.37207 145.157 0.37207H146.128C146.369 0.37207 146.628 0.37207 146.905 0.37207C147.201 0.389774 147.376 0.398626 147.432 0.398626C147.45 0.398626 147.617 0.389774 147.931 0.37207C148.227 0.37207 148.505 0.37207 148.763 0.37207H149.623C150.03 0.37207 150.234 0.460584 150.234 0.637614Z" fill="#262626"/>
<path d="M130.157 9.71865C130.157 12.3564 129.325 14.587 127.661 16.4104C126.015 18.2338 123.99 19.1455 121.586 19.1455C119.034 19.1455 116.889 18.2249 115.15 16.3838C113.412 14.525 112.543 12.2413 112.543 9.53277C112.543 6.77111 113.375 4.51399 115.04 2.7614C116.722 0.991104 118.868 0.105957 121.475 0.105957C123.935 0.105957 125.996 1.02651 127.661 2.86762C129.325 4.70872 130.157 6.9924 130.157 9.71865ZM127.051 9.85142C127.051 6.61179 126.357 4.08912 124.97 2.28342C124.101 1.15043 122.89 0.583937 121.336 0.583937C119.857 0.583937 118.71 1.01766 117.897 1.8851C116.399 3.47837 115.65 6.07185 115.65 9.66554C115.65 12.5157 116.168 14.7286 117.203 16.3041C118.257 17.8797 119.727 18.6675 121.614 18.6675C123.371 18.6675 124.693 17.924 125.58 16.4369C126.561 14.7905 127.051 12.5954 127.051 9.85142Z" fill="#262626"/>
<path d="M109.509 18.6149C109.509 18.7566 109.399 18.8274 109.177 18.8274H108.899C108.788 18.7743 107.531 18.7477 105.127 18.7477C104.664 18.7477 104.202 18.7654 103.74 18.8008C103.499 18.8185 103.129 18.8274 102.63 18.8274C102.39 18.8274 102.27 18.7477 102.27 18.5884C102.27 18.4468 102.51 18.3671 102.991 18.3494C103.73 18.3317 104.165 18.252 104.294 18.1104C104.424 17.9511 104.489 17.4377 104.489 16.5703V2.60264C104.489 1.7352 104.442 1.24837 104.35 1.14215C104.239 0.965118 103.73 0.858901 102.824 0.823495C102.473 0.805793 102.297 0.734981 102.297 0.61106C102.297 0.451733 102.408 0.37207 102.63 0.37207L106.375 0.42518C106.652 0.42518 107.189 0.416328 107.984 0.398626L109.038 0.37207C109.334 0.37207 109.482 0.451733 109.482 0.61106C109.482 0.752684 109.075 0.841198 108.261 0.876604C107.799 0.894307 107.512 0.973971 107.401 1.11559C107.309 1.25722 107.263 1.62898 107.263 2.23088V16.4109C107.263 17.42 107.309 17.9688 107.401 18.0573C107.605 18.252 108.206 18.3671 109.204 18.4025C109.408 18.4025 109.509 18.4733 109.509 18.6149Z" fill="#262626"/>
<path d="M99.9925 5.09894C99.9925 5.32908 99.8816 5.44415 99.6597 5.44415C99.4377 5.44415 99.2806 5.21401 99.1881 4.75373C99.1511 4.43508 99.1141 4.11643 99.0771 3.79778C98.9477 3.16047 98.735 2.62053 98.4391 2.17796C98.0508 1.59376 97.4128 1.222 96.5251 1.06267C95.9518 0.956455 95.4895 0.912198 95.1382 0.9299C94.269 0.965306 93.742 0.99186 93.557 1.00956V17.0219C93.557 17.6592 93.7327 18.0575 94.0841 18.2168C94.269 18.3053 94.7868 18.3584 95.6375 18.3761C95.8594 18.3938 95.9703 18.4735 95.9703 18.6151C95.9703 18.7745 95.8224 18.8541 95.5265 18.8541C95.3786 18.8541 95.2491 18.8453 95.1382 18.8276C94.0286 18.7922 93.2427 18.7745 92.7803 18.7745C92.1701 18.7745 91.5968 18.7833 91.0605 18.801C90.5242 18.8187 89.84 18.8276 89.0078 18.8276C88.5825 18.8276 88.3698 18.7568 88.3698 18.6151C88.3698 18.4558 88.7674 18.3673 89.5626 18.3496C90.1359 18.3496 90.5057 18.2345 90.6721 18.0044C90.7646 17.8628 90.8108 17.4998 90.8108 16.9157V1.00956C88.9801 1.02727 87.8427 1.11578 87.3989 1.27511C86.2339 1.68228 85.5496 2.77101 85.3462 4.5413C85.2907 5.07239 85.1613 5.33793 84.9579 5.33793C84.736 5.33793 84.625 5.15205 84.625 4.78029C84.625 4.58556 84.6343 4.39082 84.6527 4.19609L84.7082 3.58534C84.7637 2.77101 84.8469 1.69998 84.9579 0.372257H86.2061L91.8649 0.451921C92.5307 0.469623 93.5663 0.460772 94.9717 0.425367L99.5764 0.345703C99.6134 1.33707 99.7336 2.80641 99.9371 4.75373C99.9371 4.80684 99.9463 4.87766 99.9648 4.96617C99.9833 5.03698 99.9925 5.08124 99.9925 5.09894Z" fill="#262626"/>
<path d="M84.3064 18.641C84.3064 18.8003 84.1677 18.88 83.8903 18.88C83.7054 18.88 83.5389 18.8711 83.391 18.8534L79.8681 18.8003L76.3452 18.8534C76.2158 18.8711 76.0771 18.88 75.9291 18.88C75.5593 18.88 75.3744 18.7915 75.3744 18.6144C75.3744 18.4197 75.624 18.3224 76.1233 18.3224C77.7507 18.3046 78.5644 18.1453 78.5644 17.8444C78.5644 17.8267 78.5459 17.7559 78.5089 17.6319L78.287 16.915L78.1483 16.5432C77.9818 15.9944 77.575 14.7818 76.9277 12.9053H70.9916C69.882 15.7377 69.3272 17.3664 69.3272 17.7913C69.3272 18.0391 69.4382 18.1896 69.6601 18.2427C69.7155 18.2604 70.1779 18.2958 71.047 18.3489C71.5833 18.3666 71.8515 18.4551 71.8515 18.6144C71.8515 18.7915 71.6111 18.88 71.1302 18.88C70.2796 18.88 69.2902 18.8446 68.1622 18.7738C67.8848 18.7561 67.5981 18.7472 67.3022 18.7472C67.0064 18.7472 66.7197 18.7649 66.4423 18.8003C66.2944 18.818 66.1742 18.8269 66.0817 18.8269C65.8228 18.8269 65.6934 18.7472 65.6934 18.5879C65.6934 18.4286 65.98 18.3401 66.5533 18.3224C67.145 18.3046 67.5704 18.225 67.8293 18.0834C68.0882 17.924 68.2916 17.6319 68.4395 17.2071C70.8251 10.6924 72.7669 5.46117 74.2648 1.51341C74.3018 1.30098 74.3757 1.06199 74.4867 0.796444L74.6254 0.318465C74.6809 0.123733 74.7548 0.0263672 74.8473 0.0263672C74.9028 0.0263672 74.949 0.0794763 74.986 0.185694C75.2264 0.876108 75.7719 2.3189 76.6226 4.51406C77.2884 6.23125 78.9435 10.5419 81.5879 17.4461C81.7359 17.8355 81.9208 18.0834 82.1427 18.1896C82.3831 18.2958 82.8639 18.3578 83.5852 18.3755C84.066 18.3932 84.3064 18.4817 84.3064 18.641ZM76.7613 12.2945C76.4654 11.4979 75.9754 10.179 75.2911 8.3379L73.9597 4.69994C73.183 6.64726 72.2491 9.17879 71.158 12.2945H76.7613Z" fill="#262626"/>
<path d="M64.4434 13.649C64.4434 15.1714 63.8332 16.4726 62.6127 17.5525C61.4106 18.6146 59.9589 19.1457 58.2576 19.1457C57.259 19.1457 56.0662 18.8536 54.6792 18.2694C54.3094 18.1101 54.032 18.0304 53.8471 18.0304C53.6251 18.0304 53.4865 18.2871 53.431 18.8005C53.4125 19.0661 53.2923 19.1988 53.0704 19.1988C52.8854 19.1988 52.793 19.0926 52.793 18.8802C52.793 18.7386 52.8022 18.6323 52.8207 18.5615C52.9686 17.4817 53.0426 16.4814 53.0426 15.5609C53.0426 15.3839 53.0241 14.8882 52.9871 14.0738C52.9686 13.9676 52.9594 13.826 52.9594 13.649C52.9594 13.3834 53.0704 13.2506 53.2923 13.2506C53.4772 13.2506 53.6067 13.4631 53.6806 13.888C54.1614 17.0391 55.7241 18.6146 58.3686 18.6146C59.4966 18.6146 60.3658 18.3137 60.976 17.7118C61.6048 17.0922 61.9192 16.2247 61.9192 15.1095C61.9192 14.1181 61.614 13.2772 61.0038 12.5868C60.412 11.8787 59.3857 11.1794 57.9247 10.489C56.1679 9.65695 54.9474 8.85147 54.2631 8.07254C53.5789 7.29361 53.2368 6.3288 53.2368 5.17811C53.2368 3.70877 53.7269 2.49611 54.707 1.54016C55.7056 0.584197 56.9631 0.106217 58.4795 0.106217C59.1083 0.106217 59.9774 0.309802 61.087 0.716969C61.4754 0.858593 61.762 0.929405 61.9469 0.929405C62.1503 0.929405 62.2798 0.893999 62.3353 0.823187C62.4092 0.752375 62.474 0.566494 62.5294 0.265544C62.5664 0.0885146 62.6681 0 62.8346 0C63.0195 0 63.112 0.106218 63.112 0.318653C63.112 0.460277 63.1027 0.566494 63.0842 0.637305C63.0287 1.06218 63.001 1.57556 63.001 2.17746C63.001 3.0272 63.0472 3.69991 63.1397 4.1956L63.1674 4.62047C63.1859 4.8152 63.1027 4.91256 62.9178 4.91256C62.7144 4.91256 62.5757 4.70898 62.5017 4.30181C62.2983 3.25734 61.8175 2.3899 61.0593 1.69948C60.3011 0.991364 59.4504 0.637305 58.5073 0.637305C57.5826 0.637305 56.8429 0.920552 56.2881 1.48705C55.7518 2.05354 55.4837 2.82362 55.4837 3.79728C55.4837 4.93027 55.8813 5.84197 56.6765 6.53238C57.1203 6.92185 58.0819 7.47064 59.5613 8.17876C61.2997 9.0108 62.5479 9.86054 63.3061 10.728C64.0643 11.5777 64.4434 12.5514 64.4434 13.649Z" fill="#262626"/>
<path d="M49.9289 0.637614C49.9289 0.814644 49.6978 0.894307 49.2355 0.876604L48.6252 0.85005H48.1259C47.83 0.85005 47.6543 0.903159 47.5988 1.00938C47.5434 1.09789 47.5156 1.38999 47.5156 1.88567V17.181C47.5156 18.1193 47.5064 18.6681 47.4879 18.8274C47.4694 18.9867 47.4139 19.0664 47.3215 19.0664C47.2105 19.0664 47.081 18.969 46.9331 18.7743L43.3825 13.8086C41.3298 10.923 38.8332 7.32047 35.8929 3.00096L35.9206 17.8183C35.9391 18.0485 36.0778 18.1989 36.3367 18.2697C36.5956 18.3229 37.2151 18.3583 38.1952 18.376C38.4357 18.376 38.5559 18.4468 38.5559 18.5884C38.5559 18.7654 38.3154 18.8539 37.8346 18.8539C37.6682 18.8539 37.1412 18.8274 36.2535 18.7743C35.9576 18.7566 35.671 18.7477 35.3936 18.7477C35.4121 18.7477 35.2456 18.7654 34.8943 18.8008C34.5614 18.8362 34.0436 18.8539 33.3409 18.8539H33.0635C32.6381 18.8539 32.4255 18.7743 32.4255 18.6149C32.4255 18.4556 32.6104 18.376 32.9803 18.376C34.0713 18.3583 34.7001 18.2963 34.8665 18.1901C35.0515 18.0662 35.1439 17.6855 35.1439 17.0482V3.95692C35.1439 2.48757 34.8295 1.56702 34.2008 1.19526C33.9049 1.01823 33.3779 0.929713 32.6197 0.929713C32.1388 0.929713 31.8984 0.841199 31.8984 0.664169C31.8984 0.504843 32.0371 0.42518 32.3145 0.42518C32.6844 0.42518 33.156 0.434031 33.7292 0.451734C34.3025 0.469436 34.6076 0.478288 34.6446 0.478288C34.7001 0.478288 34.959 0.469436 35.4213 0.451734C36.0316 0.451734 36.6234 0.442883 37.1966 0.42518L46.7667 14.0476V2.23088C46.7667 1.68209 46.7574 1.35458 46.7389 1.24837C46.7204 1.12445 46.6465 1.03593 46.517 0.982821C46.3876 0.912009 45.9437 0.876604 45.1855 0.876604C44.5198 0.876604 44.1869 0.79694 44.1869 0.637614C44.1869 0.460584 44.4088 0.37207 44.8527 0.37207H45.8235C46.0639 0.37207 46.3228 0.37207 46.6002 0.37207C46.8961 0.389774 47.0718 0.398626 47.1273 0.398626C47.1458 0.398626 47.3122 0.389774 47.6266 0.37207C47.9225 0.37207 48.1999 0.37207 48.4588 0.37207H49.3187C49.7255 0.37207 49.9289 0.460584 49.9289 0.637614Z" fill="#262626"/>
<path d="M30.4542 14.5258C30.4542 14.5966 30.4357 15.0304 30.3987 15.827C30.3617 16.6236 30.3432 17.3849 30.3432 18.1107V18.987C28.5309 18.8985 24.9433 18.8542 19.5804 18.8542C18.9331 18.8542 18.2951 18.8631 17.6664 18.8808C17.0376 18.8808 16.6123 18.8808 16.3904 18.8808H16.113C15.7616 18.8808 15.5859 18.8011 15.5859 18.6418C15.5859 18.5355 15.6414 18.4736 15.7524 18.4559C15.8079 18.4559 16.1592 18.4293 16.8065 18.3762C17.2873 18.3408 17.5739 18.2434 17.6664 18.0841C17.7773 17.9248 17.8328 17.5088 17.8328 16.8361V1.91249C17.8328 1.3991 17.7496 1.09815 17.5832 1.00964C17.4352 0.90342 16.9359 0.85031 16.0852 0.85031C15.7894 0.85031 15.6414 0.770647 15.6414 0.611321C15.6414 0.451994 15.8448 0.372331 16.2517 0.372331L20.9951 0.398887C21.1615 0.398887 22.2064 0.390035 24.1296 0.372331C26.0529 0.372331 27.3474 0.372331 28.0131 0.372331C28.5679 0.372331 29.0764 0.336925 29.5388 0.266113C29.5758 1.02734 29.659 2.08066 29.7884 3.42609L29.8994 4.56793C29.9179 4.65644 29.9271 4.77151 29.9271 4.91313C29.9271 5.09017 29.8439 5.17868 29.6775 5.17868C29.474 5.17868 29.3261 4.95739 29.2336 4.51482C28.8823 2.92156 28.309 1.91249 27.5138 1.48762C26.922 1.16896 25.3686 1.00964 22.8536 1.00964H20.579V8.79008H21.2447C23.3159 8.79008 24.5734 8.6396 25.0173 8.33865C25.4796 8.0377 25.794 7.16141 25.9604 5.70977C25.9974 5.33801 26.0991 5.15212 26.2655 5.15212C26.469 5.15212 26.5707 5.31145 26.5707 5.6301C26.5707 5.94876 26.5522 6.41789 26.5152 7.03749C26.4782 7.65709 26.4597 8.12622 26.4597 8.44487C26.4597 10.3391 26.4967 11.6403 26.5707 12.3484C26.5892 12.5254 26.5984 12.6759 26.5984 12.7998C26.5984 13.0299 26.4967 13.145 26.2933 13.145C26.1638 13.145 26.0714 13.0742 26.0159 12.9326C25.9789 12.7732 25.9049 12.2776 25.794 11.4455C25.646 10.401 25.193 9.75489 24.4348 9.50705C24.1019 9.40083 23.2327 9.34772 21.8273 9.34772H20.579V18.27C24.6474 18.27 27.033 18.1903 27.7357 18.031C28.9562 17.7655 29.6497 16.6325 29.8162 14.632C29.8531 14.1895 29.9734 13.9682 30.1768 13.9682C30.3617 13.9682 30.4542 14.1541 30.4542 14.5258Z" fill="#262626"/>
<path d="M12.9513 13.649C12.9513 15.1714 12.341 16.4726 11.1205 17.5525C9.91843 18.6146 8.46675 19.1457 6.76541 19.1457C5.7668 19.1457 4.57401 18.8536 3.18705 18.2694C2.81719 18.1101 2.5398 18.0304 2.35487 18.0304C2.13296 18.0304 1.99426 18.2871 1.93878 18.8005C1.92029 19.0661 1.80009 19.1988 1.57817 19.1988C1.39325 19.1988 1.30078 19.0926 1.30078 18.8802C1.30078 18.7386 1.31003 18.6323 1.32852 18.5615C1.47646 17.4817 1.55043 16.4814 1.55043 15.5609C1.55043 15.3839 1.53194 14.8882 1.49496 14.0738C1.47646 13.9676 1.46722 13.826 1.46722 13.649C1.46722 13.3834 1.57817 13.2506 1.80009 13.2506C1.98502 13.2506 2.11447 13.4631 2.18844 13.888C2.66925 17.0391 4.23189 18.6146 6.87637 18.6146C8.00443 18.6146 8.87359 18.3137 9.48385 17.7118C10.1126 17.0922 10.427 16.2247 10.427 15.1095C10.427 14.1181 10.1219 13.2772 9.51159 12.5868C8.91982 11.8787 7.89347 11.1794 6.43254 10.489C4.67572 9.65695 3.45519 8.85147 2.77096 8.07254C2.08673 7.29361 1.74461 6.3288 1.74461 5.17811C1.74461 3.70877 2.23467 2.49611 3.21479 1.54016C4.2134 0.584197 5.47091 0.106217 6.98732 0.106217C7.61608 0.106217 8.48524 0.309802 9.59481 0.716969C9.98316 0.858593 10.2698 0.929405 10.4547 0.929405C10.6581 0.929405 10.7876 0.893999 10.8431 0.823187C10.917 0.752375 10.9818 0.566494 11.0372 0.265544C11.0742 0.0885146 11.1759 0 11.3424 0C11.5273 0 11.6198 0.106218 11.6198 0.318653C11.6198 0.460277 11.6105 0.566494 11.592 0.637305C11.5366 1.06218 11.5088 1.57556 11.5088 2.17746C11.5088 3.0272 11.555 3.69991 11.6475 4.1956L11.6753 4.62047C11.6937 4.8152 11.6105 4.91256 11.4256 4.91256C11.2222 4.91256 11.0835 4.70898 11.0095 4.30181C10.8061 3.25734 10.3253 2.3899 9.56707 1.69948C8.80887 0.991364 7.9582 0.637305 7.01506 0.637305C6.09042 0.637305 5.35071 0.920552 4.79592 1.48705C4.25963 2.05354 3.99149 2.82362 3.99149 3.79728C3.99149 4.93027 4.38908 5.84197 5.18427 6.53238C5.6281 6.92185 6.58973 7.47064 8.06915 8.17876C9.80748 9.0108 11.0557 9.86054 11.8139 10.728C12.5722 11.5777 12.9513 12.5514 12.9513 13.649Z" fill="#262626"/>
<path d="M147.478 31.5154C147.397 31.4252 147.29 31.3383 147.155 31.2547C147.021 31.171 146.87 31.0969 146.701 31.0326C146.533 30.9617 146.348 30.907 146.147 30.8684C145.952 30.8233 145.747 30.8008 145.531 30.8008C144.98 30.8008 144.573 30.9006 144.311 31.1002C144.049 31.2997 143.917 31.5733 143.917 31.9209C143.917 32.1655 143.985 32.3587 144.119 32.5003C144.254 32.6419 144.459 32.7578 144.735 32.8479C145.017 32.938 145.373 33.0314 145.804 33.1279C146.301 33.2309 146.732 33.3565 147.095 33.5045C147.458 33.6526 147.737 33.8522 147.932 34.1032C148.127 34.3478 148.225 34.6761 148.225 35.0881C148.225 35.4165 148.157 35.7029 148.023 35.9475C147.895 36.1857 147.714 36.3853 147.478 36.5462C147.243 36.7007 146.967 36.8166 146.651 36.8938C146.335 36.9647 145.992 37.0001 145.622 37.0001C145.259 37.0001 144.903 36.9647 144.553 36.8938C144.21 36.8166 143.884 36.7072 143.575 36.5655C143.265 36.4239 142.976 36.2469 142.707 36.0344L143.141 35.3006C143.248 35.41 143.386 35.5194 143.554 35.6289C143.729 35.7319 143.924 35.8284 144.139 35.9186C144.361 36.0087 144.6 36.0827 144.856 36.1407C145.111 36.1922 145.373 36.2179 145.642 36.2179C146.153 36.2179 146.55 36.131 146.833 35.9572C147.115 35.7769 147.256 35.5162 147.256 35.175C147.256 34.9175 147.176 34.7116 147.014 34.5571C146.86 34.4026 146.628 34.2738 146.318 34.1708C146.009 34.0678 145.632 33.9648 145.188 33.8618C144.704 33.7459 144.297 33.6204 143.968 33.4852C143.638 33.3436 143.39 33.1601 143.221 32.9348C143.06 32.7095 142.979 32.4166 142.979 32.0561C142.979 31.6184 143.09 31.2482 143.312 30.9457C143.534 30.6431 143.84 30.4146 144.23 30.2601C144.62 30.1056 145.061 30.0283 145.552 30.0283C145.874 30.0283 146.174 30.0605 146.449 30.1249C146.732 30.1893 146.994 30.2794 147.236 30.3953C147.478 30.5111 147.7 30.6495 147.902 30.8105L147.478 31.5154Z" fill="#262626"/>
<path d="M139.407 36.16V36.9325H134.545V30.0767H139.316V30.8492H135.453V33.0701H138.812V33.7943H135.453V36.16H139.407Z" fill="#262626"/>
<path d="M129.301 36.9325V30.0767H130.209V36.9325H129.301Z" fill="#262626"/>
<path d="M120.049 36.9325V30.0767H123.115C123.431 30.0767 123.72 30.141 123.983 30.2698C124.245 30.3921 124.474 30.5595 124.669 30.7719C124.864 30.9779 125.015 31.2129 125.123 31.4768C125.23 31.7343 125.284 31.9982 125.284 32.2686C125.284 32.584 125.22 32.8834 125.092 33.1666C124.971 33.4499 124.796 33.6913 124.568 33.8908C124.346 34.0904 124.084 34.2288 123.781 34.3061L125.516 36.9325H124.487L122.853 34.4702H120.957V36.9325H120.049ZM120.957 33.6977H123.125C123.374 33.6977 123.589 33.6333 123.771 33.5046C123.959 33.3694 124.104 33.1924 124.205 32.9735C124.312 32.7546 124.366 32.5197 124.366 32.2686C124.366 32.0111 124.306 31.7761 124.184 31.5637C124.063 31.3448 123.905 31.171 123.71 31.0423C123.515 30.9135 123.3 30.8492 123.065 30.8492H120.957V33.6977Z" fill="#262626"/>
<path d="M112.785 36.9807C112.281 36.9807 111.823 36.8842 111.413 36.6911C111.003 36.4979 110.647 36.2372 110.344 35.9089C110.048 35.5742 109.819 35.2008 109.658 34.7888C109.497 34.3704 109.416 33.9423 109.416 33.5045C109.416 33.0475 109.5 32.6129 109.668 32.201C109.843 31.7825 110.082 31.4124 110.384 31.0905C110.694 30.7622 111.053 30.5047 111.464 30.318C111.874 30.1249 112.321 30.0283 112.805 30.0283C113.31 30.0283 113.767 30.1281 114.177 30.3277C114.587 30.5272 114.94 30.7944 115.236 31.1291C115.532 31.4639 115.761 31.8372 115.922 32.2492C116.084 32.6612 116.164 33.0829 116.164 33.5142C116.164 33.9712 116.08 34.409 115.912 34.8274C115.744 35.2394 115.505 35.6096 115.196 35.9379C114.893 36.2598 114.537 36.514 114.127 36.7007C113.716 36.8874 113.269 36.9807 112.785 36.9807ZM110.334 33.5045C110.334 33.8522 110.391 34.1901 110.505 34.5184C110.626 34.8403 110.795 35.1268 111.01 35.3778C111.225 35.6289 111.484 35.8284 111.786 35.9765C112.089 36.1246 112.425 36.1986 112.795 36.1986C113.178 36.1986 113.521 36.1213 113.824 35.9669C114.127 35.8124 114.382 35.6064 114.591 35.3489C114.806 35.0914 114.967 34.8017 115.075 34.4798C115.189 34.1579 115.246 33.8328 115.246 33.5045C115.246 33.1569 115.186 32.8222 115.065 32.5003C114.95 32.1784 114.782 31.892 114.56 31.6409C114.345 31.3834 114.086 31.1838 113.784 31.0422C113.488 30.8942 113.158 30.8201 112.795 30.8201C112.412 30.8201 112.069 30.8974 111.766 31.0519C111.464 31.1999 111.205 31.4027 110.99 31.6602C110.781 31.9177 110.62 32.2074 110.505 32.5293C110.391 32.8447 110.334 33.1698 110.334 33.5045Z" fill="#262626"/>
<path d="M104.637 36.9325V31.6989L102.276 35.7255H101.722L99.3512 31.6989V36.9325H98.4434V30.0767H99.4016L101.994 34.5281L104.596 30.0767H105.545V36.9325H104.637Z" fill="#262626"/>
<path d="M94.5748 36.16V36.9325H89.7129V30.0767H94.484V30.8492H90.6207V33.0701H93.9797V33.7943H90.6207V36.16H94.5748Z" fill="#262626"/>
<path d="M84.4669 36.9325V31.6989L82.1065 35.7255H81.5517L79.1813 31.6989V36.9325H78.2734V30.0767H79.2317L81.8241 34.5281L84.4265 30.0767H85.3747V36.9325H84.4669Z" fill="#262626"/>
<path d="M63.2559 36.9325V30.0767H65.7373C66.5039 30.0767 67.1427 30.2312 67.6538 30.5402C68.1716 30.8427 68.5583 31.2547 68.8138 31.7761C69.0693 32.2911 69.1971 32.8641 69.1971 33.4949C69.1971 34.1902 69.0559 34.7953 68.7734 35.3103C68.491 35.8253 68.0909 36.2244 67.5731 36.5077C67.0553 36.7909 66.4433 36.9325 65.7373 36.9325H63.2559ZM68.2792 33.4949C68.2792 32.9799 68.1783 32.5229 67.9766 32.1238C67.7816 31.7246 67.4958 31.4124 67.1192 31.1871C66.7426 30.9618 66.282 30.8492 65.7373 30.8492H64.1637V36.16H65.7373C66.2887 36.16 66.7527 36.0442 67.1293 35.8124C67.5058 35.5742 67.7916 35.2556 67.9867 34.8565C68.1817 34.4509 68.2792 33.9971 68.2792 33.4949Z" fill="#262626"/>
<path d="M59.3893 36.16V36.9325H54.5273V30.0767H59.2985V30.8492H55.4352V33.0701H58.7941V33.7943H55.4352V36.16H59.3893Z" fill="#262626"/>
<path d="M43.9459 30.1153H44.8033L45.7514 32.5004L46.7097 30.1153H47.5671L46.3264 33.099L47.557 35.9283L49.9779 30.0767H50.9664L47.9706 36.9325H47.1838L45.7615 33.6977L44.3292 36.9325H43.5424L40.5566 30.0767H41.5351L43.966 35.9283L45.1866 33.099L43.9459 30.1153Z" fill="#262626"/>
<path d="M32.6354 36.16V36.9325H27.7734V30.0767H32.5446V30.8492H28.6813V33.0701H32.0402V33.7943H28.6813V36.16H32.6354Z" fill="#262626"/>
<path d="M18.4973 30.0767L20.8678 35.8414L23.2281 30.0767H24.1864L21.2813 36.9325H20.4542L17.5391 30.0767H18.4973Z" fill="#262626"/>
<path d="M11.6072 30.0767H12.3738L15.299 36.9325H14.3307L13.4834 34.924H10.4774L9.64023 36.9325H8.67188L11.6072 30.0767ZM13.2816 34.2481L11.9905 31.0809L10.659 34.2481H13.2816Z" fill="#262626"/>
<path d="M5.00357 31.5154C4.92287 31.4252 4.81528 31.3383 4.68079 31.2547C4.54629 31.171 4.39499 31.0969 4.22687 31.0326C4.05875 30.9617 3.87383 30.907 3.67209 30.8684C3.47707 30.8233 3.27197 30.8008 3.05678 30.8008C2.50536 30.8008 2.09852 30.9006 1.83625 31.1002C1.57399 31.2997 1.44286 31.5733 1.44286 31.9209C1.44286 32.1655 1.51011 32.3587 1.6446 32.5003C1.77909 32.6419 1.9842 32.7578 2.25991 32.8479C2.54234 32.938 2.89875 33.0314 3.32913 33.1279C3.82675 33.2309 4.25713 33.3565 4.62026 33.5045C4.9834 33.6526 5.26247 33.8522 5.45748 34.1032C5.6525 34.3478 5.75001 34.6761 5.75001 35.0881C5.75001 35.4165 5.68276 35.7029 5.54827 35.9475C5.4205 36.1857 5.23893 36.3853 5.00357 36.5462C4.76821 36.7007 4.49249 36.8166 4.17644 36.8938C3.86038 36.9647 3.51742 37.0001 3.14756 37.0001C2.78443 37.0001 2.42802 36.9647 2.07834 36.8938C1.73538 36.8166 1.40924 36.7072 1.0999 36.5655C0.790569 36.4239 0.501408 36.2469 0.232422 36.0344L0.666163 35.3006C0.773757 35.41 0.911613 35.5194 1.07973 35.6289C1.25457 35.7319 1.44959 35.8284 1.66477 35.9186C1.88669 36.0087 2.12541 36.0827 2.38095 36.1407C2.63649 36.1922 2.89875 36.2179 3.16774 36.2179C3.67881 36.2179 4.07557 36.131 4.358 35.9572C4.64044 35.7769 4.78166 35.5162 4.78166 35.175C4.78166 34.9175 4.70096 34.7116 4.53957 34.5571C4.3849 34.4026 4.1529 34.2738 3.84357 34.1708C3.53423 34.0678 3.15765 33.9648 2.71382 33.8618C2.22965 33.7459 1.8228 33.6204 1.4933 33.4852C1.16379 33.3436 0.914975 33.1601 0.746859 32.9348C0.585467 32.7095 0.504771 32.4166 0.504771 32.0561C0.504771 31.6184 0.615728 31.2482 0.837641 30.9457C1.05956 30.6431 1.36553 30.4146 1.75556 30.2601C2.14559 30.1056 2.58605 30.0283 3.07695 30.0283C3.39974 30.0283 3.69898 30.0605 3.9747 30.1249C4.25713 30.1893 4.51939 30.2794 4.76148 30.3953C5.00357 30.5111 5.22548 30.6495 5.42722 30.8105L5.00357 31.5154Z" fill="#262626"/>
</svg>
