<svg width="46" height="49" viewBox="0 0 46 49" fill="none" xmlns="http://www.w3.org/2000/svg">
<path fill-rule="evenodd" clip-rule="evenodd" d="M33.3418 0.0359504C33.2944 -0.0119828 33.2175 -0.0119836 33.1701 0.0359488C33.1254 0.0811597 33.1229 0.152867 33.1625 0.201087L33.1645 0.206178C33.1686 0.217398 33.1736 0.235349 33.1789 0.261559C33.1896 0.31377 33.1992 0.387288 33.2074 0.481295C33.2205 0.62968 33.2294 0.821456 33.2349 1.04594C33.1397 0.998476 33.0368 0.930373 32.9511 0.841183C32.8171 0.70159 32.7278 0.514235 32.7688 0.265657C32.7798 0.198792 32.7351 0.135554 32.669 0.12441C32.6029 0.113266 32.5404 0.158436 32.5294 0.225301C32.4732 0.565874 32.6007 0.828565 32.777 1.01219C32.825 1.06224 32.8769 1.10669 32.93 1.14577C32.8359 1.14377 32.7373 1.1341 32.6402 1.11343C32.3834 1.05873 32.1528 0.931201 32.0294 0.681547C31.9994 0.620917 31.9265 0.596341 31.8666 0.626656C31.8066 0.656972 31.7823 0.730698 31.8123 0.791329C31.9801 1.13083 32.2899 1.28969 32.5902 1.35364C32.8217 1.40294 33.0567 1.39834 33.2403 1.37337C33.2525 2.61896 33.1869 4.50497 33.1347 5.64032C33.1316 5.70804 33.1833 5.76548 33.2503 5.76863C33.3173 5.77178 33.3741 5.71944 33.3772 5.65173C33.4304 4.495 33.4977 2.55391 33.4823 1.3019C33.6481 1.2128 33.8622 1.07512 34.0359 0.91238C34.1352 0.819227 34.2263 0.713314 34.2861 0.598891C34.3462 0.483689 34.3783 0.351974 34.3447 0.215711C34.3284 0.149948 34.2625 0.109964 34.1975 0.126404C34.1324 0.142845 34.0929 0.209484 34.1092 0.275248C34.124 0.335368 34.1132 0.404128 34.0714 0.484286C34.0291 0.565224 33.9592 0.649558 33.8708 0.732332C33.7512 0.844506 33.6068 0.94546 33.4771 1.02326C33.4715 0.802846 33.4625 0.611178 33.4492 0.459613C33.4407 0.361818 33.4301 0.277636 33.4167 0.212019C33.41 0.179316 33.4021 0.14832 33.3922 0.121284C33.3835 0.0972013 33.3686 0.0631322 33.3418 0.0359504ZM41.8311 2.11416C42.4979 1.69579 43.3265 1.36296 44.2473 1.3505L44.2486 1.35191C44.2822 1.57085 44.3519 1.88054 44.461 2.14429C44.5186 2.28371 44.5902 2.41766 44.6787 2.5187C44.7671 2.61974 44.8839 2.70027 45.029 2.70027C45.096 2.70027 45.1504 2.64532 45.1504 2.57753C45.1504 2.50975 45.096 2.45479 45.029 2.45479C44.9799 2.45479 44.9239 2.42853 44.8605 2.35602C44.797 2.28351 44.7377 2.17716 44.6849 2.04958C44.6328 1.92341 44.5899 1.78366 44.5564 1.64956C44.6969 1.77051 44.857 1.88956 45.023 1.98197C45.3079 2.14063 45.6532 2.24377 45.9411 2.06908C45.9985 2.03421 46.0172 1.95881 45.9827 1.90069C45.9482 1.84256 45.8736 1.82371 45.8162 1.85859C45.6475 1.96096 45.4108 1.91771 45.1401 1.76694C44.922 1.64549 44.7095 1.46892 44.5459 1.3083C44.7224 1.28049 44.9336 1.25518 45.1378 1.24568C45.2878 1.23869 45.4308 1.24041 45.5518 1.25492C45.6761 1.26985 45.7627 1.29674 45.8113 1.32952C45.8671 1.36712 45.9424 1.35188 45.9796 1.29548C46.0168 1.23908 46.0017 1.16287 45.9459 1.12527C45.8489 1.05986 45.716 1.02743 45.5804 1.01116C45.4414 0.994478 45.284 0.993127 45.1266 1.00046C44.9351 1.00938 44.7387 1.0314 44.5678 1.05669C44.6568 0.940714 44.7651 0.81548 44.8841 0.703567C45.0973 0.502979 45.3205 0.368219 45.5145 0.368219C45.5815 0.368219 45.6359 0.313267 45.6359 0.245479C45.6359 0.177692 45.5815 0.12274 45.5145 0.12274C45.223 0.12274 44.9405 0.315286 44.7188 0.52383C44.5161 0.714466 44.344 0.937883 44.2343 1.10518C43.2614 1.12061 42.3934 1.47245 41.7032 1.90557C40.9977 2.34818 40.4709 2.87994 40.1991 3.23941C40.1584 3.29326 40.1685 3.37029 40.2218 3.41147C40.275 3.45265 40.3512 3.44238 40.3919 3.38853C40.646 3.05248 41.1509 2.54095 41.8311 2.11416ZM22.2969 2.78706C22.3443 2.73913 22.3443 2.66142 22.2969 2.61348C22.2495 2.56555 22.1727 2.56555 22.1253 2.61348C21.8446 2.89727 21.7955 3.30109 21.8324 3.66407C21.8637 3.97166 21.9584 4.26955 22.0509 4.4842C20.0455 5.51088 19.4607 7.55084 19.4197 8.46346C19.4166 8.53118 19.4684 8.58857 19.5354 8.59165C19.6024 8.59473 19.6591 8.54233 19.6622 8.47461C19.7011 7.60867 20.2705 5.63321 22.2263 4.67019C22.4148 4.70959 22.6877 4.74785 22.9442 4.74387C23.0821 4.74174 23.2209 4.72736 23.3413 4.69127C23.4602 4.65566 23.5763 4.59428 23.6472 4.48671C23.6843 4.43031 23.6693 4.3541 23.6135 4.3165C23.5577 4.2789 23.4824 4.29414 23.4452 4.35054C23.419 4.39026 23.3652 4.4281 23.2724 4.45591C23.1812 4.48323 23.0666 4.49647 22.9405 4.49842C22.8176 4.50033 22.6891 4.49148 22.5694 4.47733C22.7455 4.37315 22.9399 4.25241 23.1135 4.13367C23.2543 4.03739 23.3847 3.94016 23.4812 3.85253C23.5293 3.80893 23.5723 3.76467 23.6042 3.72153C23.6329 3.68279 23.6676 3.6256 23.6676 3.55945C23.6676 3.49166 23.6132 3.43671 23.5462 3.43671C23.4822 3.43671 23.4298 3.48679 23.4251 3.55032C23.4237 3.55332 23.4197 3.56113 23.4099 3.57439C23.3914 3.59932 23.3614 3.63139 23.3191 3.66988C23.2348 3.74642 23.1149 3.83636 22.9775 3.93033C22.7821 4.064 22.558 4.20124 22.3656 4.31307C22.394 4.1531 22.4373 3.97482 22.4972 3.81864C22.5438 3.69722 22.5975 3.59696 22.6563 3.52906C22.7143 3.46202 22.7677 3.43671 22.8179 3.43671C22.885 3.43671 22.9393 3.38176 22.9393 3.31397C22.9393 3.24618 22.885 3.19123 22.8179 3.19123C22.674 3.19123 22.5595 3.26821 22.4736 3.36737C22.3885 3.46569 22.3224 3.59556 22.2709 3.72985C22.2274 3.84323 22.1922 3.96533 22.1645 4.08447C22.1233 3.94573 22.0896 3.79307 22.0739 3.63894C22.0401 3.30639 22.0921 2.99423 22.2969 2.78706ZM29.9382 7.94708C29.9883 7.90204 29.9928 7.82446 29.9482 7.7738C29.9037 7.72313 29.827 7.71857 29.7769 7.7636L28.7366 8.69873C26.3787 7.93833 24.2485 9.06062 23.468 9.72529C23.4167 9.76895 23.4102 9.84638 23.4533 9.89824C23.4965 9.95009 23.5731 9.95672 23.6244 9.91306C24.3687 9.2792 26.4219 8.2014 28.6796 8.93806C28.7855 9.14623 28.9539 9.44044 29.1438 9.70162C29.2459 9.84208 29.3563 9.97591 29.4685 10.0822C29.5785 10.1863 29.701 10.2743 29.8281 10.3065C29.8931 10.3229 29.959 10.2829 29.9753 10.2172C29.9915 10.1514 29.952 10.0848 29.887 10.0683C29.8199 10.0514 29.734 9.99726 29.6344 9.90294C29.537 9.81075 29.4365 9.6899 29.3394 9.55623C29.2553 9.44062 29.1753 9.31761 29.1036 9.19905C29.2115 9.25803 29.3285 9.31474 29.449 9.36266C29.7482 9.48163 30.1 9.55873 30.3881 9.44218C30.4503 9.417 30.4806 9.34557 30.4557 9.28263C30.4308 9.21969 30.3602 9.18908 30.2979 9.21426C30.1006 9.29409 29.8252 9.24845 29.5378 9.1342C29.3572 9.06239 29.1838 8.9683 29.0418 8.87903C29.1941 8.83439 29.3715 8.78776 29.545 8.75192C29.6833 8.72336 29.8165 8.70218 29.9311 8.69388C30.0491 8.68532 30.134 8.69161 30.1833 8.70822C30.2468 8.72965 30.3156 8.6949 30.3368 8.63059C30.358 8.56628 30.3236 8.49677 30.26 8.47534C30.1636 8.44285 30.0391 8.43993 29.9137 8.44902C29.7848 8.45836 29.6404 8.48168 29.4964 8.51141C29.4127 8.5287 29.3284 8.54834 29.2462 8.56904L29.9382 7.94708ZM36.2547 9.90596C36.3021 9.85803 36.3021 9.78032 36.2547 9.73238C36.2073 9.68445 36.1304 9.68445 36.083 9.73238C35.8525 9.9655 35.7925 10.3368 35.7956 10.6734C35.7986 10.9911 35.8581 11.3087 35.9171 11.5233C35.8243 11.6836 35.642 11.8656 35.3895 12.0587C35.1186 12.2656 34.7799 12.4756 34.4176 12.6756C33.6931 13.0754 32.885 13.4291 32.3628 13.6323C32.3002 13.6566 32.269 13.7276 32.293 13.7909C32.3171 13.8542 32.3873 13.8857 32.4499 13.8614C32.9795 13.6554 33.7978 13.2973 34.5339 12.8911C34.9018 12.688 35.2519 12.4715 35.5358 12.2545C35.7766 12.0705 35.9797 11.8788 36.1022 11.6873C36.3248 11.765 36.6266 11.8574 36.906 11.9155C37.0666 11.9489 37.2248 11.9721 37.3584 11.9733C37.4253 11.9738 37.4902 11.9689 37.5481 11.955C37.6051 11.9412 37.665 11.9164 37.7111 11.8698C37.7585 11.8219 37.7585 11.7442 37.7111 11.6962C37.6637 11.6483 37.5869 11.6483 37.5395 11.6962C37.5371 11.6987 37.5252 11.7081 37.4919 11.7162C37.4596 11.7239 37.4159 11.7282 37.3604 11.7278C37.2496 11.7269 37.1089 11.7071 36.9549 11.6751C36.8144 11.6458 36.6669 11.6072 36.5273 11.5662C36.6374 11.536 36.754 11.4984 36.8711 11.4525C37.1802 11.3315 37.5066 11.1477 37.7201 10.8778C37.762 10.8248 37.7535 10.7476 37.7011 10.7052C37.6488 10.6629 37.5724 10.6715 37.5306 10.7244C37.3557 10.9454 37.0752 11.1094 36.7835 11.2236C36.6078 11.2924 36.4331 11.3412 36.2844 11.3733C36.3739 11.228 36.4823 11.0663 36.5946 10.9235C36.6827 10.8116 36.7701 10.7152 36.8499 10.648C36.9348 10.5767 36.9907 10.5556 37.0185 10.5556C37.0855 10.5556 37.1398 10.5007 37.1398 10.4329C37.1398 10.3651 37.0855 10.3101 37.0185 10.3101C36.9006 10.3101 36.7876 10.3811 36.6947 10.4593C36.5968 10.5417 36.4976 10.6525 36.4046 10.7707C36.2928 10.9129 36.1856 11.0714 36.0954 11.216C36.064 11.0513 36.0401 10.8604 36.0384 10.6711C36.0354 10.3489 36.0968 10.0656 36.2547 9.90596ZM3.2334 14.2663C3.1819 14.2229 3.10537 14.2299 3.06246 14.282C3.01955 14.334 3.0265 14.4114 3.078 14.4548C3.34098 14.6765 3.47258 14.9842 3.52789 15.288C3.55062 15.4128 3.5601 15.5352 3.56082 15.6479C3.49544 15.531 3.42065 15.4086 3.33973 15.293C3.24992 15.1647 3.15047 15.0417 3.04571 14.9431C2.9424 14.8459 2.82534 14.7642 2.69965 14.7324C2.63462 14.716 2.56872 14.756 2.55246 14.8217C2.53621 14.8875 2.57574 14.9541 2.64078 14.9706C2.70928 14.9879 2.79046 15.0382 2.88034 15.1228C2.96876 15.206 3.05743 15.3146 3.14159 15.4349C3.2588 15.6023 3.36319 15.7864 3.44227 15.9431C3.31092 15.9272 3.15553 15.8955 3.00204 15.8405C2.75855 15.7532 2.53547 15.6132 2.41017 15.402C2.37568 15.3439 2.30113 15.3251 2.24365 15.36C2.18617 15.3948 2.16753 15.4702 2.20202 15.5283C2.36802 15.8081 2.65065 15.975 2.92097 16.0718C3.01555 16.1057 3.11055 16.1318 3.20154 16.1513C2.89142 16.2562 2.45084 16.3265 1.97142 16.2053C1.90639 16.1889 1.84049 16.2288 1.82423 16.2946C1.80798 16.3604 1.84751 16.427 1.91254 16.4435C2.68128 16.6378 3.35924 16.392 3.65703 16.2137C3.93861 16.3164 4.29116 16.5618 4.68552 16.9104C5.10092 17.2776 5.55076 17.7483 5.99602 18.2561C6.66138 19.015 7.39034 20.1165 7.93496 20.9395C8.07654 21.1534 8.20566 21.3486 8.31797 21.5139C8.31256 21.5226 8.3072 21.5313 8.30188 21.54C7.78248 21.0469 6.43622 20.1485 5.10721 20.0171C5.09958 19.7595 4.94469 19.3497 4.44712 18.9304C4.39562 18.887 4.31909 18.894 4.27618 18.9461C4.23327 18.9981 4.24022 19.0755 4.29172 19.1189C4.72628 19.4852 4.84267 19.8108 4.86153 19.9864C4.72084 19.959 4.54937 19.912 4.39449 19.8423C4.17972 19.7456 4.03565 19.6232 4.00168 19.4858C3.98542 19.4201 3.91952 19.3801 3.85449 19.3965C3.78946 19.413 3.74993 19.4796 3.76618 19.5454C3.82931 19.8007 4.06959 19.9648 4.2958 20.0665C4.41764 20.1214 4.5468 20.1633 4.6667 20.1939C4.44757 20.3006 4.10332 20.3807 3.67453 20.2568C3.61008 20.2381 3.5429 20.2759 3.52449 20.3411C3.50607 20.4062 3.54339 20.4742 3.60784 20.4928C4.09054 20.6323 4.49024 20.5489 4.75976 20.4209C4.6485 20.6612 4.43593 20.9404 4.0724 21.1242C4.01244 21.1545 3.98814 21.2282 4.01812 21.2889C4.04809 21.3495 4.121 21.3741 4.18095 21.3437C4.73604 21.0631 4.9924 20.5871 5.07395 20.2604C6.39487 20.3877 7.72264 21.3616 8.15411 21.8098C8.13567 21.8473 8.11811 21.8848 8.10142 21.9219C7.46341 21.797 6.21215 21.7549 5.08751 21.8791C4.00062 21.9991 2.8416 22.3234 1.95254 23.0312C1.63426 22.7231 0.928469 22.3325 0.0721084 22.7174C0.010854 22.7449 -0.0167331 22.8175 0.0104911 22.8794C0.0377153 22.9414 0.109441 22.9693 0.170696 22.9417C0.754427 22.6794 1.25543 22.835 1.57209 23.0401C1.3684 23.0368 1.13812 23.0567 0.918881 23.1196C0.597017 23.212 0.284171 23.4022 0.131216 23.7631C0.104811 23.8255 0.133351 23.8976 0.194963 23.9243C0.256575 23.951 0.327927 23.9222 0.354333 23.8598C0.468393 23.5907 0.704719 23.4362 0.985145 23.3558C1.2011 23.2938 1.43442 23.2788 1.63492 23.2876C1.56867 23.4139 1.47342 23.5695 1.35198 23.7257C1.17337 23.9554 0.943733 24.179 0.673983 24.3154C0.614028 24.3457 0.589726 24.4195 0.619703 24.4801C0.649681 24.5407 0.722586 24.5653 0.782541 24.535C1.09538 24.3768 1.35123 24.1238 1.5428 23.8775C1.67157 23.7119 1.77384 23.546 1.8468 23.4075C1.86364 23.6061 1.85914 23.8529 1.80552 24.0877C1.73318 24.4043 1.5774 24.6776 1.28731 24.8033C1.2257 24.83 1.19716 24.9022 1.22356 24.9645C1.24997 25.0268 1.32132 25.0557 1.38293 25.029C1.77252 24.8601 1.96063 24.4992 2.04203 24.1429C2.11561 23.8208 2.10686 23.4849 2.07299 23.248C2.91538 22.5637 4.03685 22.242 5.11386 22.1231C6.19775 22.0034 7.35986 22.1014 7.98248 22.2199C7.94438 22.3286 7.91512 22.4286 7.89454 22.5136L7.89339 22.5184L7.89261 22.5233C7.87533 22.6303 7.86417 22.7338 7.85842 22.8336C7.15959 23.0002 6.06284 23.3911 5.02862 24.0257C4.01725 24.6462 3.05144 25.5086 2.58773 26.636C2.30032 26.6456 1.74677 26.704 1.29004 26.8888C1.22781 26.9139 1.19754 26.9854 1.22243 27.0483C1.24733 27.1113 1.31796 27.1419 1.3802 27.1167C1.63192 27.0149 1.91994 26.954 2.16854 26.9195C2.11346 26.9592 2.05959 27.0009 2.00923 27.044C1.91274 27.1266 1.82302 27.2191 1.76361 27.3164C1.70478 27.4128 1.66497 27.5324 1.70547 27.6552C1.72666 27.7195 1.7954 27.7543 1.85899 27.7329C1.92258 27.7114 1.95695 27.6419 1.93575 27.5776C1.9277 27.5532 1.92936 27.5122 1.97015 27.4454C2.01037 27.3796 2.07843 27.3064 2.16603 27.2314C2.27187 27.1409 2.39738 27.0551 2.51468 26.984C2.48937 27.1271 2.45333 27.2874 2.40611 27.4343C2.3677 27.5537 2.32352 27.6592 2.27477 27.7383C2.22423 27.8204 2.1792 27.8571 2.14634 27.8682C2.08275 27.8896 2.04838 27.9592 2.06958 28.0235C2.09078 28.0878 2.15951 28.1225 2.22311 28.1011C2.33589 28.0631 2.41932 27.9679 2.48079 27.8681C2.54406 27.7655 2.59546 27.6392 2.63696 27.5102C2.67542 27.3905 2.70676 27.264 2.7314 27.1438C2.78073 27.2597 2.82645 27.3893 2.85879 27.5229C2.92786 27.8082 2.9299 28.0857 2.80888 28.2897C2.77439 28.3478 2.79303 28.4232 2.85051 28.4581C2.90799 28.493 2.98254 28.4741 3.01703 28.416C3.1873 28.129 3.16911 27.7724 3.09457 27.4645C3.02653 27.1835 2.9065 26.9215 2.80535 26.7462C3.23827 25.6796 4.15883 24.8465 5.15454 24.2356C6.13557 23.6336 7.17561 23.256 7.85489 23.0869C7.86241 23.3421 7.90543 23.5694 7.96968 23.7686C7.60649 23.9975 7.10435 24.3368 6.6676 24.6813C6.42883 24.8696 6.20686 25.0616 6.03736 25.2395C5.95261 25.3284 5.87906 25.4158 5.82275 25.4992C5.79631 25.5384 5.77252 25.5783 5.75306 25.6186C5.54021 25.5492 5.25102 25.4943 4.96044 25.518C4.60878 25.5467 4.24144 25.6931 4.02129 26.0827C3.98804 26.1415 4.00826 26.2165 4.06646 26.2501C4.12466 26.2838 4.1988 26.2633 4.23206 26.2044C4.4003 25.9067 4.68028 25.7871 4.97998 25.7627C5.14249 25.7494 5.30675 25.7648 5.45334 25.7937C5.30514 25.8675 5.14919 25.9644 5.01211 26.0845C4.76069 26.3048 4.55673 26.6191 4.61338 27.0201C4.62286 27.0872 4.68434 27.1338 4.7507 27.1242C4.81706 27.1146 4.86317 27.0525 4.85369 26.9854C4.81324 26.699 4.95317 26.461 5.17106 26.2701C5.31871 26.1407 5.4948 26.0403 5.65224 25.971C5.61052 26.1239 5.55482 26.3013 5.48859 26.4694C5.43745 26.5992 5.38112 26.7206 5.3216 26.8198C5.26077 26.9211 5.20262 26.989 5.1517 27.0233C5.09592 27.0609 5.08085 27.1371 5.11803 27.1936C5.15522 27.25 5.23057 27.2652 5.28635 27.2276C5.38107 27.1637 5.46149 27.0598 5.52911 26.9471C5.59804 26.8323 5.66005 26.6974 5.71409 26.5603C5.74293 26.4871 5.7698 26.4125 5.79451 26.3388C5.80972 26.4902 5.81711 26.6464 5.81083 26.7918C5.80353 26.9605 5.77815 27.1046 5.73218 27.2084C5.68737 27.3095 5.63 27.359 5.55933 27.3733C5.4936 27.3866 5.45098 27.4513 5.46412 27.5178C5.47727 27.5842 5.54121 27.6273 5.60694 27.614C5.77902 27.5792 5.88853 27.4559 5.95371 27.3087C6.01774 27.1642 6.04546 26.9846 6.05334 26.8025C6.0686 26.4495 6.01056 26.0491 5.95069 25.7769C5.96189 25.741 5.98477 25.6946 6.02321 25.6377C6.06931 25.5694 6.13306 25.4928 6.21216 25.4098C6.37036 25.2438 6.5823 25.0599 6.81688 24.8749C7.23009 24.549 7.70506 24.2262 8.05941 24.0013C8.21072 24.3362 8.41774 24.5681 8.58175 24.6947C7.5972 25.8246 6.32665 27.4668 6.19372 30.229C6.00678 30.3013 5.76215 30.4261 5.55207 30.5989C5.31276 30.7957 5.09765 31.0726 5.09765 31.4214C5.09765 31.4891 5.15199 31.5441 5.21902 31.5441C5.28605 31.5441 5.34039 31.4891 5.34039 31.4214C5.34039 31.181 5.4894 30.9669 5.70524 30.7893C5.79431 30.7161 5.89128 30.6521 5.98649 30.5981C5.91116 30.7395 5.84506 30.896 5.808 31.0521C5.77119 31.2071 5.76059 31.3718 5.80751 31.5236C5.85584 31.6799 5.9619 31.8115 6.13572 31.8994C6.19567 31.9297 6.26858 31.9051 6.29856 31.8445C6.32853 31.7838 6.30423 31.7101 6.24428 31.6798C6.12681 31.6204 6.06699 31.5402 6.0392 31.4503C6.01001 31.3559 6.01308 31.2398 6.04403 31.1094C6.09089 30.9121 6.19609 30.7053 6.30323 30.5397C6.36246 30.6471 6.42601 30.779 6.47667 30.9177C6.55753 31.1391 6.59709 31.3552 6.55774 31.5143C6.54148 31.5801 6.58102 31.6467 6.64605 31.6632C6.71108 31.6796 6.77698 31.6396 6.79323 31.5739C6.85098 31.3403 6.7894 31.0654 6.70438 30.8326C6.66865 30.7348 6.62726 30.6404 6.58498 30.5542C6.67745 30.6018 6.77456 30.6626 6.86626 30.7375C7.07028 30.904 7.24054 31.1341 7.28357 31.4387C7.29304 31.5058 7.35452 31.5525 7.42088 31.5429C7.48724 31.5333 7.53335 31.4711 7.52387 31.404C7.4698 31.0212 7.25571 30.7399 7.01875 30.5465C6.8226 30.3863 6.60603 30.2821 6.43692 30.2259C6.57142 27.5208 7.82557 25.9297 8.80319 24.812C8.86482 24.8368 8.93549 24.8623 9.01429 24.8872C8.74286 25.2819 8.4475 25.9211 8.48836 26.6616C8.19341 26.747 7.71901 27.0082 7.53132 27.5776C7.51012 27.6419 7.54449 27.7114 7.60808 27.7329C7.67167 27.7543 7.74041 27.7195 7.7616 27.6552C7.86712 27.3351 8.085 27.132 8.28873 27.0131C8.24113 27.0912 8.19455 27.1754 8.15309 27.2624C8.04268 27.4941 7.95469 27.7737 8.0142 28.0144C8.03046 28.0802 8.09636 28.1202 8.16139 28.1037C8.22642 28.0873 8.26595 28.0206 8.2497 27.9549C8.21211 27.8028 8.26572 27.5915 8.37176 27.369C8.41953 27.2688 8.47516 27.172 8.53066 27.0854C8.5384 27.1818 8.54466 27.2876 8.5477 27.3959C8.5547 27.6459 8.54407 27.8981 8.49969 28.0776C8.48343 28.1434 8.52297 28.21 8.588 28.2265C8.65303 28.2429 8.71893 28.2029 8.73518 28.1372C8.7879 27.9239 8.7975 27.6442 8.79034 27.389C8.78746 27.2861 8.7818 27.1855 8.7747 27.0923C8.80802 27.1345 8.84025 27.1797 8.86939 27.2271C8.97051 27.3915 9.02203 27.5603 8.98518 27.7094C8.96892 27.7752 9.00846 27.8418 9.07349 27.8582C9.11752 27.8694 9.16195 27.8546 9.19109 27.8235C9.00644 29.1169 8.79552 30.3999 8.51651 31.6588C8.03445 33.8337 7.41266 35.9639 6.79131 38.0927L6.57593 38.8314C6.31234 39.7374 6.03668 40.6358 5.76108 41.5339C5.02304 43.9391 4.28544 46.3429 3.78113 48.8896L4.19107 49C4.6 47.0137 5.41465 44.1198 6.14984 41.7239C6.42714 40.8202 6.70586 39.9119 6.97436 38.989C7.0457 38.7438 7.11734 38.4983 7.18908 38.2526L7.18982 38.25C7.81051 36.1237 8.43758 33.9754 8.92385 31.7815C9.38549 29.6987 9.66325 27.549 9.93778 25.4243L9.98422 25.0652C10.0723 25.0709 10.1631 25.074 10.2562 25.074C10.2817 25.074 10.3075 25.0738 10.3333 25.0734C10.3603 25.4275 10.4226 25.87 10.5389 26.3275C10.6967 26.948 10.9567 27.6074 11.3724 28.1105C11.2523 28.2718 11.1107 28.513 11.0095 28.7995C10.8889 29.1408 10.8225 29.5551 10.9271 29.9782C10.9434 30.044 11.0093 30.084 11.0743 30.0676C11.1393 30.0511 11.1789 29.9845 11.1626 29.9187C11.073 29.5564 11.1281 29.1933 11.2381 28.8821C11.2658 28.8035 11.2969 28.7288 11.3296 28.6589C11.3305 28.7497 11.3375 28.8443 11.3529 28.9402C11.4085 29.2872 11.5736 29.6571 11.9453 29.9256C11.9998 29.965 12.0757 29.9522 12.1146 29.8971C12.1536 29.8419 12.1409 29.7653 12.0864 29.7259C11.7785 29.5034 11.6401 29.1983 11.5925 28.9009C11.5574 28.6817 11.5724 28.4696 11.6045 28.3059C11.7427 28.4063 11.9064 28.5429 12.0484 28.6973C12.2467 28.9129 12.38 29.1386 12.38 29.3348C12.38 29.4026 12.4343 29.4575 12.5013 29.4575C12.5684 29.4575 12.6227 29.4026 12.6227 29.3348C12.6227 29.04 12.4323 28.7543 12.2261 28.5301C12.1111 28.4051 11.984 28.2915 11.8648 28.1968C12.0441 28.1898 12.2395 28.2009 12.4108 28.2448C12.5509 28.2807 12.6653 28.3361 12.7433 28.4121C12.8179 28.4848 12.8655 28.5822 12.8655 28.7211C12.8655 28.7889 12.9198 28.8438 12.9868 28.8438C13.0539 28.8438 13.1082 28.7889 13.1082 28.7211C13.1082 28.5163 13.0344 28.3549 12.9118 28.2354C12.7925 28.1191 12.6338 28.0487 12.4705 28.0068C12.1726 27.9305 11.8273 27.9411 11.5778 27.976C11.1839 27.5101 10.93 26.8798 10.774 26.2664C10.6622 25.8266 10.6022 25.4015 10.576 25.0626C10.7265 25.0516 10.8817 25.0321 11.0401 25.0023C11.2983 24.9538 11.5067 24.8572 11.6741 24.731C12.14 25.0789 12.717 25.5459 13.2715 26.0649C14.0086 26.7547 14.6943 27.5256 15.0341 28.2242C14.821 28.6101 14.5506 29.4823 14.9392 30.3666C14.9665 30.4285 15.0382 30.4564 15.0994 30.4289C15.1607 30.4013 15.1883 30.3288 15.1611 30.2669C14.9122 29.7007 14.9663 29.136 15.0857 28.7359C15.0961 28.8172 15.109 28.9023 15.125 28.989C15.1808 29.2918 15.2752 29.6253 15.4316 29.8889C15.466 29.947 15.5406 29.9659 15.5981 29.931C15.6556 29.8961 15.6742 29.8207 15.6397 29.7626C15.5048 29.5352 15.4171 29.2346 15.3637 28.9441C15.3336 28.7809 15.3149 28.6242 15.3044 28.4906C15.435 28.5972 15.5831 28.7244 15.7197 28.8537C15.8281 28.9562 15.9274 29.0584 16.0049 29.1514C16.0847 29.2474 16.1321 29.3232 16.1487 29.3736C16.1699 29.4379 16.2387 29.4727 16.3022 29.4512C16.3658 29.4298 16.4002 29.3603 16.379 29.296C16.3471 29.1991 16.2741 29.0938 16.1906 28.9934C16.1047 28.8901 15.9977 28.7806 15.8856 28.6744C15.7776 28.5723 15.6632 28.4718 15.5553 28.3811C15.693 28.3996 15.8441 28.4286 15.9945 28.4711C16.3114 28.5606 16.6054 28.705 16.7759 28.9205C16.8178 28.9734 16.8942 28.982 16.9465 28.9397C16.9989 28.8973 17.0074 28.8201 16.9655 28.7671C16.7476 28.4917 16.3944 28.3292 16.0599 28.2347C15.7606 28.1501 15.4603 28.1154 15.2484 28.1087C14.8865 27.3691 14.1749 26.5758 13.4364 25.8847C12.8906 25.3739 12.3238 24.9131 11.8585 24.5636C12.0109 24.398 12.1157 24.2043 12.1851 24.0089C12.5682 24.0874 13.0368 24.2094 13.4945 24.3779C14.1271 24.6108 14.7172 24.9249 15.0428 25.3184C15.0064 25.5543 14.9889 25.896 15.0459 26.2232C15.107 26.5736 15.2599 26.9392 15.6027 27.1125C15.6627 27.1428 15.7356 27.1182 15.7656 27.0576C15.7955 26.997 15.7712 26.9233 15.7113 26.8929C15.4715 26.7717 15.3412 26.5031 15.285 26.1805C15.2592 26.0327 15.2503 25.8802 15.252 25.7378C15.3233 25.8676 15.4068 26.0021 15.4997 26.1258C15.5999 26.2592 15.7143 26.3841 15.8395 26.4766C15.9646 26.569 16.1081 26.6345 16.2639 26.6345C16.3309 26.6345 16.3852 26.5796 16.3852 26.5118C16.3852 26.444 16.3309 26.389 16.2639 26.389C16.1768 26.389 16.0827 26.3523 15.9827 26.2784C15.8829 26.2047 15.7849 26.0995 15.693 25.9772C15.5575 25.797 15.4422 25.5887 15.3597 25.4127C15.5759 25.4249 15.8391 25.4583 16.073 25.5252C16.227 25.5693 16.3616 25.626 16.4608 25.6958C16.5596 25.7653 16.6143 25.8408 16.6303 25.9221C16.6435 25.9886 16.7074 26.0317 16.7732 26.0184C16.8389 26.0051 16.8815 25.9405 16.8684 25.874C16.8359 25.7099 16.7297 25.5859 16.5994 25.4943C16.4696 25.403 16.3068 25.337 16.1391 25.289C15.9821 25.2441 15.8148 25.2133 15.6557 25.1933C15.7723 25.1476 15.8997 25.104 16.0312 25.0685C16.3608 24.9794 16.6966 24.9459 16.9537 25.0326C17.0173 25.054 17.086 25.0193 17.1072 24.955C17.1284 24.8907 17.0941 24.8211 17.0305 24.7997C16.705 24.69 16.3125 24.7384 15.9685 24.8313C15.6708 24.9118 15.3943 25.0299 15.2019 25.1291C14.8288 24.6987 14.2018 24.3771 13.5776 24.1472C13.1152 23.977 12.6431 23.8532 12.253 23.7724C12.2778 23.6614 12.2924 23.5534 12.2993 23.4533C12.3078 23.3491 12.308 23.2526 12.3024 23.1691C12.3089 23.1395 12.315 23.1069 12.3203 23.0714C13.0863 23.0725 14.1819 23.1461 15.2879 23.3643C16.5281 23.609 17.7623 24.0319 18.5645 24.722C18.5487 24.9163 18.5484 25.1957 18.5927 25.4785C18.6416 25.7909 18.7481 26.1291 18.9696 26.3531C19.017 26.401 19.0938 26.401 19.1412 26.3531C19.1886 26.3052 19.1886 26.2274 19.1412 26.1795C18.9743 26.0107 18.8786 25.7352 18.8324 25.4401C18.8131 25.3164 18.803 25.193 18.7993 25.0786C18.8674 25.1714 18.9457 25.2647 19.0321 25.3485C19.2332 25.5432 19.5051 25.7114 19.8075 25.6502C19.8732 25.6369 19.9158 25.5723 19.9027 25.5058C19.8895 25.4393 19.8256 25.3962 19.7598 25.4095C19.5768 25.4465 19.3834 25.3488 19.2001 25.1712C19.1111 25.085 19.0309 24.986 18.9633 24.8891C19.0792 24.9221 19.2048 24.9524 19.3269 24.9728C19.451 24.9935 19.5768 25.005 19.6879 24.9968C19.7948 24.9888 19.9111 24.9609 19.9908 24.8802C20.0382 24.8323 20.0382 24.7546 19.9908 24.7066C19.9434 24.6587 19.8666 24.6587 19.8192 24.7066C19.8019 24.7242 19.7583 24.7453 19.67 24.7519C19.5859 24.7582 19.4812 24.7498 19.3665 24.7306C19.2101 24.7045 19.0452 24.6602 18.9064 24.6157C19.0399 24.4759 19.2127 24.3135 19.3914 24.1803C19.512 24.0905 19.6312 24.017 19.7399 23.9718C19.8506 23.9258 19.9361 23.9152 19.997 23.9306C20.062 23.947 20.1279 23.907 20.1441 23.8413C20.1604 23.7755 20.1209 23.7089 20.0558 23.6924C19.9225 23.6587 19.7794 23.69 19.6476 23.7448C19.5138 23.8004 19.3767 23.8864 19.2474 23.9827C19.0318 24.1434 18.827 24.3411 18.6804 24.4999C17.8295 23.789 16.5658 23.3663 15.3343 23.1234C14.2214 22.9038 13.1198 22.8284 12.3408 22.826C12.3413 22.8066 12.3415 22.7868 12.3415 22.7667C12.3415 22.6123 12.3262 22.4355 12.2861 22.2479C13.2432 21.9164 15.2618 21.4035 17.271 21.4761C17.3588 21.7044 17.5019 22.0154 17.6792 22.2919C17.7783 22.4465 17.8905 22.594 18.0125 22.7105C18.1334 22.826 18.2721 22.9191 18.4248 22.9499C18.4905 22.9632 18.5544 22.9201 18.5676 22.8537C18.5807 22.7872 18.5381 22.7225 18.4724 22.7092C18.3823 22.691 18.2833 22.6316 18.1792 22.5321C18.0761 22.4336 17.9759 22.3033 17.8828 22.1583C17.7786 21.9957 17.6863 21.8191 17.6115 21.6568C17.7624 21.7419 17.9354 21.8302 18.1134 21.9056C18.277 21.975 18.4474 22.0346 18.6105 22.0704C18.7723 22.1059 18.9349 22.1199 19.0792 22.0908C19.145 22.0775 19.1876 22.0128 19.1744 21.9463C19.1613 21.8799 19.0973 21.8368 19.0316 21.85C18.9332 21.87 18.8075 21.8625 18.6621 21.8305C18.518 21.7988 18.3622 21.7449 18.2072 21.6792C17.9888 21.5867 17.7771 21.473 17.6092 21.3723C17.7475 21.3104 17.9115 21.244 18.0732 21.1912C18.1981 21.1504 18.3187 21.1188 18.4232 21.103C18.5312 21.0867 18.6077 21.0897 18.6529 21.1049C18.7165 21.1264 18.7852 21.0916 18.8064 21.0273C18.8276 20.963 18.7933 20.8935 18.7297 20.872C18.6293 20.8382 18.5065 20.8422 18.3874 20.8602C18.2649 20.8787 18.1306 20.9145 17.9986 20.9576C17.8519 21.0055 17.7044 21.0636 17.5738 21.1201C17.6272 20.9904 17.6916 20.8514 17.7619 20.7273C17.8248 20.6165 17.8894 20.523 17.9515 20.4588C18.017 20.3912 18.0615 20.3748 18.0844 20.3748C18.1515 20.3748 18.2058 20.3198 18.2058 20.252C18.2058 20.1843 18.1515 20.1293 18.0844 20.1293C17.9618 20.1293 17.8576 20.2049 17.7781 20.287C17.6954 20.3724 17.6189 20.486 17.5513 20.6052C17.4352 20.81 17.3363 21.0477 17.2711 21.2305C15.2389 21.1587 13.2061 21.6719 12.2229 22.0103C12.1666 21.8346 12.0867 21.654 11.9761 21.4774C12.5321 21.058 13.4341 20.4807 14.478 20.0049C15.59 19.4981 16.8518 19.1118 18.0226 19.1453C18.1408 19.2951 18.3368 19.4729 18.5876 19.577C18.8719 19.695 19.2251 19.7167 19.6011 19.4994C19.6593 19.4658 19.6795 19.3908 19.6463 19.332C19.613 19.2731 19.5389 19.2527 19.4807 19.2863C19.177 19.4618 18.9031 19.4426 18.6797 19.3499C18.5437 19.2935 18.426 19.2093 18.3338 19.1234C18.5483 19.0995 18.7987 19.0644 19.0189 19.0191C19.1729 18.9875 19.3182 18.9496 19.4273 18.9048C19.4813 18.8826 19.5336 18.8558 19.5745 18.8225C19.6133 18.7907 19.6623 18.7358 19.6623 18.6564C19.6623 18.5886 19.6079 18.5337 19.5409 18.5337C19.4824 18.5337 19.4335 18.5756 19.4221 18.6314C19.408 18.6429 19.3806 18.659 19.3359 18.6774C19.2478 18.7136 19.12 18.7478 18.9705 18.7786C18.8214 18.8092 18.6567 18.8352 18.4993 18.856C18.5904 18.783 18.6834 18.7068 18.7694 18.6338C18.8714 18.5472 18.9654 18.4633 19.0347 18.3937C19.0691 18.3593 19.0999 18.3258 19.123 18.2956C19.1344 18.2806 19.1461 18.2637 19.1554 18.2459C19.1633 18.2309 19.1768 18.2017 19.1768 18.1655C19.1768 18.0977 19.1225 18.0427 19.0554 18.0427C18.9983 18.0427 18.9503 18.0827 18.9374 18.1365L18.931 18.1454C18.9174 18.1632 18.8951 18.188 18.8637 18.2195C18.8016 18.2819 18.7135 18.3606 18.6132 18.4458C18.4863 18.5537 18.3429 18.6691 18.214 18.7702C18.2238 18.612 18.2431 18.4372 18.2759 18.2834C18.3022 18.1603 18.3354 18.0599 18.3737 17.9932C18.4136 17.9239 18.4408 17.92 18.4486 17.92C18.5156 17.92 18.5699 17.865 18.5699 17.7973C18.5699 17.7295 18.5156 17.6745 18.4486 17.6745C18.3107 17.6745 18.2196 17.7729 18.1639 17.8698C18.1066 17.9693 18.0669 18.099 18.0386 18.2316C17.9921 18.4495 17.9712 18.6999 17.9651 18.8985C16.7606 18.8791 15.4857 19.2764 14.3782 19.7811C13.3205 20.2632 12.4055 20.8478 11.8355 21.2772C11.8224 21.2606 11.8091 21.244 11.7954 21.2275C11.4016 20.7525 11.0079 20.5605 10.5785 20.5224C10.495 20.04 10.3856 19.3991 10.458 19.043C10.5615 18.5343 10.7281 18.0056 10.9836 17.5925C11.1502 17.6873 11.3785 17.7861 11.6042 17.8187C11.8673 17.8568 12.1649 17.808 12.3262 17.498C12.3566 17.4397 12.3402 17.364 12.2896 17.329C12.239 17.294 12.1733 17.3129 12.143 17.3712C12.0478 17.5541 11.8646 17.608 11.6308 17.5742C11.5227 17.5586 11.4118 17.5247 11.3088 17.4832C11.405 17.4545 11.5039 17.4178 11.5957 17.3722C11.7021 17.3193 11.8053 17.2513 11.8834 17.1637C11.9626 17.0749 12.0209 16.9597 12.0209 16.8186C12.0209 16.7505 11.973 16.6954 11.914 16.6954C11.855 16.6954 11.8072 16.7505 11.8072 16.8186C11.8072 16.8746 11.7854 16.9299 11.7343 16.9871C11.6822 17.0456 11.6051 17.0992 11.5111 17.1459C11.372 17.2151 11.21 17.2623 11.0728 17.2901C11.1112 17.0832 11.2256 16.89 11.3514 16.7327C11.4271 16.6382 11.5032 16.5614 11.5603 16.5083C11.5888 16.4818 11.6125 16.4614 11.6287 16.4478L11.6472 16.4326L11.6517 16.429L11.6528 16.4282C11.7019 16.3904 11.7151 16.314 11.6824 16.2574C11.6496 16.2008 11.5824 16.1861 11.5333 16.2239L11.5315 16.2253L11.5253 16.2302L11.5031 16.2484C11.4843 16.2641 11.4579 16.2871 11.4263 16.3164C11.3632 16.375 11.279 16.4599 11.1944 16.5656C11.1153 16.6644 11.0323 16.7858 10.9671 16.9244C10.9603 16.7892 10.9664 16.6579 10.9783 16.5403C10.9911 16.4154 11.0102 16.3088 11.0261 16.2336C11.0341 16.1961 11.0411 16.1666 11.0462 16.1468L11.052 16.1246L11.0534 16.1194C11.072 16.0548 11.0421 15.9839 10.9862 15.9624C10.9302 15.9409 10.8694 15.9768 10.8507 16.0414L10.8501 16.0435L10.8481 16.0509L10.841 16.0777C10.8352 16.1007 10.8273 16.1338 10.8185 16.1752C10.801 16.258 10.7801 16.3747 10.7661 16.5115C10.7402 16.7652 10.7372 17.0981 10.8318 17.4142C10.5405 17.8698 10.3594 18.449 10.25 18.9867C10.1358 19.5476 10.0976 20.1978 10.0976 20.515C10.0976 20.5227 10.0982 20.5286 10.0993 20.5332C9.84185 20.5632 9.57372 20.6275 9.29244 20.7001C9.26914 20.7061 9.24614 20.7129 9.22346 20.7202C9.24564 19.2281 9.74518 16.8078 11.6673 14.6463C11.9216 14.6198 12.2896 14.5526 12.6261 14.4294C12.8051 14.3639 12.9797 14.2809 13.1247 14.1766C13.2688 14.0728 13.3925 13.9413 13.4546 13.7754C13.4799 13.7076 13.4491 13.6307 13.3857 13.6036C13.3224 13.5765 13.2505 13.6095 13.2251 13.6772C13.1883 13.7756 13.1082 13.8698 12.9866 13.9574C12.8659 14.0443 12.7131 14.1183 12.5461 14.1794C12.3569 14.2486 12.1554 14.2993 11.9726 14.3342C12.0756 14.2216 12.187 14.0908 12.2956 13.9487C12.5165 13.6599 12.7334 13.3148 12.8392 12.9752C12.8608 12.906 12.8258 12.8312 12.7611 12.8081C12.6964 12.785 12.6264 12.8224 12.6048 12.8917C12.513 13.1863 12.318 13.502 12.1043 13.7814C11.9553 13.9762 11.8009 14.1487 11.6741 14.2782C11.6348 14.1064 11.6027 13.8976 11.6007 13.6951C11.5977 13.3967 11.66 13.1576 11.8077 13.0392C11.8623 12.9954 11.8733 12.9125 11.8324 12.8542C11.7914 12.7958 11.714 12.7839 11.6594 12.8277C11.4116 13.0265 11.3504 13.382 11.3536 13.698C11.3544 13.7821 11.3598 13.8667 11.3685 13.9494C11.2776 13.8046 11.19 13.6512 11.1174 13.5006C11.035 13.3296 10.9749 13.1685 10.9492 13.0313C10.9229 12.8914 10.9362 12.7989 10.9714 12.7425C11.0092 12.6817 10.9939 12.5997 10.9371 12.5592C10.8803 12.5187 10.8036 12.5351 10.7658 12.5959C10.6774 12.7377 10.6753 12.9149 10.7069 13.0833C10.739 13.2545 10.8103 13.4403 10.8978 13.6217C11.0526 13.9429 11.2681 14.2702 11.4461 14.5118C9.4616 16.7711 8.9742 19.3015 8.97563 20.8323C8.96648 20.8377 8.9574 20.8432 8.94838 20.8488C8.84011 20.0795 8.52935 19.1039 8.24018 18.1961C8.1068 17.7774 7.97801 17.3731 7.87582 17.0101C7.80047 16.7425 7.72822 16.4859 7.66339 16.2476C7.8279 16.1105 8.03366 15.8944 8.18774 15.6322C8.36295 15.334 8.47975 14.9607 8.37002 14.5723C8.3516 14.5071 8.28442 14.4694 8.21997 14.488C8.15552 14.5066 8.1182 14.5746 8.13661 14.6397C8.22107 14.9387 8.13559 15.2404 7.97905 15.5068C7.90696 15.6295 7.82158 15.7415 7.73565 15.8377C7.77073 15.6679 7.80329 15.4807 7.82463 15.2986C7.84478 15.1268 7.85539 14.9558 7.84769 14.8064C7.84024 14.6618 7.81493 14.5176 7.74744 14.4152C7.71026 14.3588 7.6349 14.3436 7.57913 14.3812C7.52336 14.4188 7.50828 14.495 7.54547 14.5514C7.57507 14.5963 7.59832 14.6842 7.60528 14.8192C7.61199 14.9493 7.60288 15.1051 7.58358 15.2697C7.55366 15.525 7.50032 15.7927 7.4501 16.0031C7.34191 15.9193 7.21938 15.8005 7.11803 15.6529C6.9717 15.4399 6.8739 15.174 6.917 14.8689C6.92648 14.8018 6.88037 14.7396 6.81401 14.73C6.74766 14.7204 6.68618 14.767 6.6767 14.8341C6.62271 15.2163 6.74742 15.5437 6.91867 15.793C6.99506 15.9042 7.08158 16.0012 7.1678 16.0826C7.04438 16.0616 6.91116 16.0157 6.78363 15.9327C6.52887 15.767 6.28143 15.4431 6.18859 14.8328C6.17839 14.7658 6.11642 14.7199 6.05017 14.7302C5.98392 14.7405 5.93847 14.8032 5.94866 14.8702C6.05001 15.5364 6.32852 15.9285 6.65229 16.1392C6.92297 16.3153 7.2145 16.3574 7.43622 16.338C7.50096 16.5754 7.57203 16.828 7.64585 17.0903C7.70544 17.3021 7.77071 17.5278 7.83844 17.7619C8.1625 18.8824 8.54279 20.1973 8.62637 21.1127C8.58992 21.1506 8.55493 21.19 8.52139 21.2305C8.5052 21.2071 8.48867 21.1832 8.47181 21.1588C7.91444 20.3538 6.99365 19.0239 6.17765 18.0933C5.7288 17.5813 5.27138 17.1023 4.84527 16.7256C4.46412 16.3887 4.09808 16.1246 3.77938 15.998C3.80924 15.8001 3.81833 15.5275 3.76662 15.2435C3.70461 14.9029 3.55301 14.5356 3.2334 14.2663ZM10.9524 16.0793C10.851 16.0403 10.8507 16.0414 10.8507 16.0414L10.9524 16.0793ZM11.5935 16.3257C11.5342 16.2232 11.5333 16.2239 11.5333 16.2239L11.5935 16.3257ZM9.23423 27.5179C9.33448 26.7998 9.42766 26.0789 9.52091 25.3574L9.56493 25.0171C9.45804 24.9995 9.35741 24.9789 9.26396 24.9564C9.00004 25.3133 8.67724 25.9549 8.73388 26.6956C8.83923 26.7878 8.97249 26.93 9.07551 27.0975C9.15072 27.2197 9.21518 27.3644 9.23423 27.5179ZM10.2044 20.515C10.208 20.515 10.2128 20.5173 10.2187 20.5217C10.1983 20.5232 10.1777 20.525 10.1572 20.527C10.1714 20.5206 10.1875 20.515 10.2044 20.515ZM2.90752 23.5632C2.87115 23.5566 2.83124 23.5506 2.78848 23.5455L2.90752 23.5632Z" fill="#262626"/>
</svg>
