<svg width="52" height="52" viewBox="0 0 52 52" fill="none" xmlns="http://www.w3.org/2000/svg">
<rect width="52" height="52" fill="white"/>
<path fill-rule="evenodd" clip-rule="evenodd" d="M35.6124 31.8803V25.6925C35.6124 20.2598 31.3088 15.8558 26.0002 15.8558C20.6915 15.8558 16.388 20.2598 16.388 25.6925V31.8803C16.388 37.313 20.6915 41.717 26.0002 41.717C31.3088 41.717 35.6124 37.313 35.6124 31.8803ZM26.0002 14.5728C19.9991 14.5728 15.1342 19.5512 15.1342 25.6925V31.8803C15.1342 38.0216 19.9991 43 26.0002 43C32.0013 43 36.8661 38.0215 36.8661 31.8803V25.6925C36.8661 19.5512 32.0013 14.5728 26.0002 14.5728Z" fill="#D2B589"/>
<path fill-rule="evenodd" clip-rule="evenodd" d="M10.7034 24.7922C10.7034 16.0704 17.6124 9 26.1351 9C34.6578 9 41.5668 16.0704 41.5668 24.7922V32.1223C41.5668 34.9597 39.3191 37.2599 36.5464 37.2599H29.6665V35.9769H36.5464C38.6267 35.9769 40.3131 34.2511 40.3131 32.1223V24.7922C40.3131 16.779 33.9654 10.283 26.1351 10.283C18.3048 10.283 11.9571 16.779 11.9571 24.7922V31.9772H10.7034V24.7922Z" fill="#D2B589"/>
<path fill-rule="evenodd" clip-rule="evenodd" d="M27.3609 37.9454C27.969 37.9454 28.552 37.403 28.552 36.6177C28.552 35.8325 27.969 35.2901 27.3609 35.2901C26.7528 35.2901 26.1698 35.8325 26.1698 36.6177C26.1698 37.403 26.7528 37.9454 27.3609 37.9454ZM27.3609 39.2284C28.7111 39.2284 29.8057 38.0596 29.8057 36.6177C29.8057 35.1759 28.7111 34.0071 27.3609 34.0071C26.0106 34.0071 24.916 35.1759 24.916 36.6177C24.916 38.0596 26.0106 39.2284 27.3609 39.2284Z" fill="#D2B589"/>
<path fill-rule="evenodd" clip-rule="evenodd" d="M10.1091 23.0457C8.00469 23.0457 6.25373 24.8754 6.25373 27.1904C6.25373 29.5055 8.00469 31.3351 10.1091 31.3351C10.4164 31.3351 10.8518 31.2036 11.2726 31.0765L11.2899 31.0713L11.6448 32.3019C11.6196 32.3094 11.593 32.3176 11.565 32.3261C11.2014 32.4369 10.6067 32.6182 10.1091 32.6182C7.26255 32.6182 5 30.1621 5 27.1904C5 24.2188 7.26255 21.7627 10.1091 21.7627C10.6506 21.7627 11.1735 21.8524 11.6645 22.019L11.2701 23.2368C10.9043 23.1128 10.5145 23.0457 10.1091 23.0457Z" fill="#D2B589"/>
<path fill-rule="evenodd" clip-rule="evenodd" d="M41.891 23.6284C41.57 23.6284 41.259 23.6704 40.962 23.7493L40.6467 22.5076C41.0456 22.4015 41.4625 22.3453 41.891 22.3453C44.7375 22.3453 47 24.8014 47 27.7731C47 30.7447 44.7375 33.2008 41.891 33.2008C41.5409 33.2008 41.1985 33.1633 40.8673 33.0917L41.1264 31.8364C41.373 31.8897 41.6286 31.9178 41.891 31.9178C43.9953 31.9178 45.7463 30.0881 45.7463 27.7731C45.7463 25.458 43.9953 23.6284 41.891 23.6284Z" fill="#D2B589"/>
<path fill-rule="evenodd" clip-rule="evenodd" d="M23.2851 25.5346C27.7705 25.5346 31.7534 23.1933 34.2124 19.5734L35.2418 20.3057C32.5668 24.2437 28.2122 26.8176 23.2851 26.8176C20.2946 26.8176 17.5119 25.8686 15.1888 24.2401L15.8974 23.1816C18.0212 24.6704 20.5587 25.5346 23.2851 25.5346Z" fill="#D2B589"/>
<path fill-rule="evenodd" clip-rule="evenodd" d="M31.2832 23.0642C32.7865 24.303 34.6306 25.0844 36.6365 25.2217L36.5528 26.5019C34.2774 26.3461 32.1906 25.4592 30.4969 24.0635L31.2832 23.0642Z" fill="#D2B589"/>
</svg>
