<svg width="10" height="52" viewBox="0 0 10 52" fill="none" xmlns="http://www.w3.org/2000/svg">
<path d="M2.443 51.855C2.57329 51.3473 2.69273 50.7187 2.8013 49.9693C2.9316 49.2199 3.04017 48.2892 3.12704 47.1771C3.2139 46.0651 3.27904 44.7476 3.32248 43.2245C3.36591 41.6774 3.38762 39.8763 3.38762 37.8215V14.2148C3.38762 12.1599 3.25733 10.5281 2.99674 9.31939C2.73616 8.11065 2.42128 7.17992 2.05212 6.5272C1.70467 5.87448 1.3355 5.40307 0.944625 5.11297C0.575461 4.82287 0.260586 4.55695 0 4.3152V4.17015L10 0V0.145049C9.86971 0.65272 9.73941 1.28126 9.60912 2.03068C9.50054 2.7801 9.40282 3.72292 9.31596 4.85914C9.2291 5.97118 9.16395 7.30079 9.12052 8.84798C9.07709 10.371 9.05537 12.1599 9.05537 14.2148V37.8215C9.05537 39.8763 9.07709 41.6774 9.12052 43.2245C9.16395 44.7476 9.2291 46.0651 9.31596 47.1771C9.40282 48.2892 9.50054 49.2199 9.60912 49.9693C9.73941 50.7187 9.86971 51.3473 10 51.855V52H2.443V51.855Z" fill="#D2B589"/>
</svg>
