<svg width="52" height="52" viewBox="0 0 52 52" fill="none" xmlns="http://www.w3.org/2000/svg">
<path fill-rule="evenodd" clip-rule="evenodd" d="M6 7.39336C6 6.62383 6.62383 6 7.39336 6H19.7944C20.5639 6 21.1878 6.62383 21.1878 7.39336V16.6211H19.9935V7.39336C19.9935 7.28343 19.9043 7.19431 19.7944 7.19431H7.39336C7.28343 7.19431 7.19431 7.28343 7.19431 7.39336V20.3125C7.19431 20.4225 7.28343 20.5116 7.39336 20.5116H17.2743V21.7059H7.39336C6.62383 21.7059 6 21.0821 6 20.3125V7.39336Z" fill="#D2B589"/>
<path fill-rule="evenodd" clip-rule="evenodd" d="M21.2043 24.3628C22.9388 24.3628 24.4183 22.892 24.4183 20.9855C24.4183 19.079 22.9388 17.6083 21.2043 17.6083C19.4698 17.6083 17.9903 19.079 17.9903 20.9855C17.9903 22.892 19.4698 24.3628 21.2043 24.3628ZM21.2043 25.5571C23.639 25.5571 25.6127 23.5103 25.6127 20.9855C25.6127 18.4607 23.639 16.4139 21.2043 16.4139C18.7696 16.4139 16.796 18.4607 16.796 20.9855C16.796 23.5103 18.7696 25.5571 21.2043 25.5571Z" fill="#D2B589"/>
<path fill-rule="evenodd" clip-rule="evenodd" d="M10.966 6.00146C11.295 6.02433 11.5432 6.30958 11.5203 6.63858C11.3799 8.6595 10.5549 9.95508 9.52005 10.7225C8.50889 11.4725 7.3492 11.6803 6.56594 11.6393C6.23659 11.622 5.98358 11.341 6.00083 11.0117C6.01808 10.6823 6.29906 10.4293 6.6284 10.4466C7.17978 10.4755 8.0544 10.3226 8.8086 9.76326C9.53914 9.22147 10.2105 8.25922 10.3289 6.55578C10.3518 6.22677 10.637 5.9786 10.966 6.00146ZM14.4624 11.7425C14.2695 12.005 14.1464 12.4262 14.1056 12.7527C14.0653 13.0745 13.7756 13.3054 13.453 13.2728C13.1304 13.2402 12.8927 12.956 12.9176 12.6327C12.9728 11.9172 12.7652 11.7224 12.6848 11.6678C12.5605 11.5832 12.3549 11.5686 12.1767 11.6182C11.8589 11.7066 11.5297 11.5207 11.4413 11.203C11.3529 10.8853 11.5388 10.556 11.8565 10.4676C12.231 10.3634 12.8384 10.3279 13.3564 10.6802C13.4496 10.7436 13.5346 10.8157 13.6113 10.8963C13.7872 10.6951 14.0172 10.5132 14.3117 10.4141C14.6845 10.2886 15.0861 10.3207 15.4889 10.4948C15.7917 10.6256 15.9311 10.977 15.8003 11.2798C15.6694 11.5825 15.318 11.7219 15.0152 11.5911C14.8357 11.5135 14.7405 11.5299 14.6927 11.546C14.6334 11.5659 14.5533 11.6187 14.4624 11.7425ZM16.5328 12.5037C16.7619 12.2793 17.1274 12.2759 17.3606 12.496L20.9601 15.8932C21.1999 16.1196 21.2108 16.4975 20.9845 16.7374C20.7581 16.9772 20.3802 16.9881 20.1403 16.7618L16.9584 13.7587L13.943 16.7126L15.1223 17.975C15.3474 18.216 15.3345 18.5938 15.0935 18.819C14.8525 19.0441 14.4746 19.0312 14.2495 18.7902L10.8951 15.1994L7.00394 18.8198C6.76249 19.0444 6.38463 19.0308 6.15998 18.7894C5.93533 18.5479 5.94895 18.1701 6.1904 17.9454L10.5179 13.9191C10.759 13.6947 11.1362 13.708 11.361 13.9486L13.1275 15.8396L16.5328 12.5037ZM23.021 18.8478C23.2968 19.0285 23.3739 19.3987 23.1932 19.6745L21.0497 22.9459C20.9427 23.1092 20.7627 23.2099 20.5676 23.2155C20.3724 23.2212 20.1869 23.1312 20.0706 22.9744L19.2617 21.8839C19.0652 21.6191 19.1207 21.245 19.3856 21.0486C19.6504 20.8521 20.0245 20.9075 20.2209 21.1724L20.5198 21.5754L22.1942 19.02C22.375 18.7441 22.7451 18.667 23.021 18.8478Z" fill="#D2B589"/>
<path fill-rule="evenodd" clip-rule="evenodd" d="M28.3873 7.39336C28.3873 6.62383 29.0112 6 29.7807 6H42.1817C42.9513 6 43.5751 6.62383 43.5751 7.39336V16.6211H42.3808V7.39336C42.3808 7.28343 42.2917 7.19431 42.1817 7.19431H29.7807C29.6708 7.19431 29.5816 7.28343 29.5816 7.39336V20.3125C29.5816 20.4225 29.6708 20.5116 29.7807 20.5116H39.6616V21.7059H29.7807C29.0112 21.7059 28.3873 21.0821 28.3873 20.3125V7.39336Z" fill="#D2B589"/>
<path fill-rule="evenodd" clip-rule="evenodd" d="M43.5916 24.3628C45.3261 24.3628 46.8057 22.892 46.8057 20.9855C46.8057 19.079 45.3261 17.6083 43.5916 17.6083C41.8571 17.6083 40.3776 19.079 40.3776 20.9855C40.3776 22.892 41.8571 24.3628 43.5916 24.3628ZM43.5916 25.5571C46.0263 25.5571 48 23.5103 48 20.9855C48 18.4607 46.0263 16.4139 43.5916 16.4139C41.157 16.4139 39.1833 18.4607 39.1833 20.9855C39.1833 23.5103 41.157 25.5571 43.5916 25.5571Z" fill="#D2B589"/>
<path fill-rule="evenodd" clip-rule="evenodd" d="M33.3534 6.00146C33.6824 6.02433 33.9305 6.30958 33.9077 6.63858C33.7672 8.6595 32.9422 9.95508 31.9074 10.7225C30.8962 11.4725 29.7365 11.6803 28.9533 11.6393C28.6239 11.622 28.3709 11.341 28.3882 11.0117C28.4054 10.6823 28.6864 10.4293 29.0157 10.4466C29.5671 10.4755 30.4417 10.3226 31.1959 9.76326C31.9265 9.22147 32.5979 8.25922 32.7162 6.55578C32.7391 6.22677 33.0244 5.9786 33.3534 6.00146ZM36.8497 11.7425C36.6568 12.005 36.5337 12.4262 36.4929 12.7527C36.4527 13.0745 36.163 13.3053 35.8403 13.2728C35.5177 13.2402 35.28 12.956 35.305 12.6327C35.3602 11.9172 35.1525 11.7224 35.0721 11.6678C34.9478 11.5832 34.7422 11.5686 34.564 11.6182C34.2463 11.7066 33.917 11.5207 33.8286 11.203C33.7402 10.8853 33.9261 10.556 34.2439 10.4676C34.6184 10.3634 35.2257 10.3279 35.7438 10.6802C35.837 10.7436 35.922 10.8157 35.9986 10.8963C36.1745 10.6951 36.4045 10.5132 36.6991 10.4141C37.0718 10.2886 37.4734 10.3207 37.8763 10.4948C38.179 10.6256 38.3184 10.977 38.1876 11.2798C38.0568 11.5825 37.7053 11.7219 37.4026 11.5911C37.223 11.5135 37.1279 11.5299 37.0801 11.546C37.0208 11.5659 36.9407 11.6187 36.8497 11.7425ZM38.9202 12.5037C39.1493 12.2793 39.5147 12.2759 39.7479 12.496L43.3474 15.8932C43.5872 16.1196 43.5982 16.4975 43.3718 16.7374C43.1454 16.9772 42.7675 16.9881 42.5276 16.7618L39.3458 13.7587L36.3304 16.7126L37.5096 17.975C37.7347 18.216 37.7219 18.5938 37.4809 18.819C37.2399 19.0441 36.862 19.0312 36.6368 18.7902L33.2824 15.1994L29.3913 18.8198C29.1498 19.0444 28.772 19.0308 28.5473 18.7894C28.3227 18.5479 28.3363 18.1701 28.5777 17.9454L32.9052 13.9191C33.1463 13.6947 33.5235 13.708 33.7483 13.9486L35.5148 15.8396L38.9202 12.5037Z" fill="#D2B589"/>
<path fill-rule="evenodd" clip-rule="evenodd" d="M28.3873 29.8362C28.3873 29.0667 29.0112 28.4429 29.7807 28.4429H42.1817C42.9513 28.4429 43.5751 29.0667 43.5751 29.8362V39.0639H42.3808V29.8362C42.3808 29.7263 42.2917 29.6372 42.1817 29.6372H29.7807C29.6708 29.6372 29.5816 29.7263 29.5816 29.8362V42.7554C29.5816 42.8653 29.6708 42.9545 29.7807 42.9545H39.6616V44.1488H29.7807C29.0112 44.1488 28.3873 43.5249 28.3873 42.7554V29.8362Z" fill="#D2B589"/>
<path fill-rule="evenodd" clip-rule="evenodd" d="M43.5916 46.8056C45.3261 46.8056 46.8057 45.3349 46.8057 43.4284C46.8057 41.5219 45.3261 40.0511 43.5916 40.0511C41.8571 40.0511 40.3776 41.5219 40.3776 43.4284C40.3776 45.3349 41.8571 46.8056 43.5916 46.8056ZM43.5916 47.9999C46.0263 47.9999 48 45.9532 48 43.4284C48 40.9036 46.0263 38.8568 43.5916 38.8568C41.157 38.8568 39.1833 40.9036 39.1833 43.4284C39.1833 45.9532 41.157 47.9999 43.5916 47.9999Z" fill="#D2B589"/>
<path fill-rule="evenodd" clip-rule="evenodd" d="M33.3534 28.4443C33.6824 28.4672 33.9305 28.7524 33.9077 29.0815C33.7672 31.1024 32.9422 32.398 31.9074 33.1654C30.8962 33.9153 29.7365 34.1232 28.9533 34.0821C28.6239 34.0649 28.3709 33.7839 28.3882 33.4546C28.4054 33.1252 28.6864 32.8722 29.0157 32.8895C29.5671 32.9183 30.4417 32.7655 31.1959 32.2061C31.9265 31.6643 32.5979 30.7021 32.7162 28.9986C32.7391 28.6696 33.0244 28.4215 33.3534 28.4443ZM36.8497 34.1854C36.6568 34.4479 36.5337 34.8691 36.4929 35.1956C36.4527 35.5174 36.163 35.7482 35.8403 35.7156C35.5177 35.683 35.28 35.3989 35.305 35.0756C35.3602 34.3601 35.1525 34.1653 35.0721 34.1106C34.9478 34.0261 34.7422 34.0115 34.564 34.0611C34.2463 34.1495 33.917 33.9636 33.8286 33.6459C33.7402 33.3281 33.9261 32.9989 34.2439 32.9105C34.6184 32.8063 35.2257 32.7708 35.7438 33.1231C35.837 33.1865 35.922 33.2586 35.9986 33.3392C36.1745 33.1379 36.4045 32.9561 36.6991 32.8569C37.0718 32.7315 37.4734 32.7636 37.8763 32.9376C38.179 33.0684 38.3184 33.4199 38.1876 33.7227C38.0568 34.0254 37.7053 34.1648 37.4026 34.034C37.223 33.9564 37.1279 33.9727 37.0801 33.9888C37.0208 34.0088 36.9407 34.0616 36.8497 34.1854ZM38.9202 34.9466C39.1492 34.7221 39.5147 34.7187 39.7479 34.9389L43.3474 38.3361C43.5872 38.5625 43.5982 38.9404 43.3718 39.1802C43.1454 39.4201 42.7675 39.431 42.5276 39.2046L39.3458 36.2015L36.3304 39.1555L37.5096 40.4178C37.7347 40.6588 37.7219 41.0367 37.4809 41.2618C37.2398 41.487 36.862 41.4741 36.6368 41.2331L33.2824 37.6423L29.3913 41.2627C29.1498 41.4873 28.772 41.4737 28.5473 41.2322C28.3227 40.9908 28.3363 40.6129 28.5777 40.3883L32.9052 36.3619C33.1463 36.1376 33.5235 36.1508 33.7483 36.3915L35.5148 38.2825L38.9202 34.9466ZM45.4083 41.2906C45.6842 41.4714 45.7613 41.8415 45.5805 42.1174L43.437 45.3888C43.33 45.5521 43.15 45.6527 42.9549 45.6584C42.7598 45.6641 42.5742 45.574 42.4579 45.4173L41.649 44.3268C41.4526 44.0619 41.508 43.6879 41.7729 43.4914C42.0378 43.295 42.4118 43.3504 42.6083 43.6153L42.9072 44.0182L44.5815 41.4628C44.7623 41.187 45.1324 41.1099 45.4083 41.2906Z" fill="#D2B589"/>
<path fill-rule="evenodd" clip-rule="evenodd" d="M6 29.8272C6 29.0577 6.62383 28.4338 7.39336 28.4338H19.7944C20.5639 28.4338 21.1878 29.0577 21.1878 29.8272V39.0549H19.9935V29.8272C19.9935 29.7173 19.9043 29.6282 19.7944 29.6282H7.39336C7.28343 29.6282 7.19431 29.7173 7.19431 29.8272V42.7464C7.19431 42.8563 7.28343 42.9454 7.39336 42.9454H17.2743V44.1397H7.39336C6.62383 44.1397 6 43.5159 6 42.7464V29.8272Z" fill="#D2B589"/>
<path fill-rule="evenodd" clip-rule="evenodd" d="M21.2043 46.7966C22.9388 46.7966 24.4183 45.3259 24.4183 43.4193C24.4183 41.5128 22.9388 40.0421 21.2043 40.0421C19.4698 40.0421 17.9903 41.5128 17.9903 43.4193C17.9903 45.3259 19.4698 46.7966 21.2043 46.7966ZM21.2043 47.9909C23.639 47.9909 25.6127 45.9442 25.6127 43.4193C25.6127 40.8945 23.639 38.8478 21.2043 38.8478C18.7696 38.8478 16.796 40.8945 16.796 43.4193C16.796 45.9442 18.7696 47.9909 21.2043 47.9909Z" fill="#D2B589"/>
<path fill-rule="evenodd" clip-rule="evenodd" d="M10.966 28.4353C11.295 28.4582 11.5432 28.7434 11.5203 29.0724C11.3799 31.0933 10.5549 32.3889 9.52005 33.1564C8.50889 33.9063 7.3492 34.1141 6.56594 34.0731C6.23659 34.0559 5.98358 33.7749 6.00083 33.4455C6.01808 33.1162 6.29906 32.8632 6.6284 32.8804C7.17978 32.9093 8.0544 32.7564 8.8086 32.1971C9.53914 31.6553 10.2105 30.6931 10.3289 28.9896C10.3518 28.6606 10.637 28.4124 10.966 28.4353ZM14.4624 34.1764C14.2695 34.4388 14.1464 34.8601 14.1056 35.1865C14.0653 35.5083 13.7756 35.7392 13.453 35.7066C13.1304 35.674 12.8927 35.3899 12.9176 35.0665C12.9728 34.351 12.7652 34.1563 12.6848 34.1016C12.5605 34.017 12.3549 34.0025 12.1767 34.0521C11.8589 34.1405 11.5297 33.9546 11.4413 33.6368C11.3529 33.3191 11.5388 32.9899 11.8565 32.9015C12.2311 32.7973 12.8384 32.7617 13.3564 33.114C13.4496 33.1774 13.5346 33.2496 13.6113 33.3302C13.7872 33.1289 14.0172 32.947 14.3117 32.8479C14.6845 32.7224 15.0861 32.7545 15.489 32.9286C15.7917 33.0594 15.9311 33.4109 15.8003 33.7136C15.6694 34.0164 15.318 34.1557 15.0152 34.0249C14.8357 33.9474 14.7405 33.9637 14.6927 33.9798C14.6334 33.9998 14.5533 34.0526 14.4624 34.1764ZM16.5328 34.9375C16.7619 34.7131 17.1274 34.7097 17.3606 34.9298L20.9601 38.3271C21.1999 38.5534 21.2108 38.9314 20.9845 39.1712C20.7581 39.411 20.3802 39.422 20.1403 39.1956L16.9584 36.1925L13.943 39.1465L15.1223 40.4088C15.3474 40.6498 15.3345 41.0277 15.0935 41.2528C14.8525 41.4779 14.4746 41.4651 14.2495 41.2241L10.8951 37.6332L7.00394 41.2536C6.76249 41.4783 6.38463 41.4647 6.15998 41.2232C5.93533 40.9818 5.94895 40.6039 6.1904 40.3792L10.5179 36.3529C10.759 36.1286 11.1362 36.1418 11.361 36.3825L13.1275 38.2735L16.5328 34.9375Z" fill="#D2B589"/>
</svg>
