<svg width="52" height="52" viewBox="0 0 52 52" fill="none" xmlns="http://www.w3.org/2000/svg">
<path fill-rule="evenodd" clip-rule="evenodd" d="M26 6.55556C15.2611 6.55556 6.55556 15.2611 6.55556 26C6.55556 36.7389 15.2611 45.4444 26 45.4444C36.7389 45.4444 45.4444 36.7389 45.4444 26C45.4444 15.2611 36.7389 6.55556 26 6.55556ZM5 26C5 14.402 14.402 5 26 5C37.598 5 47 14.402 47 26C47 37.598 37.598 47 26 47C14.402 47 5 37.598 5 26Z" fill="#D2B589"/>
<path fill-rule="evenodd" clip-rule="evenodd" d="M25.9992 13.0852C26.4287 13.0852 26.7769 13.4334 26.7769 13.863V15.1454C30.085 15.4695 32.8436 17.8346 32.8436 20.9408C32.8436 21.3703 32.4954 21.7185 32.0658 21.7185C31.6363 21.7185 31.2881 21.3703 31.2881 20.9408C31.2881 18.9004 29.4295 17.0195 26.7769 16.708V25.2565C30.085 25.5806 32.8436 27.9457 32.8436 31.0519C32.8436 34.158 30.085 36.5232 26.7769 36.8472V38.1297C26.7769 38.5592 26.4287 38.9074 25.9992 38.9074C25.5696 38.9074 25.2214 38.5592 25.2214 38.1297V36.8472C21.9134 36.5232 19.1547 34.158 19.1547 31.0519C19.1547 30.6223 19.5029 30.2741 19.9325 30.2741C20.3621 30.2741 20.7103 30.6223 20.7103 31.0519C20.7103 33.0923 22.5688 34.9732 25.2214 35.2846V26.7361C21.9134 26.412 19.1547 24.0469 19.1547 20.9408C19.1547 17.8346 21.9134 15.4695 25.2214 15.1454V13.863C25.2214 13.4334 25.5696 13.0852 25.9992 13.0852ZM25.2214 16.708C22.5688 17.0195 20.7103 18.9004 20.7103 20.9408C20.7103 22.9811 22.5688 24.8621 25.2214 25.1735V16.708ZM26.7769 26.8191V35.2846C29.4295 34.9732 31.2881 33.0923 31.2881 31.0519C31.2881 29.0115 29.4295 27.1306 26.7769 26.8191Z" fill="#D2B589"/>
</svg>
