<svg width="52" height="52" viewBox="0 0 52 52" fill="none" xmlns="http://www.w3.org/2000/svg">
<rect width="52" height="52" fill="white"/>
<path fill-rule="evenodd" clip-rule="evenodd" d="M31.577 20.432C31.8143 20.6692 31.8143 21.054 31.577 21.2912L21.2913 31.5769C21.054 31.8142 20.6693 31.8142 20.432 31.5769C20.1947 31.3397 20.1947 30.955 20.432 30.7177L30.7177 20.432C30.955 20.1947 31.3397 20.1947 31.577 20.432Z" fill="#D2B589"/>
<path d="M32 30.2857C32 30.7403 31.8194 31.1764 31.4979 31.4979C31.1764 31.8194 30.7404 32 30.2857 32C29.8311 32 29.3951 31.8194 29.0736 31.4979C28.7521 31.1764 28.5714 30.7403 28.5714 30.2857C28.5714 29.831 28.7521 29.395 29.0736 29.0735C29.3951 28.752 29.8311 28.5714 30.2857 28.5714C30.7404 28.5714 31.1764 28.752 31.4979 29.0735C31.8194 29.395 32 29.831 32 30.2857ZM23.4286 21.7143C23.4286 22.169 23.248 22.605 22.9265 22.9265C22.605 23.248 22.169 23.4286 21.7143 23.4286C21.2596 23.4286 20.8236 23.248 20.5021 22.9265C20.1806 22.605 20 22.169 20 21.7143C20 21.2597 20.1806 20.8236 20.5021 20.5021C20.8236 20.1806 21.2596 20 21.7143 20C22.169 20 22.605 20.1806 22.9265 20.5021C23.248 20.8236 23.4286 21.2597 23.4286 21.7143Z" fill="#D2B589"/>
<path fill-rule="evenodd" clip-rule="evenodd" d="M36.416 11.7322L36.0806 11.7631C33.5761 11.994 31.1131 11.0087 29.4849 9.13035C27.6611 7.02644 24.3389 7.02644 22.5151 9.13035C20.8869 11.0087 18.4239 11.994 15.9194 11.7631L15.584 11.7322C12.9129 11.4859 10.6725 13.6994 10.941 16.3235C11.1924 18.7814 10.1549 21.2006 8.18377 22.7407C6.04868 24.4088 6.04868 27.5912 8.18377 29.2593C10.1549 30.7994 11.1924 33.2186 10.941 35.6765C10.6725 38.3006 12.9129 40.5141 15.584 40.2678L15.9194 40.2369C18.4239 40.006 20.8869 40.9913 22.5151 42.8696C24.3389 44.9736 27.6611 44.9736 29.4849 42.8696C31.1131 40.9913 33.5761 40.006 36.0806 40.2369L36.416 40.2678C39.0871 40.5141 41.3275 38.3006 41.059 35.6765C40.8076 33.2186 41.8451 30.7994 43.8162 29.2593C45.9513 27.5912 45.9513 24.4088 43.8162 22.7407C41.8451 21.2006 40.8076 18.7814 41.059 16.3235C41.3275 13.6994 39.0871 11.4859 36.416 11.7322ZM30.6904 8.12466C28.2347 5.29178 23.7653 5.29178 21.3096 8.12466C20.0151 9.61801 18.057 10.4009 16.0675 10.2175L15.7321 10.1866C12.0664 9.8486 8.99877 12.8846 9.36641 16.4785C9.56424 18.4124 8.74769 20.3155 7.19793 21.5263C4.26736 23.8159 4.26736 28.1841 7.19793 30.4737C8.74769 31.6845 9.56424 33.5876 9.36641 35.5215C8.99877 39.1154 12.0664 42.1514 15.7321 41.8134L16.0675 41.7825C18.057 41.5991 20.0151 42.382 21.3096 43.8753C23.7653 46.7082 28.2347 46.7082 30.6904 43.8753C31.9849 42.382 33.943 41.5991 35.9325 41.7825L36.2679 41.8134C39.9336 42.1514 43.0012 39.1154 42.6336 35.5215C42.4358 33.5876 43.2523 31.6845 44.8021 30.4737C47.7326 28.1841 47.7326 23.8159 44.8021 21.5263C43.2523 20.3155 42.4358 18.4124 42.6336 16.4785C43.0012 12.8846 39.9336 9.8486 36.2679 10.1866L35.9325 10.2175C33.943 10.4009 31.9849 9.61801 30.6904 8.12466Z" fill="#D2B589"/>
</svg>
