<svg width="52" height="52" viewBox="0 0 52 52" fill="none" xmlns="http://www.w3.org/2000/svg">
<path fill-rule="evenodd" clip-rule="evenodd" d="M37.2157 39.8168C37.4804 40.1354 37.4369 40.6082 37.1184 40.873L26.1676 49.9763L15.2692 40.8719C14.9513 40.6063 14.9089 40.1333 15.1744 39.8154C15.44 39.4976 15.913 39.4551 16.2309 39.7207L26.17 48.0237L36.1595 39.7195C36.478 39.4548 36.9509 39.4983 37.2157 39.8168Z" fill="#F8F8F8"/>
<path fill-rule="evenodd" clip-rule="evenodd" d="M37.2157 35.465C37.4804 35.7836 37.4369 36.2564 37.1184 36.5212L26.1676 45.6245L15.2692 36.5201C14.9513 36.2545 14.9089 35.7815 15.1744 35.4636C15.44 35.1458 15.913 35.1033 16.2309 35.3689L26.17 43.6719L36.1595 35.3677C36.478 35.1029 36.9509 35.1465 37.2157 35.465Z" fill="#F8F8F8"/>
<path fill-rule="evenodd" clip-rule="evenodd" d="M35.1389 23.7593V12.4444C35.1389 7.50456 31.1343 3.5 26.1944 3.5C21.2546 3.5 17.25 7.50456 17.25 12.4444V23.7593C17.25 28.6991 21.2546 32.7037 26.1944 32.7037C31.1343 32.7037 35.1389 28.6991 35.1389 23.7593ZM26.1944 2C20.4261 2 15.75 6.67613 15.75 12.4444V23.7593C15.75 29.5276 20.4261 34.2037 26.1944 34.2037C31.9628 34.2037 36.6389 29.5276 36.6389 23.7593V12.4444C36.6389 6.67614 31.9628 2 26.1944 2Z" fill="#F8F8F8"/>
<path fill-rule="evenodd" clip-rule="evenodd" d="M26.4352 13.3148V8.96291C26.4352 8.82995 26.3274 8.72217 26.1945 8.72217C26.0615 8.72217 25.9537 8.82995 25.9537 8.96291V13.3148C25.9537 13.4477 26.0615 13.5555 26.1945 13.5555C26.3274 13.5555 26.4352 13.4477 26.4352 13.3148ZM26.1945 7.22217C25.2331 7.22217 24.4537 8.00153 24.4537 8.96291V13.3148C24.4537 14.2761 25.2331 15.0555 26.1945 15.0555C27.1559 15.0555 27.9352 14.2761 27.9352 13.3148V8.96291C27.9352 8.00152 27.1559 7.22217 26.1945 7.22217Z" fill="#F8F8F8"/>
</svg>
