<svg width="32" height="52" viewBox="0 0 32 52" fill="none" xmlns="http://www.w3.org/2000/svg">
<path d="M30.5629 1.57482C26.4538 3.11876 22.8982 4.98179 19.8962 7.1639C16.9155 9.346 14.4564 11.7751 12.519 14.4513C10.5815 17.1275 9.14438 19.9992 8.20759 23.0665C7.80306 24.3634 7.4837 25.6809 7.2495 27.019C8.93147 25.8456 10.5709 24.981 12.1677 24.4252C14.4245 23.6223 16.5429 23.2209 18.523 23.2209C20.0772 23.2209 21.6527 23.5091 23.2495 24.0855C24.8676 24.6413 26.3154 25.5059 27.5928 26.6793C28.8916 27.8321 29.9454 29.2835 30.7545 31.0333C31.5848 32.7831 32 34.8314 32 37.1781C32 39.0103 31.6806 40.8219 31.0419 42.6128C30.4245 44.3832 29.477 45.9683 28.1996 47.3682C26.9434 48.7474 25.3466 49.8694 23.4092 50.734C21.493 51.578 19.2468 52 16.6707 52C14.4564 52 12.338 51.6295 10.3154 50.8884C8.31404 50.1267 6.54691 48.9739 5.01397 47.4299C3.48104 45.886 2.25682 43.9406 1.34132 41.5938C0.447106 39.2264 0 36.4268 0 33.1948C0 30.4774 0.361943 27.9145 1.08583 25.5059C1.80971 23.0768 2.83167 20.8021 4.1517 18.6817C5.47172 16.5614 7.04724 14.5851 8.87824 12.753C10.7092 10.9002 12.7319 9.2019 14.9461 7.65796C17.1603 6.11401 19.5236 4.70388 22.0359 3.42755C24.5482 2.15123 27.1457 1.00871 29.8283 0L30.5629 1.57482ZM6.8024 32.5772C6.8024 35.8092 7.05788 38.5162 7.56886 40.6983C8.10113 42.8804 8.84631 44.6405 9.80439 45.9786C10.7625 47.2961 11.9015 48.2431 13.2216 48.8195C14.5629 49.3753 16.0426 49.6532 17.6607 49.6532C18.7252 49.6532 19.7578 49.4473 20.7585 49.0356C21.7804 48.6033 22.6853 47.9652 23.4731 47.1211C24.2608 46.2771 24.8889 45.2272 25.3573 43.9715C25.847 42.7158 26.0918 41.2542 26.0918 39.5867C26.0918 37.7751 25.8044 36.0871 25.2295 34.5226C24.6547 32.958 23.8882 31.6097 22.9301 30.4774C21.9933 29.3246 20.9182 28.4188 19.7046 27.7601C18.5123 27.1013 17.2881 26.772 16.0319 26.772C14.9035 26.772 13.8603 26.8646 12.9022 27.0499C11.9654 27.2146 11.0925 27.4513 10.2834 27.7601C9.47439 28.0689 8.72921 28.4291 8.0479 28.8409C7.64338 29.0879 7.27079 29.3349 6.93014 29.5819C6.84498 30.5701 6.8024 31.5685 6.8024 32.5772Z" fill="#D2B589"/>
</svg>
