<svg width="52" height="52" viewBox="0 0 52 52" fill="none" xmlns="http://www.w3.org/2000/svg">
<path fill-rule="evenodd" clip-rule="evenodd" d="M28.0192 16.3076H35.2884C35.7345 16.3076 36.0961 16.6692 36.0961 17.1153V24.3845C36.0961 24.8306 35.7345 25.1922 35.2884 25.1922C34.8424 25.1922 34.4808 24.8306 34.4808 24.3845V19.0653L19.0653 34.4807H24.3846C24.8307 34.4807 25.1923 34.8423 25.1923 35.2884C25.1923 35.7345 24.8307 36.0961 24.3846 36.0961H17.1154C16.6693 36.0961 16.3077 35.7345 16.3077 35.2884V28.0192C16.3077 27.5731 16.6693 27.2115 17.1154 27.2115C17.5614 27.2115 17.9231 27.5731 17.9231 28.0192V33.3384L33.3385 17.923H28.0192C27.5731 17.923 27.2115 17.5614 27.2115 17.1153C27.2115 16.6692 27.5731 16.3076 28.0192 16.3076Z" fill="#D2B589"/>
<path fill-rule="evenodd" clip-rule="evenodd" d="M34.0769 5.80769C34.0769 5.36162 34.4385 5 34.8846 5H42.9615C45.1919 5 47 6.80808 47 9.03846V17.1154C47 17.5615 46.6384 17.9231 46.1923 17.9231C45.7462 17.9231 45.3846 17.5615 45.3846 17.1154V9.03846C45.3846 7.70023 44.2997 6.61538 42.9615 6.61538H34.8846C34.4385 6.61538 34.0769 6.25377 34.0769 5.80769Z" fill="#D2B589"/>
<path fill-rule="evenodd" clip-rule="evenodd" d="M17.9231 46.1923C17.9231 46.6384 17.5615 47 17.1154 47H9.03848C6.8081 47 5.00002 45.1919 5.00002 42.9615L5.00002 34.8846C5.00002 34.4385 5.36164 34.0769 5.80771 34.0769C6.25379 34.0769 6.6154 34.4385 6.6154 34.8846L6.6154 42.9615C6.6154 44.2998 7.70025 45.3846 9.03848 45.3846H17.1154C17.5615 45.3846 17.9231 45.7462 17.9231 46.1923Z" fill="#D2B589"/>
<circle cx="5.80769" cy="24.3847" r="0.807692" fill="#D2B589"/>
<circle cx="5.80769" cy="14.6923" r="0.807692" fill="#D2B589"/>
<circle cx="5.80769" cy="5.80769" r="0.807692" fill="#D2B589"/>
<circle cx="15.5" cy="5.80769" r="0.807692" fill="#D2B589"/>
<circle cx="25.1923" cy="5.80769" r="0.807692" fill="#D2B589"/>
<circle cx="26.8077" cy="46.1923" r="0.807692" fill="#D2B589"/>
<circle cx="36.5" cy="46.1923" r="0.807692" fill="#D2B589"/>
<circle cx="46.1923" cy="46.1923" r="0.807692" fill="#D2B589"/>
<circle cx="46.1923" cy="37.3077" r="0.807692" fill="#D2B589"/>
<circle cx="46.1923" cy="27.6153" r="0.807692" fill="#D2B589"/>
</svg>
