<svg width="29" height="52" viewBox="0 0 29 52" fill="none" xmlns="http://www.w3.org/2000/svg">
<path d="M8.84581 18.2838C10.0123 18.1466 11.222 17.882 12.4749 17.4901C13.7493 17.0786 14.9158 16.5103 15.9743 15.7852C17.0544 15.0601 17.94 14.1489 18.6313 13.0514C19.3225 11.954 19.6682 10.6312 19.6682 9.0831C19.6682 8.20124 19.5277 7.37818 19.2469 6.61391C18.9661 5.83004 18.5233 5.14415 17.9184 4.55625C17.3352 3.96834 16.5791 3.50782 15.6503 3.17467C14.743 2.82193 13.6629 2.64556 12.4101 2.64556C10.9412 2.64556 9.61266 2.83173 8.42458 3.20407C7.2581 3.57641 6.21043 4.04673 5.28156 4.61504C4.3527 5.18334 3.54264 5.82024 2.8514 6.52572C2.16015 7.21161 1.58771 7.8877 1.13408 8.55399L0.680447 8.34822L2.78659 2.29282C3.62905 1.97927 4.48231 1.68532 5.34637 1.41097C6.21043 1.11702 7.11769 0.872056 8.06816 0.676088C9.04022 0.460524 10.0663 0.293951 11.1464 0.176371C12.248 0.0587903 13.4469 0 14.743 0C15.4127 0 16.1579 0.0587903 16.9788 0.176371C17.7996 0.274355 18.6313 0.450725 19.4737 0.705483C20.3378 0.960241 21.1695 1.30318 21.9687 1.73431C22.768 2.14585 23.4808 2.66516 24.1073 3.29226C24.7553 3.91935 25.2629 4.66403 25.6302 5.52629C26.019 6.36895 26.2134 7.33899 26.2134 8.4364C26.2134 9.80818 25.911 11.0134 25.3061 12.052C24.7013 13.071 23.9561 13.9627 23.0704 14.727C22.1847 15.4716 21.2451 16.0889 20.2514 16.5789C19.2577 17.0492 18.3721 17.4215 17.5944 17.6959C18.8905 17.7939 20.2082 18.0388 21.5475 18.4308C22.9084 18.8227 24.1397 19.4204 25.2413 20.2239C26.343 21.0077 27.2395 22.0366 27.9307 23.3103C28.6436 24.5841 29 26.1421 29 27.9842C29 30.081 28.568 32.0701 27.7039 33.9514C26.8615 35.8327 25.7166 37.5866 24.2693 39.2131C22.822 40.8396 21.1479 42.3388 19.2469 43.7106C17.346 45.0823 15.3371 46.3071 13.2201 47.385C11.1248 48.4628 8.98622 49.3936 6.80447 50.1775C4.64432 50.9614 2.58138 51.5689 0.615642 52L0 50.5008C3.11061 49.7954 6.00521 48.7959 8.6838 47.5025C11.3624 46.2092 13.6845 44.6414 15.6503 42.7993C17.6376 40.9376 19.1929 38.8114 20.3162 36.4206C21.4611 34.0298 22.0335 31.3842 22.0335 28.4839C22.0335 26.8574 21.7743 25.4954 21.2559 24.398C20.7374 23.3005 20.057 22.4285 19.2145 21.7818C18.3937 21.1155 17.4648 20.6452 16.4279 20.3708C15.4127 20.0769 14.3866 19.9299 13.3497 19.9299C12.7233 19.9299 12.14 19.9593 11.6 20.0181C11.06 20.0769 10.5847 20.1455 10.1743 20.2239C9.69907 20.3022 9.25624 20.4002 8.84581 20.5178V18.2838Z" fill="#D2B589"/>
</svg>
