<svg width="33" height="52" viewBox="0 0 33 52" fill="none" xmlns="http://www.w3.org/2000/svg">
<path d="M3.58477 51.2867C3.9198 50.8349 4.44467 50.2286 5.15939 49.4678C5.87411 48.6831 6.70051 47.7677 7.63858 46.7215C8.57665 45.6516 9.58173 44.4627 10.6538 43.155C11.7259 41.8473 12.798 40.4326 13.8701 38.9108C14.9421 37.3891 15.9695 35.7723 16.9523 34.0604C17.9574 32.3246 18.8396 30.5176 19.599 28.6392C20.3584 26.7609 20.9614 24.8112 21.4081 22.7901C21.8772 20.7691 22.1117 18.7005 22.1117 16.5844C22.1117 14.3256 21.8548 12.3759 21.3411 10.7353C20.8497 9.07087 20.1685 7.7037 19.2975 6.63374C18.4264 5.54001 17.399 4.7316 16.2152 4.2085C15.0538 3.68541 13.7919 3.42387 12.4294 3.42387C10.732 3.42387 9.19086 3.73297 7.80609 4.35117C6.44365 4.94559 5.24873 5.64701 4.22132 6.45542C3.21624 7.26383 2.38985 8.07225 1.74213 8.88066C1.11675 9.68907 0.692386 10.3073 0.469036 10.7353L0 10.5213L2.27817 3.28121C3.46193 2.71056 4.56751 2.22314 5.59492 1.81893C6.64467 1.39095 7.69442 1.04618 8.74416 0.784636C9.81624 0.523091 10.9107 0.332876 12.0274 0.213992C13.1665 0.0713306 14.4173 0 15.7797 0C16.6954 0 17.667 0.106996 18.6944 0.320988C19.7218 0.534979 20.7381 0.879744 21.7431 1.35528C22.7482 1.83082 23.6975 2.44902 24.5909 3.20988C25.5066 3.94696 26.3107 4.86237 27.003 5.9561C27.7178 7.02606 28.2761 8.27435 28.6782 9.70096C29.1025 11.1276 29.3147 12.7563 29.3147 14.5871C29.3147 16.5368 29.0355 18.4984 28.4772 20.4719C27.9188 22.4216 27.1817 24.3475 26.266 26.2497C25.3503 28.128 24.3005 29.9707 23.1168 31.7778C21.933 33.5848 20.7157 35.3086 19.465 36.9492C18.2142 38.5898 16.9746 40.1353 15.7462 41.5857C14.5178 43.0123 13.4122 44.3201 12.4294 45.5089H25.3279C26.1543 45.5089 26.9584 45.497 27.7401 45.4733C28.5442 45.4257 29.2812 45.3663 29.9513 45.2949C30.6213 45.1998 31.202 45.0809 31.6934 44.9383C32.2071 44.7956 32.598 44.6173 32.866 44.4033H33V52H3.58477V51.2867Z" fill="#D2B589"/>
</svg>
