<svg width="150" height="36" viewBox="0 0 150 36" fill="none" xmlns="http://www.w3.org/2000/svg">
<path d="M149.629 0.620683C149.629 0.792936 149.399 0.87045 148.938 0.853224L148.329 0.827386H147.831C147.536 0.827386 147.36 0.879062 147.305 0.982414C147.25 1.06854 147.222 1.35276 147.222 1.83506V16.7177C147.222 17.6306 147.213 18.1646 147.194 18.3196C147.176 18.4746 147.121 18.5522 147.028 18.5522C146.918 18.5522 146.789 18.4574 146.641 18.2679L143.099 13.4363C141.052 10.6285 138.561 7.12321 135.628 2.92025L135.656 17.3378C135.674 17.5617 135.813 17.7081 136.071 17.777C136.329 17.8287 136.947 17.8631 137.925 17.8804C138.165 17.8804 138.284 17.9493 138.284 18.0871C138.284 18.2593 138.045 18.3455 137.565 18.3455C137.399 18.3455 136.873 18.3196 135.988 18.2679C135.693 18.2507 135.407 18.2421 135.13 18.2421C135.148 18.2421 134.982 18.2593 134.632 18.2938C134.3 18.3282 133.783 18.3455 133.082 18.3455H132.806C132.381 18.3455 132.169 18.2679 132.169 18.1129C132.169 17.9579 132.354 17.8804 132.723 17.8804C133.811 17.8631 134.438 17.8029 134.604 17.6995C134.789 17.5789 134.881 17.2086 134.881 16.5885V3.85042C134.881 2.42072 134.567 1.52501 133.94 1.16328C133.645 0.991026 133.119 0.9049 132.363 0.9049C131.883 0.9049 131.644 0.818774 131.644 0.646522C131.644 0.491495 131.782 0.413981 132.059 0.413981C132.428 0.413981 132.898 0.422593 133.47 0.439818C134.042 0.457043 134.346 0.465656 134.383 0.465656C134.438 0.465656 134.697 0.457043 135.158 0.439818C135.766 0.439818 136.357 0.431206 136.929 0.413981L146.475 13.6688V2.17096C146.475 1.63697 146.466 1.31831 146.447 1.21495C146.429 1.09438 146.355 1.00825 146.226 0.956575C146.097 0.887674 145.654 0.853224 144.898 0.853224C144.234 0.853224 143.902 0.77571 143.902 0.620683C143.902 0.44843 144.123 0.362305 144.566 0.362305H145.534C145.774 0.362305 146.032 0.362305 146.309 0.362305C146.604 0.379531 146.779 0.388143 146.835 0.388143C146.853 0.388143 147.019 0.379531 147.333 0.362305C147.628 0.362305 147.905 0.362305 148.163 0.362305H149.021C149.426 0.362305 149.629 0.44843 149.629 0.620683Z" fill="#262626"/>
<path d="M129.603 9.45585C129.603 12.0224 128.773 14.1928 127.113 15.967C125.471 17.7412 123.451 18.6283 121.053 18.6283C118.507 18.6283 116.367 17.7326 114.633 15.9412C112.899 14.1325 112.032 11.9104 112.032 9.27498C112.032 6.58784 112.862 4.39162 114.523 2.68633C116.201 0.963802 118.341 0.102539 120.942 0.102539C123.396 0.102539 125.452 0.998252 127.113 2.78968C128.773 4.5811 129.603 6.80316 129.603 9.45585ZM126.504 9.58504C126.504 6.43282 125.812 3.97822 124.429 2.22124C123.562 1.11883 122.353 0.567621 120.804 0.567621C119.328 0.567621 118.184 0.98964 117.373 1.83368C115.878 3.38395 115.131 5.90745 115.131 9.40417C115.131 12.1774 115.648 14.3306 116.681 15.8636C117.732 17.3967 119.199 18.1632 121.08 18.1632C122.833 18.1632 124.152 17.4397 125.037 15.9928C126.015 14.3909 126.504 12.2549 126.504 9.58504Z" fill="#262626"/>
<path d="M109.004 18.1129C109.004 18.2507 108.894 18.3196 108.672 18.3196H108.395C108.285 18.2679 107.03 18.2421 104.632 18.2421C104.171 18.2421 103.71 18.2593 103.249 18.2938C103.009 18.311 102.64 18.3196 102.142 18.3196C101.902 18.3196 101.782 18.2421 101.782 18.0871C101.782 17.9493 102.022 17.8718 102.502 17.8545C103.24 17.8373 103.673 17.7598 103.802 17.622C103.931 17.467 103.996 16.9674 103.996 16.1234V2.53269C103.996 1.68865 103.95 1.21495 103.858 1.1116C103.747 0.93935 103.24 0.835999 102.336 0.801548C101.985 0.784323 101.81 0.715423 101.81 0.594845C101.81 0.439818 101.921 0.362305 102.142 0.362305L105.877 0.413981C106.154 0.413981 106.689 0.405368 107.482 0.388143L108.534 0.362305C108.829 0.362305 108.977 0.439818 108.977 0.594845C108.977 0.732648 108.571 0.818774 107.759 0.853224C107.298 0.87045 107.012 0.947963 106.901 1.08576C106.809 1.22357 106.763 1.5853 106.763 2.17096V15.9684C106.763 16.9502 106.809 17.4842 106.901 17.5703C107.104 17.7598 107.704 17.8718 108.7 17.9062C108.903 17.9062 109.004 17.9751 109.004 18.1129Z" fill="#262626"/>
<path d="M99.5141 4.95994C99.5141 5.18387 99.4034 5.29583 99.182 5.29583C98.9606 5.29583 98.8038 5.0719 98.7116 4.62405C98.6747 4.31399 98.6378 4.00394 98.6009 3.69388C98.4718 3.07377 98.2597 2.5484 97.9645 2.11777C97.5771 1.54934 96.9407 1.18761 96.0552 1.03258C95.4834 0.929233 95.0222 0.886169 94.6717 0.903394C93.8047 0.937844 93.279 0.963682 93.0945 0.980908V16.5611C93.0945 17.1812 93.2697 17.5688 93.6202 17.7238C93.8047 17.81 94.3212 17.8616 95.1698 17.8789C95.3911 17.8961 95.5018 17.9736 95.5018 18.1114C95.5018 18.2664 95.3543 18.344 95.0591 18.344C94.9115 18.344 94.7824 18.3353 94.6717 18.3181C93.5649 18.2837 92.7809 18.2664 92.3197 18.2664C91.711 18.2664 91.1391 18.2751 90.6041 18.2923C90.0692 18.3095 89.3866 18.3181 88.5565 18.3181C88.1322 18.3181 87.9201 18.2492 87.9201 18.1114C87.9201 17.9564 88.3167 17.8703 89.1099 17.853C89.6818 17.853 90.0507 17.7411 90.2167 17.5171C90.309 17.3793 90.3551 17.0262 90.3551 16.4578V0.980908C88.5288 0.998133 87.3944 1.08426 86.9516 1.23929C85.7895 1.63547 85.1069 2.69482 84.904 4.41734C84.8487 4.9341 84.7195 5.19248 84.5166 5.19248C84.2953 5.19248 84.1846 5.01162 84.1846 4.64988C84.1846 4.46041 84.1938 4.27093 84.2122 4.08145L84.2676 3.48718C84.3229 2.69482 84.4059 1.65269 84.5166 0.360799H85.7618L91.4066 0.438312C92.0707 0.455537 93.1037 0.446925 94.5057 0.412475L99.099 0.334961C99.1359 1.29957 99.2558 2.72927 99.4587 4.62405C99.4587 4.67572 99.4679 4.74462 99.4864 4.83075C99.5048 4.89965 99.5141 4.94271 99.5141 4.95994Z" fill="#262626"/>
<path d="M83.8653 18.1397C83.8653 18.2947 83.7269 18.3722 83.4502 18.3722C83.2658 18.3722 83.0997 18.3636 82.9521 18.3464L79.438 18.2947L75.9238 18.3464C75.7947 18.3636 75.6563 18.3722 75.5088 18.3722C75.1398 18.3722 74.9554 18.2861 74.9554 18.1138C74.9554 17.9244 75.2044 17.8296 75.7025 17.8296C77.3258 17.8124 78.1375 17.6574 78.1375 17.3645C78.1375 17.3473 78.119 17.2784 78.0821 17.1578L77.8608 16.4602L77.7224 16.0985C77.5564 15.5645 77.1506 14.3846 76.5049 12.5587H70.5834C69.4766 15.3147 68.9232 16.8995 68.9232 17.3129C68.9232 17.554 69.0339 17.7004 69.2552 17.7521C69.3106 17.7693 69.7717 17.8038 70.6388 17.8555C71.1737 17.8727 71.4412 17.9588 71.4412 18.1138C71.4412 18.2861 71.2014 18.3722 70.7218 18.3722C69.8732 18.3722 68.8863 18.3378 67.761 18.2689C67.4843 18.2516 67.1984 18.243 66.9032 18.243C66.6081 18.243 66.3222 18.2603 66.0454 18.2947C65.8979 18.3119 65.778 18.3206 65.6857 18.3206C65.4275 18.3206 65.2983 18.243 65.2983 18.088C65.2983 17.933 65.5843 17.8469 66.1561 17.8296C66.7464 17.8124 67.1707 17.7349 67.429 17.5971C67.6872 17.4421 67.8901 17.1578 68.0377 16.7444C70.4174 10.4056 72.3543 5.31549 73.8485 1.47426C73.8854 1.26756 73.9592 1.03502 74.0699 0.776641L74.2083 0.31156C74.2636 0.122083 74.3374 0.0273438 74.4296 0.0273438C74.485 0.0273438 74.5311 0.0790197 74.568 0.182371C74.8078 0.854155 75.352 2.25801 76.2005 4.39394C76.8646 6.06479 78.5156 10.2591 81.1536 16.977C81.3011 17.3559 81.4856 17.5971 81.707 17.7004C81.9468 17.8038 82.4264 17.8641 83.1458 17.8813C83.6255 17.8985 83.8653 17.9847 83.8653 18.1397ZM76.3389 11.9644C76.0437 11.1893 75.5549 9.90602 74.8723 8.11459L73.5442 4.57481C72.7694 6.46958 71.8378 8.93279 70.7494 11.9644H76.3389Z" fill="#262626"/>
<path d="M64.0513 13.2807C64.0513 14.762 63.4426 16.0281 62.2251 17.0788C61.026 18.1123 59.5779 18.6291 57.8808 18.6291C56.8846 18.6291 55.6948 18.3449 54.3113 17.7765C53.9423 17.6214 53.6656 17.5439 53.4812 17.5439C53.2598 17.5439 53.1215 17.7937 53.0661 18.2932C53.0477 18.5516 52.9278 18.6808 52.7064 18.6808C52.5219 18.6808 52.4297 18.5774 52.4297 18.3707C52.4297 18.2329 52.4389 18.1296 52.4574 18.0607C52.6049 17.0099 52.6787 16.0367 52.6787 15.141C52.6787 14.9687 52.6603 14.4864 52.6234 13.6941C52.6049 13.5907 52.5957 13.4529 52.5957 13.2807C52.5957 13.0223 52.7064 12.8931 52.9278 12.8931C53.1122 12.8931 53.2414 13.0998 53.3151 13.5132C53.7948 16.5793 55.3535 18.1123 57.9915 18.1123C59.1167 18.1123 59.9837 17.8195 60.5925 17.2339C61.2197 16.631 61.5333 15.7869 61.5333 14.7017C61.5333 13.7371 61.2289 12.9189 60.6202 12.2471C60.0299 11.5581 59.0061 10.8777 57.5487 10.206C55.7963 9.39637 54.5788 8.61262 53.8962 7.85471C53.2137 7.0968 52.8724 6.15802 52.8724 5.03838C52.8724 3.60869 53.3613 2.42876 54.339 1.4986C55.3351 0.568433 56.5895 0.103351 58.1022 0.103351C58.7294 0.103351 59.5964 0.301442 60.7032 0.697623C61.0906 0.835425 61.3765 0.904326 61.561 0.904326C61.7639 0.904326 61.893 0.869875 61.9484 0.800974C62.0221 0.732073 62.0867 0.551208 62.142 0.258378C62.1789 0.0861261 62.2804 0 62.4464 0C62.6309 0 62.7231 0.103352 62.7231 0.310055C62.7231 0.447857 62.7139 0.551208 62.6955 0.620108C62.6401 1.03351 62.6124 1.53305 62.6124 2.11871C62.6124 2.94552 62.6586 3.60008 62.7508 4.08238L62.7785 4.49579C62.7969 4.68527 62.7139 4.78 62.5294 4.78C62.3265 4.78 62.1882 4.58191 62.1144 4.18573C61.9115 3.16944 61.4318 2.32541 60.6755 1.65362C59.9192 0.964613 59.0706 0.620108 58.1298 0.620108C57.2075 0.620108 56.4696 0.895712 55.9162 1.44692C55.3812 1.99813 55.1137 2.74743 55.1137 3.69481C55.1137 4.79723 55.5103 5.68433 56.3036 6.35611C56.7463 6.73507 57.7055 7.26905 59.1813 7.95806C60.9153 8.76765 62.1605 9.59446 62.9168 10.4385C63.6732 11.2653 64.0513 12.2127 64.0513 13.2807Z" fill="#262626"/>
<path d="M49.5728 0.620683C49.5728 0.792936 49.3422 0.87045 48.881 0.853224L48.2723 0.827386H47.7742C47.479 0.827386 47.3038 0.879062 47.2484 0.982414C47.1931 1.06854 47.1654 1.35276 47.1654 1.83506V16.7177C47.1654 17.6306 47.1562 18.1646 47.1378 18.3196C47.1193 18.4746 47.064 18.5522 46.9717 18.5522C46.8611 18.5522 46.7319 18.4574 46.5844 18.2679L43.0425 13.4363C40.9949 10.6285 38.5046 7.12321 35.5715 2.92025L35.5991 17.3378C35.6176 17.5617 35.7559 17.7081 36.0142 17.777C36.2725 17.8287 36.8904 17.8631 37.8681 17.8804C38.1079 17.8804 38.2278 17.9493 38.2278 18.0871C38.2278 18.2593 37.988 18.3455 37.5084 18.3455C37.3424 18.3455 36.8166 18.3196 35.9312 18.2679C35.636 18.2507 35.3501 18.2421 35.0734 18.2421C35.0919 18.2421 34.9258 18.2593 34.5753 18.2938C34.2433 18.3282 33.7268 18.3455 33.0258 18.3455H32.7491C32.3248 18.3455 32.1127 18.2679 32.1127 18.1129C32.1127 17.9579 32.2971 17.8804 32.6661 17.8804C33.7544 17.8631 34.3816 17.8029 34.5477 17.6995C34.7321 17.5789 34.8244 17.2086 34.8244 16.5885V3.85042C34.8244 2.42072 34.5108 1.52501 33.8836 1.16328C33.5884 0.991026 33.0627 0.9049 32.3063 0.9049C31.8267 0.9049 31.5869 0.818774 31.5869 0.646522C31.5869 0.491495 31.7253 0.413981 32.002 0.413981C32.3709 0.413981 32.8413 0.422593 33.4132 0.439818C33.985 0.457043 34.2894 0.465656 34.3263 0.465656C34.3816 0.465656 34.6399 0.457043 35.1011 0.439818C35.7098 0.439818 36.3001 0.431206 36.872 0.413981L46.4183 13.6688V2.17096C46.4183 1.63697 46.4091 1.31831 46.3907 1.21495C46.3722 1.09438 46.2984 1.00825 46.1693 0.956575C46.0402 0.887674 45.5974 0.853224 44.8411 0.853224C44.177 0.853224 43.845 0.77571 43.845 0.620683C43.845 0.44843 44.0663 0.362305 44.5091 0.362305H45.4775C45.7173 0.362305 45.9756 0.362305 46.2523 0.362305C46.5475 0.379531 46.7227 0.388143 46.778 0.388143C46.7965 0.388143 46.9625 0.379531 47.2761 0.362305C47.5713 0.362305 47.848 0.362305 48.1062 0.362305H48.964C49.3699 0.362305 49.5728 0.44843 49.5728 0.620683Z" fill="#262626"/>
<path d="M30.1478 14.1337C30.1478 14.2026 30.1294 14.6246 30.0925 15.3998C30.0556 16.1749 30.0371 16.9156 30.0371 17.6218V18.4745C28.2293 18.3884 24.6506 18.3453 19.301 18.3453C18.6553 18.3453 18.0189 18.3539 17.3917 18.3711C16.7645 18.3711 16.3402 18.3711 16.1189 18.3711H15.8421C15.4917 18.3711 15.3164 18.2936 15.3164 18.1386C15.3164 18.0352 15.3717 17.975 15.4824 17.9577C15.5378 17.9577 15.8883 17.9319 16.5339 17.8802C17.0135 17.8458 17.2995 17.751 17.3917 17.596C17.5024 17.441 17.5577 17.0362 17.5577 16.3816V1.86074C17.5577 1.36121 17.4747 1.06838 17.3087 0.982251C17.1611 0.878898 16.663 0.827222 15.8145 0.827222C15.5193 0.827222 15.3717 0.749709 15.3717 0.594682C15.3717 0.439654 15.5747 0.362141 15.9805 0.362141L20.7122 0.38798C20.8782 0.38798 21.9204 0.379367 23.8389 0.362141C25.7574 0.362141 27.0487 0.362141 27.7128 0.362141C28.2662 0.362141 28.7735 0.32769 29.2347 0.258789C29.2716 0.999475 29.3546 2.02438 29.4837 3.33349L29.5944 4.44452C29.6129 4.53065 29.6221 4.64261 29.6221 4.78042C29.6221 4.95267 29.5391 5.0388 29.373 5.0388C29.1701 5.0388 29.0226 4.82348 28.9303 4.39285C28.5798 2.84258 28.008 1.86074 27.2147 1.44733C26.6244 1.13728 25.0749 0.982251 22.5661 0.982251H20.2971V8.55274H20.9612C23.0273 8.55274 24.2817 8.40633 24.7244 8.1135C25.1856 7.82067 25.4992 6.96802 25.6652 5.55555C25.7021 5.19382 25.8035 5.01296 25.9696 5.01296C26.1725 5.01296 26.2739 5.16798 26.2739 5.47804C26.2739 5.78809 26.2555 6.24456 26.2186 6.84744C26.1817 7.45033 26.1633 7.9068 26.1633 8.21685C26.1633 10.06 26.2002 11.326 26.2739 12.015C26.2924 12.1873 26.3016 12.3337 26.3016 12.4543C26.3016 12.6782 26.2002 12.7902 25.9972 12.7902C25.8681 12.7902 25.7759 12.7213 25.7205 12.5834C25.6836 12.4284 25.6099 11.9461 25.4992 11.1365C25.3516 10.1202 24.8996 9.49152 24.1433 9.25037C23.8113 9.14701 22.9443 9.09534 21.5423 9.09534H20.2971V17.7769C24.3555 17.7769 26.7351 17.6993 27.4361 17.5443C28.6536 17.2859 29.3454 16.1835 29.5114 14.2371C29.5483 13.8064 29.6682 13.5911 29.8711 13.5911C30.0556 13.5911 30.1478 13.772 30.1478 14.1337Z" fill="#262626"/>
<path d="M12.6861 13.2807C12.6861 14.762 12.0773 16.0281 10.8598 17.0788C9.66077 18.1123 8.21268 18.6291 6.51555 18.6291C5.51941 18.6291 4.32958 18.3449 2.94605 17.7765C2.57711 17.6214 2.3004 17.5439 2.11593 17.5439C1.89457 17.5439 1.75622 17.7937 1.70088 18.2932C1.68243 18.5516 1.56252 18.6808 1.34116 18.6808C1.15669 18.6808 1.06445 18.5774 1.06445 18.3707C1.06445 18.2329 1.07368 18.1296 1.09212 18.0607C1.2397 17.0099 1.31349 16.0367 1.31349 15.141C1.31349 14.9687 1.29504 14.4864 1.25815 13.6941C1.2397 13.5907 1.23048 13.4529 1.23048 13.2807C1.23048 13.0223 1.34116 12.8931 1.56252 12.8931C1.74699 12.8931 1.87612 13.0998 1.94991 13.5132C2.42953 16.5793 3.98831 18.1123 6.62623 18.1123C7.7515 18.1123 8.61851 17.8195 9.22726 17.2339C9.85446 16.631 10.1681 15.7869 10.1681 14.7017C10.1681 13.7371 9.86369 12.9189 9.25494 12.2471C8.66463 11.5581 7.64082 10.8777 6.1835 10.206C4.43104 9.39637 3.21353 8.61262 2.53099 7.85471C1.84845 7.0968 1.50718 6.15802 1.50718 5.03838C1.50718 3.60869 1.99603 2.42876 2.97372 1.4986C3.96986 0.568433 5.22426 0.103351 6.73692 0.103351C7.36411 0.103351 8.23112 0.301442 9.33795 0.697623C9.72533 0.835425 10.0113 0.904326 10.1957 0.904326C10.3987 0.904326 10.5278 0.869875 10.5831 0.800974C10.6569 0.732073 10.7215 0.551208 10.7768 0.258378C10.8137 0.0861261 10.9152 0 11.0812 0C11.2657 0 11.3579 0.103352 11.3579 0.310055C11.3579 0.447857 11.3487 0.551208 11.3302 0.620108C11.2749 1.03351 11.2472 1.53305 11.2472 2.11871C11.2472 2.94552 11.2933 3.60008 11.3856 4.08238L11.4132 4.49579C11.4317 4.68527 11.3487 4.78 11.1642 4.78C10.9613 4.78 10.8229 4.58191 10.7491 4.18573C10.5462 3.16944 10.0666 2.32541 9.31028 1.65362C8.55395 0.964613 7.70538 0.620108 6.76459 0.620108C5.84223 0.620108 5.10435 0.895712 4.55094 1.44692C4.01598 1.99813 3.7485 2.74743 3.7485 3.69481C3.7485 4.79723 4.14511 5.68433 4.93833 6.35611C5.38106 6.73507 6.3403 7.26905 7.81607 7.95806C9.55009 8.76765 10.7953 9.59446 11.5516 10.4385C12.3079 11.2653 12.6861 12.2127 12.6861 13.2807Z" fill="#262626"/>
<path d="M149.255 30.6637C149.175 30.576 149.068 30.4915 148.933 30.41C148.799 30.3286 148.648 30.2566 148.481 30.1939C148.313 30.125 148.128 30.0718 147.927 30.0342C147.733 29.9904 147.528 29.9684 147.313 29.9684C146.763 29.9684 146.358 30.0655 146.096 30.2597C145.834 30.4539 145.704 30.7201 145.704 31.0583C145.704 31.2964 145.771 31.4843 145.905 31.6221C146.039 31.7599 146.244 31.8726 146.519 31.9603C146.8 32.048 147.156 32.1388 147.585 32.2328C148.082 32.333 148.511 32.4551 148.873 32.5992C149.235 32.7433 149.514 32.9374 149.708 33.1817C149.903 33.4198 150 33.7392 150 34.1401C150 34.4595 149.933 34.7383 149.799 34.9763C149.671 35.208 149.49 35.4022 149.255 35.5588C149.021 35.7091 148.746 35.8219 148.43 35.8971C148.115 35.966 147.773 36.0004 147.404 36.0004C147.042 36.0004 146.686 35.966 146.337 35.8971C145.995 35.8219 145.67 35.7154 145.361 35.5776C145.053 35.4398 144.764 35.2676 144.496 35.0609L144.929 34.3468C145.036 34.4533 145.174 34.5598 145.341 34.6662C145.516 34.7665 145.71 34.8604 145.925 34.9481C146.146 35.0358 146.384 35.1078 146.639 35.1642C146.894 35.2143 147.156 35.2394 147.424 35.2394C147.934 35.2394 148.33 35.1548 148.611 34.9857C148.893 34.8103 149.034 34.5566 149.034 34.2246C149.034 33.9741 148.954 33.7737 148.793 33.6233C148.638 33.473 148.407 33.3477 148.098 33.2475C147.79 33.1473 147.414 33.0471 146.971 32.9468C146.488 32.8341 146.083 32.712 145.754 32.5804C145.425 32.4426 145.177 32.2641 145.009 32.0449C144.848 31.8256 144.768 31.5406 144.768 31.1899C144.768 30.7639 144.878 30.4038 145.1 30.1094C145.321 29.815 145.626 29.5926 146.015 29.4423C146.405 29.292 146.844 29.2168 147.334 29.2168C147.656 29.2168 147.954 29.2481 148.229 29.3108C148.511 29.3734 148.772 29.4611 149.014 29.5738C149.255 29.6866 149.477 29.8212 149.678 29.9778L149.255 30.6637Z" fill="#262626"/>
<path d="M140.799 35.1839V35.9355H135.949V29.2646H140.708V30.0163H136.854V32.1773H140.205V32.8819H136.854V35.1839H140.799Z" fill="#262626"/>
<path d="M130.316 35.9355V29.2646H131.222V35.9355H130.316Z" fill="#262626"/>
<path d="M120.684 35.9355V29.2646H123.743C124.058 29.2646 124.347 29.3273 124.608 29.4526C124.87 29.5716 125.098 29.7344 125.292 29.9411C125.487 30.1416 125.638 30.3702 125.745 30.627C125.853 30.8776 125.906 31.1344 125.906 31.3974C125.906 31.7044 125.843 31.9956 125.715 32.2712C125.594 32.5468 125.42 32.7817 125.192 32.9759C124.971 33.1701 124.709 33.3048 124.407 33.3799L126.138 35.9355H125.111L123.481 33.5396H121.59V35.9355H120.684ZM121.59 32.788H123.753C124.001 32.788 124.216 32.7254 124.397 32.6001C124.585 32.4685 124.729 32.2963 124.83 32.0833C124.937 31.8704 124.991 31.6417 124.991 31.3974C124.991 31.1469 124.93 30.9183 124.81 30.7116C124.689 30.4986 124.531 30.3295 124.337 30.2042C124.142 30.0789 123.927 30.0163 123.693 30.0163H121.59V32.788Z" fill="#262626"/>
<path d="M113.037 35.9816C112.534 35.9816 112.078 35.8877 111.669 35.6998C111.26 35.5118 110.904 35.2582 110.602 34.9387C110.307 34.613 110.079 34.2497 109.918 33.8488C109.757 33.4417 109.677 33.0251 109.677 32.5992C109.677 32.1545 109.761 31.7317 109.928 31.3308C110.103 30.9237 110.341 30.5635 110.643 30.2503C110.951 29.9309 111.31 29.6803 111.719 29.4987C112.129 29.3108 112.575 29.2168 113.058 29.2168C113.561 29.2168 114.017 29.3139 114.426 29.5081C114.835 29.7022 115.187 29.9622 115.483 30.2879C115.778 30.6136 116.006 30.9769 116.167 31.3778C116.328 31.7787 116.408 32.1889 116.408 32.6086C116.408 33.0533 116.324 33.4793 116.157 33.8864C115.989 34.2873 115.751 34.6474 115.442 34.9669C115.14 35.2801 114.785 35.5275 114.376 35.7091C113.967 35.8908 113.52 35.9816 113.037 35.9816ZM110.592 32.5992C110.592 32.9374 110.649 33.2663 110.763 33.5857C110.884 33.8989 111.052 34.1777 111.267 34.422C111.481 34.6662 111.739 34.8604 112.041 35.0045C112.343 35.1485 112.679 35.2206 113.048 35.2206C113.43 35.2206 113.772 35.1454 114.074 34.9951C114.376 34.8448 114.631 34.6443 114.839 34.3938C115.053 34.1432 115.214 33.8613 115.322 33.5482C115.436 33.235 115.493 32.9187 115.493 32.5992C115.493 32.261 115.432 31.9353 115.311 31.6221C115.197 31.3089 115.03 31.0301 114.808 30.7859C114.594 30.5353 114.335 30.3411 114.034 30.2033C113.738 30.0593 113.41 29.9872 113.048 29.9872C112.665 29.9872 112.323 30.0624 112.021 30.2127C111.719 30.3568 111.461 30.5541 111.246 30.8047C111.038 31.0552 110.877 31.3371 110.763 31.6503C110.649 31.9572 110.592 32.2735 110.592 32.5992Z" fill="#262626"/>
<path d="M104.505 35.9355V30.8431L102.15 34.7611H101.597L99.2322 30.8431V35.9355H98.3267V29.2646H99.2826L101.868 33.596L104.464 29.2646H105.41V35.9355H104.505Z" fill="#262626"/>
<path d="M94.0647 35.1839V35.9355H89.2148V29.2646H93.9742V30.0163H90.1204V32.1773H93.4711V32.8819H90.1204V35.1839H94.0647Z" fill="#262626"/>
<path d="M83.5804 35.9355V30.8431L81.2259 34.7611H80.6725L78.3079 30.8431V35.9355H77.4023V29.2646H78.3582L80.9442 33.596L83.5402 29.2646H84.486V35.9355H83.5804Z" fill="#262626"/>
<path d="M67.5784 35.1839V35.9355H62.7285V29.2646H67.4878V30.0163H63.6341V32.1773H66.9847V32.8819H63.6341V35.1839H67.5784Z" fill="#262626"/>
<path d="M57.9969 29.2646V35.9355H57.0913V32.9007H53.157V35.9355H52.2515V29.2646H53.157V32.1491H57.0913V29.2646H57.9969Z" fill="#262626"/>
<path d="M48.2032 30.0163H45.738V35.9355H44.8324V30.0163H42.3672V29.2646H48.2032V30.0163Z" fill="#262626"/>
<path d="M33.532 35.1839V35.9355H28.6821V29.2646H33.4415V30.0163H29.5877V32.1773H32.9384V32.8819H29.5877V35.1839H33.532Z" fill="#262626"/>
<path d="M19.0252 29.2646L21.3898 34.8738L23.7443 29.2646H24.7002L21.8023 35.9355H20.9773L18.0693 29.2646H19.0252Z" fill="#262626"/>
<path d="M11.7498 29.2646H12.5145L15.4325 35.9355H14.4666L13.6214 33.9812H10.6229L9.78773 35.9355H8.82178L11.7498 29.2646ZM13.4201 33.3235L12.1322 30.2418L10.804 33.3235H13.4201Z" fill="#262626"/>
<path d="M4.75934 30.6637C4.67884 30.576 4.57151 30.4915 4.43735 30.41C4.30319 30.3286 4.15226 30.2566 3.98456 30.1939C3.81686 30.125 3.63239 30.0718 3.43115 30.0342C3.23662 29.9904 3.03202 29.9684 2.81737 29.9684C2.26731 29.9684 1.86147 30.0655 1.59986 30.2597C1.33825 30.4539 1.20744 30.7201 1.20744 31.0583C1.20744 31.2964 1.27452 31.4843 1.40868 31.6221C1.54284 31.7599 1.74744 31.8726 2.02247 31.9603C2.3042 32.048 2.65973 32.1388 3.08904 32.2328C3.58543 32.333 4.01475 32.4551 4.37698 32.5992C4.73921 32.7433 5.01759 32.9374 5.21213 33.1817C5.40666 33.4198 5.50392 33.7392 5.50392 34.1401C5.50392 34.4595 5.43684 34.7383 5.30268 34.9763C5.17523 35.208 4.99411 35.4022 4.75934 35.5588C4.52455 35.7091 4.24953 35.8219 3.93425 35.8971C3.61897 35.966 3.27686 36.0004 2.90792 36.0004C2.54569 36.0004 2.19017 35.966 1.84135 35.8971C1.49924 35.8219 1.1739 35.7154 0.865334 35.5776C0.556765 35.4398 0.268321 35.2676 0 35.0609L0.432667 34.3468C0.539995 34.4533 0.677509 34.5598 0.84521 34.6662C1.01962 34.7665 1.21415 34.8604 1.42881 34.9481C1.65017 35.0358 1.88831 35.1078 2.14321 35.1642C2.39811 35.2143 2.65973 35.2394 2.92805 35.2394C3.43786 35.2394 3.83363 35.1548 4.11537 34.9857C4.3971 34.8103 4.53797 34.5566 4.53797 34.2246C4.53797 33.9741 4.45747 33.7737 4.29648 33.6233C4.1422 33.473 3.91077 33.3477 3.6022 33.2475C3.29363 33.1473 2.91799 33.0471 2.47526 32.9468C1.99228 32.8341 1.58644 32.712 1.25775 32.5804C0.92906 32.4426 0.680863 32.2641 0.513163 32.0449C0.352171 31.8256 0.271675 31.5406 0.271675 31.1899C0.271675 30.7639 0.382357 30.4038 0.603721 30.1094C0.825086 29.815 1.1303 29.5926 1.51936 29.4423C1.90843 29.292 2.3478 29.2168 2.83749 29.2168C3.15947 29.2168 3.45798 29.2481 3.73301 29.3108C4.01475 29.3734 4.27636 29.4611 4.51785 29.5738C4.75933 29.6866 4.9807 29.8212 5.18194 29.9778L4.75934 30.6637Z" fill="#262626"/>
</svg>
